<svg width="96" height="66" viewBox="0 0 96 66" fill="none" xmlns="http://www.w3.org/2000/svg">
<path d="M7.458 22.4351C6.182 22.4351 5.04533 22.1198 4.048 21.4891C3.05067 20.8585 2.266 19.9491 1.694 18.7611C1.13667 17.5585 0.858 16.1285 0.858 14.4711C0.858 12.8138 1.13667 11.3911 1.694 10.2031C2.266 9.00048 3.05067 8.08381 4.048 7.45314C5.04533 6.82248 6.182 6.50714 7.458 6.50714C8.734 6.50714 9.87067 6.82248 10.868 7.45314C11.8653 8.08381 12.6427 9.00048 13.2 10.2031C13.772 11.3911 14.058 12.8138 14.058 14.4711C14.058 16.1285 13.772 17.5585 13.2 18.7611C12.6427 19.9491 11.8653 20.8585 10.868 21.4891C9.87067 22.1198 8.734 22.4351 7.458 22.4351ZM7.458 19.4211C8.39667 19.4211 9.13 19.0178 9.658 18.2111C10.2007 17.4045 10.472 16.1578 10.472 14.4711C10.472 12.7845 10.2007 11.5378 9.658 10.7311C9.13 9.92447 8.39667 9.52114 7.458 9.52114C6.534 9.52114 5.80067 9.92447 5.258 10.7311C4.73 11.5378 4.466 12.7845 4.466 14.4711C4.466 16.1578 4.73 17.4045 5.258 18.2111C5.80067 19.0178 6.534 19.4211 7.458 19.4211ZM21.6007 6.77114V22.1711H18.0367V9.63114H14.9567V6.77114H21.6007Z" fill="#EE7463"/>
<path d="M77.7188 46.8899V39.3925L79.1884 38.6572C79.5327 38.4856 79.75 38.1342 79.75 37.7493V32.6711C79.75 30.6399 78.5434 28.8961 76.8159 28.0846C77.3714 27.3889 77.7188 26.5195 77.7188 25.5618C77.7188 23.3213 75.8967 21.4993 73.6562 21.4993C71.4158 21.4993 69.5938 23.3213 69.5938 25.5618C69.5938 26.5195 69.9411 27.3889 70.4966 28.0846C69.7329 28.4431 69.0768 28.9854 68.5781 29.6558C68.0784 28.9854 67.4234 28.4431 66.6596 28.0846C67.2152 27.3889 67.5625 26.5195 67.5625 25.5618C67.5625 23.3213 65.7405 21.4993 63.5 21.4993C61.2595 21.4993 59.4375 23.3213 59.4375 25.5618C59.4375 26.5195 59.7848 27.3889 60.3404 28.0846C59.5766 28.4431 58.9205 28.9854 58.4219 29.6558C57.9222 28.9854 57.2671 28.4431 56.5034 28.0846C57.0589 27.3889 57.4062 26.5195 57.4062 25.5618C57.4062 23.3213 55.5842 21.4993 53.3438 21.4993C51.1033 21.4993 49.2812 23.3213 49.2812 25.5618C49.2812 26.5195 49.6286 27.3889 50.1841 28.0846C48.4566 28.8961 47.25 30.6399 47.25 32.6711V37.7493C47.25 38.1342 47.4673 38.4856 47.8116 38.6583L49.2812 39.3925V46.8899C49.2812 47.4515 49.7362 47.9055 50.2969 47.9055H56.3906C56.9513 47.9055 57.4062 47.4515 57.4062 46.8899V39.3925L58.4219 38.8847L59.4375 39.3925V46.8899C59.4375 47.4515 59.8925 47.9055 60.4531 47.9055H66.5469C67.1075 47.9055 67.5625 47.4515 67.5625 46.8899V39.3925L68.5781 38.8847L69.5938 39.3925V46.8899C69.5938 47.4515 70.0487 47.9055 70.6094 47.9055H76.7031C77.2638 47.9055 77.7188 47.4515 77.7188 46.8899ZM73.6562 23.5305C74.7765 23.5305 75.6875 24.4415 75.6875 25.5618C75.6875 26.682 74.7765 27.593 73.6562 27.593C72.536 27.593 71.625 26.682 71.625 25.5618C71.625 24.4415 72.536 23.5305 73.6562 23.5305ZM63.5 23.5305C64.6202 23.5305 65.5312 24.4415 65.5312 25.5618C65.5312 26.682 64.6202 27.593 63.5 27.593C62.3798 27.593 61.4688 26.682 61.4688 25.5618C61.4688 24.4415 62.3798 23.5305 63.5 23.5305ZM53.3438 23.5305C54.464 23.5305 55.375 24.4415 55.375 25.5618C55.375 26.682 54.464 27.593 53.3438 27.593C52.2235 27.593 51.3125 26.682 51.3125 25.5618C51.3125 24.4415 52.2235 23.5305 53.3438 23.5305ZM55.9366 37.8559C55.5923 38.0286 55.375 38.38 55.375 38.7649V45.8743H51.3125V38.7649C51.3125 38.38 51.0952 38.0286 50.7509 37.8559L49.2812 37.1216V32.6711C49.2812 30.9913 50.6483 29.6243 52.3281 29.6243H54.3594C56.0392 29.6243 57.4062 30.9913 57.4062 32.6711V37.1216L55.9366 37.8559ZM66.0929 37.8559C65.7486 38.0286 65.5312 38.38 65.5312 38.7649V45.8743H61.4688V38.7649C61.4688 38.38 61.2514 38.0286 60.9071 37.8559L59.4375 37.1216V32.6711C59.4375 30.9913 60.8045 29.6243 62.4844 29.6243H64.5156C66.1955 29.6243 67.5625 30.9913 67.5625 32.6711V37.1216L66.0929 37.8559ZM75.6875 38.7649V45.8743H71.625V38.7649C71.625 38.38 71.4077 38.0286 71.0634 37.8559L69.5938 37.1216V32.6711C69.5938 30.9913 70.9608 29.6243 72.6406 29.6243H74.6719C76.3517 29.6243 77.7188 30.9913 77.7188 32.6711V37.1216L76.2491 37.8569C75.9048 38.0286 75.6875 38.38 75.6875 38.7649Z" fill="#EE7463"/>
<path d="M83.8125 2.20239C78.2123 2.20239 73.6562 6.75849 73.6562 12.3586C73.6562 17.9588 78.2123 22.5149 83.8125 22.5149C89.4127 22.5149 93.9688 17.9588 93.9688 12.3586C93.9688 6.75849 89.4127 2.20239 83.8125 2.20239ZM83.8125 20.4836C79.3326 20.4836 75.6875 16.8386 75.6875 12.3586C75.6875 7.87872 79.3326 4.23364 83.8125 4.23364C88.2924 4.23364 91.9375 7.87872 91.9375 12.3586C91.9375 16.8386 88.2924 20.4836 83.8125 20.4836Z" fill="#EE7463"/>
<path d="M83.9852 9.26L83.8125 9.42351L83.6409 9.26C82.2941 7.98234 80.1034 7.98234 78.7577 9.26C78.0874 9.89477 77.7188 10.7428 77.7188 11.6498C77.7188 12.5557 78.0874 13.4058 78.7567 14.0405L83.1138 18.1731C83.3098 18.359 83.5606 18.4524 83.8125 18.4524C84.0644 18.4524 84.3152 18.359 84.5112 18.1741L88.8683 14.0416C89.5376 13.4048 89.9062 12.5547 89.9062 11.6498C89.9062 10.7428 89.5376 9.89477 88.8683 9.26C87.5216 7.98234 85.3309 7.98234 83.9852 9.26ZM87.4698 12.5669L83.8125 16.0373L80.1552 12.5669C79.8942 12.3191 79.75 11.9941 79.75 11.6498C79.75 11.3065 79.8942 10.9825 80.1552 10.7347C80.4427 10.4615 80.8205 10.3254 81.1983 10.3254C81.5761 10.3254 81.9539 10.4625 82.2423 10.7347L83.1138 11.5604C83.5058 11.9311 84.1192 11.9311 84.5112 11.5604L85.3827 10.7347C85.9575 10.1873 86.8939 10.1893 87.4698 10.7347C87.7308 10.9825 87.875 11.3065 87.875 11.6498C87.875 11.9941 87.7308 12.3191 87.4698 12.5669Z" fill="#EE7463"/>
<path d="M85.8438 55.0149C86.4166 55.0149 86.9183 54.6483 87.0889 54.1018C87.8709 51.6105 88.5321 50.9483 91.0245 50.1673C91.5698 49.9957 91.9375 49.495 91.9375 48.9211C91.9375 48.3473 91.5698 47.8466 91.0245 47.675C88.5331 46.894 87.872 46.2318 87.0899 43.7404C86.9183 43.194 86.4166 42.8274 85.8438 42.8274C85.2709 42.8274 84.7692 43.194 84.5986 43.7404C83.8166 46.2318 83.1554 46.894 80.663 47.675C80.1166 47.8466 79.75 48.3483 79.75 48.9211C79.75 49.494 80.1166 49.9957 80.663 50.1673C83.1544 50.9483 83.8166 51.6105 84.5986 54.1018C84.7692 54.6483 85.2709 55.0149 85.8438 55.0149ZM83.064 48.9211C84.3752 48.2783 85.2009 47.4525 85.8438 46.1414C86.4866 47.4525 87.3134 48.2783 88.6235 48.9211C87.3123 49.564 86.4866 50.3897 85.8438 51.7009C85.2009 50.3897 84.3741 49.564 83.064 48.9211Z" fill="#EE7463"/>
<path d="M44.2031 19.468V16.4211H47.25V14.3899H44.2031V11.343H42.1719V14.3899H39.125V16.4211H42.1719V19.468H44.2031Z" fill="#EE7463"/>
<path d="M37.0938 12.3586H39.125V8.29614H43.1875V6.26489H39.125V2.20239H37.0938V6.26489H33.0312V8.29614H37.0938V12.3586Z" fill="#EE7463"/>
<path d="M63.5305 59.0783L63.5335 61.1095C64.2424 61.1085 64.9554 61.0821 65.6511 61.0293L65.4998 59.0042C64.8528 59.0529 64.1906 59.0773 63.5305 59.0783Z" fill="#EE7463"/>
<path d="M59.2994 60.7999C59.9981 60.9035 60.708 60.9817 61.4068 61.0325L61.5541 59.0073C60.9051 58.9596 60.247 58.8875 59.597 58.791L59.2994 60.7999Z" fill="#EE7463"/>
<path d="M67.466 58.7809L67.7687 60.7908C68.4654 60.6852 69.1662 60.5531 69.8517 60.3957L69.4008 58.4163C68.763 58.5605 68.113 58.6834 67.466 58.7809Z" fill="#EE7463"/>
<path d="M55.1536 59.8635C55.8269 60.0697 56.5175 60.2545 57.2051 60.4089L57.652 58.4274C57.0142 58.2832 56.3743 58.1136 55.7508 57.9216L55.1536 59.8635Z" fill="#EE7463"/>
<path d="M71.3091 57.9042L71.9104 59.8441C72.5838 59.6359 73.2571 59.3992 73.9112 59.1423L73.1677 57.2522C72.5594 57.4909 71.9348 57.7102 71.3091 57.9042Z" fill="#EE7463"/>
<path d="M51.1937 58.3148C51.8294 58.6205 52.4845 58.9049 53.1406 59.1618L53.881 57.2717C53.2726 57.0331 52.6643 56.768 52.0732 56.4846L51.1937 58.3148Z" fill="#EE7463"/>
<path d="M74.9766 56.46L75.8602 58.2892C76.497 57.9814 77.1277 57.6473 77.734 57.2949L76.7143 55.5378C76.1527 55.8639 75.5677 56.1746 74.9766 56.46Z" fill="#EE7463"/>
<path d="M47.51 56.191C48.092 56.5881 48.6963 56.9679 49.3087 57.3194L50.3223 55.5603C49.7556 55.2333 49.1939 54.8808 48.6546 54.5132L47.51 56.191Z" fill="#EE7463"/>
<path d="M78.3881 54.4827L79.5327 56.1606C80.1126 55.7645 80.6864 55.3399 81.2389 54.8992L79.9704 53.3127C79.4575 53.722 78.9253 54.1151 78.3881 54.4827Z" fill="#EE7463"/>
<path d="M44.1869 53.5444C44.6998 54.0197 45.2411 54.4848 45.7946 54.9266L47.0611 53.3382C46.5462 52.9279 46.0435 52.4952 45.5661 52.0544L44.1869 53.5444Z" fill="#EE7463"/>
<path d="M41.2933 50.4375C41.7331 50.985 42.1993 51.5243 42.6797 52.0412L44.1665 50.6569C43.7207 50.1775 43.287 49.6758 42.8787 49.167L41.2933 50.4375Z" fill="#EE7463"/>
<path d="M40.6484 45.9138L38.8924 46.9335C39.2448 47.5408 39.6257 48.1431 40.0248 48.7261L41.6996 47.5774C41.3299 47.0371 40.9754 46.4765 40.6484 45.9138Z" fill="#EE7463"/>
<path d="M38.931 42.3684L37.0419 43.1139C37.2989 43.7669 37.5863 44.419 37.894 45.0547L39.7222 44.1681C39.4358 43.579 39.1697 42.9737 38.931 42.3684Z" fill="#EE7463"/>
<path d="M89.9824 43.0528C90.2394 42.3967 90.475 41.7213 90.6822 41.0489L88.7413 40.4497C88.5484 41.0743 88.33 41.6999 88.0903 42.3103L89.9824 43.0528Z" fill="#EE7463"/>
<path d="M37.763 38.6003L35.7836 39.0543C35.941 39.7409 36.1269 40.4295 36.3351 41.1028L38.2749 40.5016C38.0809 39.877 37.9093 39.2371 37.763 38.6003Z" fill="#EE7463"/>
<path d="M89.2522 38.5395L91.2327 38.9894C91.3881 38.3059 91.5201 37.6051 91.6247 36.9043L89.6148 36.6047C89.5183 37.2558 89.3964 37.9057 89.2522 38.5395Z" fill="#EE7463"/>
<path d="M37.1699 34.7024L35.1448 34.8568C35.1976 35.5565 35.2788 36.2654 35.3834 36.9622L37.3924 36.6585C37.2949 36.0115 37.2197 35.3534 37.1699 34.7024Z" fill="#EE7463"/>
<path d="M91.9375 32.657V32.5605H89.9063V32.6712C89.9063 33.3273 89.8819 33.9885 89.8342 34.6395L91.8593 34.7878C91.9111 34.0891 91.9375 33.3761 91.9375 32.657Z" fill="#EE7463"/>
<path d="M37.0937 32.6711C37.0937 32.0322 37.1161 31.3873 37.1618 30.7556L35.1356 30.6104C35.0869 31.2908 35.0625 31.9835 35.0625 32.6995L35.5571 32.7127L37.0937 32.6711Z" fill="#EE7463"/>
<path d="M89.5995 28.63C89.6981 29.2739 89.7742 29.932 89.825 30.5871L91.8502 30.4286C91.7953 29.7248 91.7131 29.0149 91.6064 28.3232L89.5995 28.63Z" fill="#EE7463"/>
<path d="M35.3672 28.4928L37.3771 28.7903C37.4726 28.1444 37.5934 27.4934 37.7366 26.8535L35.7552 26.4087C35.5998 27.0973 35.4698 27.7981 35.3672 28.4928Z" fill="#EE7463"/>
<path d="M88.7098 24.7889C88.9038 25.4105 89.0775 26.0503 89.2258 26.6891L91.2042 26.2291C91.0448 25.5415 90.8579 24.8539 90.6487 24.1836L88.7098 24.7889Z" fill="#EE7463"/>
<path d="M38.8894 23.0806L36.9973 22.3423C36.7414 22.9984 36.5067 23.6738 36.2996 24.3492L38.2425 24.9423C38.4334 24.3156 38.6517 23.689 38.8894 23.0806Z" fill="#EE7463"/>
<path d="M50.239 9.83071C50.8006 9.50368 51.3846 9.19188 51.9747 8.90548L51.087 7.07837C50.4512 7.38813 49.8216 7.72329 49.2162 8.0747L50.239 9.83071Z" fill="#EE7463"/>
<path d="M53.7825 8.10933C54.3908 7.86964 55.0154 7.64925 55.639 7.45425L55.0358 5.5144C54.3634 5.72362 53.6901 5.96128 53.035 6.22026L53.7825 8.10933Z" fill="#EE7463"/>
<path d="M71.1995 7.40536L71.7906 5.46146C71.1131 5.2563 70.4235 5.07349 69.74 4.92114L69.2952 6.90263C69.9309 7.04583 70.5708 7.21442 71.1995 7.40536Z" fill="#EE7463"/>
<path d="M57.5484 6.93837C58.1812 6.79313 58.8322 6.66821 59.4832 6.56868L59.1744 4.56079C58.4737 4.66743 57.7739 4.80149 57.0924 4.95892L57.5484 6.93837Z" fill="#EE7463"/>
<path d="M67.3502 6.54312L67.6447 4.5332C66.9531 4.43164 66.2442 4.35445 65.5363 4.30469L65.3921 6.32984C66.0502 6.37758 66.7083 6.44969 67.3502 6.54312Z" fill="#EE7463"/>
<path d="M61.4474 6.3431C62.1035 6.29231 62.7657 6.26692 63.4157 6.26489L63.4096 4.23364C62.7099 4.23567 61.9969 4.26411 61.2921 4.31794L61.4474 6.3431Z" fill="#EE7463"/>
<path d="M93.1146 57.4168C91.4865 56.9059 91.0823 56.5017 90.5704 54.8716C90.41 54.3618 89.9438 54.0195 89.4086 54.0195C88.8733 54.0195 88.4072 54.3618 88.2467 54.8727C87.7358 56.5017 87.3316 56.907 85.7036 57.4168C85.1927 57.5763 84.8494 58.0434 84.8494 58.5807C84.8494 59.1159 85.1927 59.5831 85.7015 59.7426C87.3316 60.2545 87.7358 60.6577 88.2477 62.2887C88.4072 62.7976 88.8743 63.1398 89.4086 63.1398C89.9428 63.1398 90.41 62.7976 90.5704 62.2867C91.0813 60.6577 91.4855 60.2534 93.1136 59.7426C93.6254 59.5831 93.9687 59.1159 93.9687 58.5807C93.9687 58.0434 93.6254 57.5763 93.1146 57.4168ZM89.4086 59.8919C89.0643 59.3445 88.6448 58.925 88.0964 58.5807C88.6448 58.2354 89.0643 57.8159 89.4086 57.2685C89.7529 57.8159 90.1723 58.2354 90.7208 58.5797C90.1723 58.925 89.7539 59.3445 89.4086 59.8919Z" fill="#EE7463"/>
</svg>
