<svg width="94" height="66" viewBox="0 0 94 66" fill="none" xmlns="http://www.w3.org/2000/svg">
<path d="M7.458 23.1048C6.182 23.1048 5.04533 22.7895 4.048 22.1588C3.05067 21.5282 2.266 20.6188 1.694 19.4308C1.13667 18.2282 0.858 16.7982 0.858 15.1408C0.858 13.4835 1.13667 12.0608 1.694 10.8728C2.266 9.67015 3.05067 8.75349 4.048 8.12282C5.04533 7.49215 6.182 7.17682 7.458 7.17682C8.734 7.17682 9.87067 7.49215 10.868 8.12282C11.8653 8.75349 12.6427 9.67015 13.2 10.8728C13.772 12.0608 14.058 13.4835 14.058 15.1408C14.058 16.7982 13.772 18.2282 13.2 19.4308C12.6427 20.6188 11.8653 21.5282 10.868 22.1588C9.87067 22.7895 8.734 23.1048 7.458 23.1048ZM7.458 20.0908C8.39667 20.0908 9.13 19.6875 9.658 18.8808C10.2007 18.0742 10.472 16.8275 10.472 15.1408C10.472 13.4542 10.2007 12.2075 9.658 11.4008C9.13 10.5942 8.39667 10.1908 7.458 10.1908C6.534 10.1908 5.80067 10.5942 5.258 11.4008C4.73 12.2075 4.466 13.4542 4.466 15.1408C4.466 16.8275 4.73 18.0742 5.258 18.8808C5.80067 19.6875 6.534 20.0908 7.458 20.0908ZM27.1667 19.9368V22.8408H15.5287V20.5308L21.4687 14.9208C22.0994 14.3195 22.5247 13.8062 22.7447 13.3808C22.9647 12.9408 23.0747 12.5082 23.0747 12.0828C23.0747 11.4668 22.8621 10.9975 22.4367 10.6748C22.0261 10.3375 21.4174 10.1688 20.6107 10.1688C19.9361 10.1688 19.3274 10.3008 18.7847 10.5648C18.2421 10.8142 17.7874 11.1955 17.4207 11.7088L14.8247 10.0368C15.4261 9.14215 16.2547 8.44549 17.3107 7.94682C18.3667 7.43349 19.5767 7.17682 20.9407 7.17682C22.0847 7.17682 23.0821 7.36749 23.9327 7.74882C24.7981 8.11549 25.4654 8.64349 25.9347 9.33282C26.4187 10.0075 26.6607 10.8068 26.6607 11.7308C26.6607 12.5668 26.4847 13.3515 26.1327 14.0848C25.7807 14.8182 25.0987 15.6542 24.0867 16.5928L20.5447 19.9368H27.1667Z" fill="#EE7463"/>
<g clip-path="url(#clip0_213_2140)">
<path d="M59.418 20.3408C59.418 18.5459 57.963 17.0908 56.168 17.0908C54.3731 17.0908 52.918 18.5459 52.918 20.3408C52.918 22.1357 54.3731 23.5908 56.168 23.5908C57.963 23.5908 59.418 22.1357 59.418 20.3408ZM56.168 21.4241C55.5697 21.4241 55.0847 20.9391 55.0847 20.3408C55.0847 19.7425 55.5697 19.2575 56.168 19.2575C56.7663 19.2575 57.2514 19.7425 57.2514 20.3408C57.2514 20.9391 56.7663 21.4241 56.168 21.4241Z" fill="#EE7463"/>
<path d="M90.8119 47.7318C89.072 47.3741 87.4035 46.7306 85.8741 45.8273C85.8216 45.7984 85.7669 45.7738 85.7105 45.7537C84.3478 45.2712 82.8858 45.1382 81.4584 45.3669L64.9614 47.8272L61.8761 46.1242C59.4858 44.813 56.5505 45.0157 54.3632 46.6431C52.9735 45.9226 51.2639 46.3756 50.4134 47.6898C49.5629 49.0039 49.8498 50.7491 51.0763 51.7218L67.5603 64.907C68.3373 65.5149 69.2962 65.8439 70.2827 65.8408C70.725 65.8405 71.1649 65.777 71.5892 65.6523C76.4415 64.0696 89.3971 59.8923 91.0502 59.5781C92.1826 59.3618 93.0015 58.3714 93.0013 57.2186V50.1217C93.0179 48.8716 92.0587 47.8245 90.8119 47.7318ZM60.835 48.0265L61.758 48.5346C61.1115 48.8226 60.5993 49.3465 60.3258 49.9993L56.5342 47.8607C57.9137 47.2347 59.5077 47.2961 60.835 48.0265ZM90.8346 57.2186C90.8352 57.3302 90.7551 57.426 90.6451 57.445C88.5196 57.8491 71.6347 63.3546 70.9511 63.5788C70.2494 63.7906 69.4887 63.6528 68.9058 63.2083L52.4294 50.0242C52.0705 49.7433 51.9905 49.2324 52.2463 48.8552C52.4108 48.6109 52.6863 48.4646 52.9808 48.4652C53.1323 48.4629 53.2817 48.5002 53.4142 48.5736L60.6595 52.6653C61.1598 53.3797 61.9561 53.8296 62.8262 53.8895L68.5451 57.1135C68.9493 57.342 69.4057 57.4622 69.87 57.4623C70.3815 57.4581 70.8832 57.3223 71.3271 57.068L76.0179 53.9242H80.0262C80.6245 53.9242 81.1096 53.4391 81.1096 52.8408C81.1096 52.2425 80.6245 51.7575 80.0262 51.7575H63.0363C62.6355 51.7569 62.3106 51.4325 62.3094 51.0317C62.3094 50.8529 62.3094 50.3817 63.5422 50.2278L81.7921 47.5065C82.8355 47.3368 83.9047 47.4261 84.9056 47.7665C85.5556 48.124 88.7427 49.814 90.722 49.8952C90.794 49.9471 90.8348 50.0319 90.8303 50.1206L90.8346 57.2186ZM67.283 53.9242H72.1374L70.1982 55.2242C70.0156 55.3308 69.7902 55.3329 69.6056 55.2296L67.283 53.9242Z" fill="#EE7463"/>
<path d="M29.1096 53.7075C29.7971 54.0553 30.6226 53.9822 31.2383 53.519C35.7656 50.1216 44.8634 43.444 46.8914 42.4592C47.8367 42.0075 48.675 41.3598 49.3506 40.5591L49.9453 39.8408H65.918C67.1146 39.8408 68.0847 38.8708 68.0847 37.6741V3.00749C68.0847 1.81087 67.1146 0.84082 65.918 0.84082H46.418C45.2214 0.84082 44.2513 1.81087 44.2513 3.00749V20.6095L37.4263 22.5833C35.7948 23.0274 34.4728 24.223 33.8676 25.8019L30.9198 33.5575C30.6902 34.1651 30.2757 34.6854 29.7347 35.0449C28.7004 35.2388 27.9635 36.16 28.0013 37.2116V51.9135C27.9991 52.6737 28.4287 53.3692 29.1096 53.7075ZM46.418 3.00749H65.918V37.6741H51.7404L53.5366 35.5075H59.418C60.0163 35.5075 60.5013 35.0225 60.5013 34.4241C60.5013 33.2275 61.4714 32.2575 62.668 32.2575C63.2663 32.2575 63.7513 31.7725 63.7513 31.1741V9.50749C63.7513 8.90918 63.2663 8.42415 62.668 8.42415C61.4714 8.42415 60.5013 7.4541 60.5013 6.25749C60.5013 5.65918 60.0163 5.17415 59.418 5.17415H52.918C52.3197 5.17415 51.8347 5.65918 51.8347 6.25749C51.8347 7.4541 50.8646 8.42415 49.668 8.42415C49.0697 8.42415 48.5847 8.90918 48.5847 9.50749V27.7248L46.418 29.4581V3.00749ZM57.5189 26.9318C57.4822 26.8912 57.4428 26.8532 57.4008 26.8181C55.514 25.295 52.9054 25.0306 50.7513 26.1442V10.4532C52.276 10.0562 53.4667 8.86553 53.8637 7.34082H58.4722C58.8693 8.86553 60.06 10.0562 61.5847 10.4532V30.2284C60.06 30.6254 58.8693 31.8161 58.4722 33.3408H55.3306L57.7464 30.4266C58.6065 29.3848 58.5048 27.853 57.5146 26.934L57.5189 26.9318ZM30.6338 37.0339C31.6926 36.4285 32.5088 35.4749 32.9435 34.3353L35.8945 26.5732C36.257 25.6385 37.0439 24.933 38.0124 24.6741L44.2513 22.865V31.7158C44.2516 32.1322 44.4905 32.5116 44.8659 32.6918C45.2413 32.872 45.6867 32.8211 46.0117 32.5608L51.1413 28.4506C52.5518 27.349 54.5288 27.341 55.9481 28.4311C55.9739 28.4571 56.001 28.4817 56.0293 28.5048C56.1073 28.5678 56.1565 28.6596 56.1658 28.7594C56.1762 28.8623 56.1446 28.9651 56.0781 29.0443L47.6866 39.1702C47.2098 39.7328 46.619 40.1877 45.9532 40.5049C43.3847 41.7453 32.2859 50.0241 30.168 51.6123L30.1279 37.1747C30.3055 37.1696 30.4792 37.1213 30.6338 37.0339Z" fill="#EE7463"/>
<path d="M55.0847 13.8407H57.2513C57.8496 13.8407 58.3347 13.3557 58.3347 12.7574C58.3347 12.1591 57.8496 11.6741 57.2513 11.6741H55.0847C54.4864 11.6741 54.0013 12.1591 54.0013 12.7574C54.0013 13.3557 54.4864 13.8407 55.0847 13.8407Z" fill="#EE7463"/>
</g>
<defs>
<clipPath id="clip0_213_2140">
<rect width="65" height="65" fill="white" transform="translate(28.0013 0.84082)"/>
</clipPath>
</defs>
</svg>
