<svg width="94" height="66" viewBox="0 0 94 66" fill="none" xmlns="http://www.w3.org/2000/svg">
<path d="M7.98718 22.8858C6.71117 22.8858 5.57451 22.5705 4.57718 21.9398C3.57984 21.3092 2.79517 20.3998 2.22317 19.2118C1.66584 18.0092 1.38717 16.5792 1.38717 14.9218C1.38717 13.2645 1.66584 11.8418 2.22317 10.6538C2.79517 9.45116 3.57984 8.53449 4.57718 7.90383C5.57451 7.27316 6.71117 6.95783 7.98718 6.95783C9.26318 6.95783 10.3998 7.27316 11.3972 7.90383C12.3945 8.53449 13.1718 9.45116 13.7292 10.6538C14.3012 11.8418 14.5872 13.2645 14.5872 14.9218C14.5872 16.5792 14.3012 18.0092 13.7292 19.2118C13.1718 20.3998 12.3945 21.3092 11.3972 21.9398C10.3998 22.5705 9.26318 22.8858 7.98718 22.8858ZM7.98718 19.8718C8.92584 19.8718 9.65918 19.4685 10.1872 18.6618C10.7298 17.8552 11.0012 16.6085 11.0012 14.9218C11.0012 13.2352 10.7298 11.9885 10.1872 11.1818C9.65918 10.3752 8.92584 9.97183 7.98718 9.97183C7.06318 9.97183 6.32984 10.3752 5.78717 11.1818C5.25917 11.9885 4.99518 13.2352 4.99518 14.9218C4.99518 16.6085 5.25917 17.8552 5.78717 18.6618C6.32984 19.4685 7.06318 19.8718 7.98718 19.8718ZM23.298 13.4918C24.6473 13.7118 25.6813 14.2178 26.4 15.0098C27.1186 15.7872 27.478 16.7552 27.478 17.9138C27.478 18.8085 27.2433 19.6372 26.774 20.3998C26.3046 21.1478 25.586 21.7492 24.618 22.2038C23.6646 22.6585 22.4913 22.8858 21.098 22.8858C20.0126 22.8858 18.942 22.7465 17.886 22.4678C16.8446 22.1745 15.9573 21.7638 15.224 21.2358L16.61 18.5078C17.1966 18.9478 17.8713 19.2925 18.634 19.5418C19.4113 19.7765 20.2033 19.8938 21.01 19.8938C21.9046 19.8938 22.6086 19.7252 23.122 19.3878C23.6353 19.0358 23.892 18.5445 23.892 17.9138C23.892 16.6525 22.9313 16.0218 21.01 16.0218H19.382V13.6678L22.55 10.0818H15.994V7.22183H26.774V9.53183L23.298 13.4918Z" fill="#EE7463"/>
<g clip-path="url(#clip0_213_2139)">
<path d="M45.1399 35.1535C45.8401 35.1183 46.4362 35.6576 46.4713 36.3578C46.5065 37.058 45.9672 37.6541 45.2669 37.6892C44.5667 37.7244 43.9706 37.1851 43.9355 36.485C43.9004 35.7847 44.4396 35.1885 45.1399 35.1535Z" fill="#EE7463"/>
<path d="M37.6755 62.2341C37.9303 62.5267 38.2835 62.673 38.6369 62.673C38.9625 62.673 39.2879 62.5488 39.5364 62.3005L47.3925 54.4445C48.526 57.8175 49.7651 60.6586 50.8401 62.8455C51.6762 64.5469 53.4225 65.6108 55.3971 65.6218C55.4073 65.622 55.4178 65.6219 55.4281 65.6219C57.394 65.6219 59.1419 64.5767 59.9949 62.8888C62.3114 58.3096 63.9395 53.9025 64.9724 49.4159C66.2138 44.023 66.8824 37.4904 66.9102 37.2149C66.9119 37.1994 66.9992 35.5979 67.0213 34.8159L70.3246 31.5126C71.0267 31.887 71.8271 32.0736 72.6654 32.0736C74.1699 32.0736 75.7942 31.4765 77.181 30.3025L83.1479 25.2509C84.0638 24.4756 84.6373 23.3642 84.6824 22.278C84.7181 21.4174 84.4257 20.6314 83.8591 20.0647L79.9736 16.1792C79.407 15.6125 78.6187 15.3189 77.7603 15.3559C76.6739 15.4009 75.5626 15.9746 74.7873 16.8904L69.7358 22.8573C67.9075 25.0168 67.4791 27.7522 68.5252 29.7139L67.025 31.2141C66.9256 27.4386 66.5026 23.6604 65.7612 19.9515C65.5016 18.6521 64.952 16.536 64.5625 15.0819C64.2898 14.0639 63.968 13.0611 63.5977 12.0744C62.7198 9.73503 61.0619 5.31808 61.0536 5.29992C60.808 4.7539 60.549 4.19822 60.2842 3.64813C59.3853 1.78307 57.5405 0.623604 55.4695 0.621826C55.468 0.621826 55.4663 0.621826 55.4648 0.621826C53.4013 0.621826 51.5615 1.77481 50.6625 3.63176C49.157 6.74084 47.8782 9.97738 46.8619 13.251C46.2032 15.3716 45.6441 17.5415 45.2 19.7002C44.4602 23.3024 44.0176 26.982 43.8841 30.6371C43.8584 31.3391 44.4068 31.9291 45.1088 31.9547C45.8075 31.9834 46.4008 31.4321 46.4265 30.73C46.5218 28.1181 46.7822 25.4931 47.2013 22.8951C49.4863 24.0924 51.9913 24.7917 54.5599 24.9501V35.6024C54.5599 36.3329 55.1758 36.9196 55.9166 36.8716C56.5926 36.8278 57.1039 36.2362 57.1039 35.5587V24.9287C59.406 24.7479 61.6598 24.1309 63.739 23.1102C64.288 26.6272 64.5445 30.1911 64.4998 33.7384C64.4995 33.7389 64.4994 33.7395 64.4991 33.7401L48.5978 49.6411C47.9575 47.2559 47.4045 44.6691 47.0135 41.9112C46.9149 41.2156 46.2702 40.7323 45.5755 40.8302C44.8799 40.9288 44.396 41.5726 44.4945 42.2682C44.979 45.6846 45.7023 48.8487 46.5338 51.705L37.7645 60.4741C37.2878 60.9511 37.2327 61.7255 37.6755 62.2341ZM47.6841 20.2522C47.6869 20.239 47.6892 20.2257 47.6918 20.2123C48.0119 18.6562 48.3943 17.0936 48.8326 15.5492C50.8571 16.9297 53.2371 17.6782 55.6784 17.6782C57.9971 17.6782 60.2089 17.0308 62.1552 15.796C62.5825 17.3341 62.9553 18.8936 63.2664 20.45C63.2687 20.4617 63.2709 20.4735 63.2733 20.4852C60.9464 21.766 58.3311 22.4427 55.6825 22.4427C52.8701 22.4427 50.1133 21.6851 47.6841 20.2522ZM61.3326 13.2791C59.6667 14.4936 57.7238 15.1343 55.6784 15.1343C53.4877 15.1343 51.3548 14.3696 49.623 12.9721C50.0308 11.7319 50.4764 10.4987 50.9597 9.27774C52.1151 9.99998 53.6565 10.609 55.5709 10.609C57.3434 10.609 58.7939 10.0806 59.8956 9.44862L61.3326 13.2791ZM58.7171 6.30691L58.9853 7.02204C58.1651 7.56223 57.015 8.06483 55.5709 8.06483C54.0272 8.06483 52.8165 7.49672 51.9606 6.88696C52.2789 6.16549 52.609 5.44935 52.9523 4.74044C53.4296 3.75427 54.3688 3.16584 55.4648 3.16584H55.4674C56.5702 3.16686 57.5141 3.75985 57.9924 4.75225C58.2415 5.26983 58.4853 5.79275 58.7171 6.30691ZM72.3271 29.5099L73.9257 27.9112C74.4224 27.4144 74.4224 26.609 73.9257 26.1122C73.4286 25.6156 72.6235 25.6157 72.1267 26.1122L70.5283 27.7107C70.413 26.7318 70.8126 25.5224 71.6773 24.5009L76.7289 18.534C76.9308 18.2956 77.1871 18.0963 77.4801 17.9837C77.6647 17.9127 78.0115 17.8152 78.1744 17.9781L82.0599 21.8635C82.2184 22.0219 82.1284 22.3567 82.0622 22.5367C81.9513 22.8386 81.7481 23.1024 81.504 23.3091L75.5372 28.3607C74.5155 29.2256 73.306 29.6253 72.3271 29.5099ZM53.1233 61.7232C52.7485 60.9607 52.3528 60.1142 51.9488 59.1924C52.766 58.6637 53.8998 58.1791 55.3174 58.1791C56.8366 58.1791 58.0327 58.7293 58.886 59.3279C58.5209 60.1272 58.1342 60.9309 57.7245 61.7406C57.3008 62.579 56.4435 63.0777 55.4287 63.0777C55.4229 63.0777 55.4172 63.0777 55.4113 63.0777C54.3925 63.0721 53.5373 62.5657 53.1233 61.7232ZM49.4104 52.4264L64.3185 37.5185C64.1281 39.2231 63.4934 44.4996 62.4932 48.845C61.8694 51.554 61.0156 54.2372 59.9104 56.9549C58.7571 56.2376 57.2218 55.6349 55.3174 55.6349C53.5277 55.6349 52.0669 56.1738 50.9612 56.8141C50.4327 55.4688 49.9072 54.0021 49.4104 52.4264Z" fill="#EE7463"/>
</g>
<defs>
<clipPath id="clip0_213_2139">
<rect width="65" height="65" fill="white" transform="translate(28.5292 0.621826)"/>
</clipPath>
</defs>
</svg>
