<svg width="128" height="89" viewBox="0 0 128 89" fill="none" xmlns="http://www.w3.org/2000/svg">
<g filter="url(#filter0_ii_213_2141)">
<circle cx="83.5176" cy="44.5" r="44" fill="#EE7463"/>
</g>
<path d="M65.8091 25.5593L65.7634 35.7156C65.7625 35.9042 65.7091 36.0889 65.6092 36.249C65.5093 36.409 65.3668 36.538 65.1976 36.6216C65.0285 36.7052 64.8394 36.74 64.6516 36.7221C64.4638 36.7042 64.2846 36.6344 64.1343 36.5205L63.1755 35.7939C61.7035 39.2428 61.1309 43.0088 61.5113 46.7393C61.8917 50.4698 63.2127 54.0427 65.3506 57.1234L63.6828 58.2828C61.2179 54.7317 59.7498 50.5849 59.4314 46.2739C59.1131 41.9629 59.956 37.6454 61.8725 33.7708C61.9389 33.6368 62.034 33.5192 62.1511 33.4263C62.2682 33.3334 62.4044 33.2674 62.5499 33.2332C62.6954 33.1989 62.8467 33.1973 62.9929 33.2282C63.1392 33.2592 63.2768 33.3221 63.3959 33.4124L63.7414 33.674L63.7718 26.9044L57.265 28.7706L58.2908 29.5468C58.485 29.6938 58.62 29.9058 58.671 30.144C58.722 30.3822 58.6857 30.6308 58.5687 30.8445C57.8914 32.0821 57.3076 33.3685 56.822 34.6931L54.9148 33.9949C55.3343 32.8505 55.8223 31.7324 56.3762 30.6467L54.4191 29.1653C54.2687 29.0515 54.1529 28.898 54.0848 28.7221C54.0167 28.5462 53.999 28.3548 54.0335 28.1694C54.0681 27.984 54.1536 27.8118 54.2805 27.6722C54.4074 27.5327 54.5706 27.4312 54.7519 27.3792L64.5134 24.5785C64.6649 24.535 64.8245 24.5274 64.9796 24.5563C65.1346 24.5852 65.2807 24.6498 65.4064 24.745C65.5322 24.8401 65.634 24.9633 65.7039 25.1046C65.7738 25.246 65.8098 25.4017 65.8091 25.5593ZM56.2845 58.1592L58.1 57.247C55.4984 52.0824 54.5435 46.2441 55.3641 40.5199C55.5278 39.3628 55.7616 38.2167 56.0643 37.0879L54.1025 36.5611C53.7785 37.7697 53.5284 38.9968 53.3534 40.2357C52.4739 46.3694 53.4969 52.6253 56.2845 58.1592ZM78.6511 35.4615C78.0048 35.776 77.3902 36.1518 76.8159 36.5839L78.0372 38.207C78.5072 37.8534 79.0102 37.5457 79.5392 37.2884L78.6511 35.4615ZM72.3484 46.5312H74.3797V45.5156C74.3789 43.2509 75.2212 41.0671 76.7425 39.3895L75.2365 38.0268C73.3769 40.0776 72.3474 42.7472 72.3484 45.5156V46.5312ZM110.942 73.9531V64.8125H108.911V72.9375H98.7547V60.75H99.7703V58.7187H97.9995C95.6951 57.4542 93.1096 56.7897 90.481 56.7865C87.8524 56.7833 85.2653 57.4414 82.9578 58.7003L82.9236 58.7187H75.3953C74.7712 58.7194 74.1557 58.8637 73.5964 59.1404C73.0371 59.4171 72.5489 59.8187 72.1696 60.3143C71.7904 60.8099 71.5302 61.3861 71.4093 61.9983C71.2885 62.6105 71.31 63.2423 71.4724 63.8448L67.517 62.0322C67.5984 61.8894 67.6985 61.758 67.8145 61.6416L70.0197 59.4364C70.21 59.246 70.317 58.9879 70.3172 58.7187V45.5156C70.3224 42.6307 71.2698 39.8265 73.0153 37.5296C74.7607 35.2326 77.2087 33.5687 79.9868 32.791C80.1371 32.7493 80.2757 32.6736 80.392 32.5698C80.5083 32.466 80.5991 32.3367 80.6574 32.1921C80.7158 32.0475 80.74 31.8915 80.7283 31.736C80.7166 31.5805 80.6693 31.4298 80.59 31.2956L78.1907 27.2344H88.8499L86.4505 31.2956C86.3712 31.4298 86.3238 31.5805 86.3121 31.736C86.3004 31.8915 86.3247 32.0475 86.383 32.1921C86.4413 32.3367 86.5322 32.466 86.6484 32.5698C86.7647 32.6736 86.9034 32.7493 87.0536 32.791C89.8317 33.5687 92.2798 35.2326 94.0252 37.5295C95.7707 39.8265 96.7182 42.6307 96.7234 45.5156V56.6875H98.7547V45.5156C98.7484 42.4108 97.7967 39.3815 96.0262 36.831C94.2557 34.2805 91.7505 32.3296 88.8438 31.2382L91.5041 26.7353C91.5952 26.5811 91.6439 26.4055 91.6453 26.2263C91.6466 26.0472 91.6005 25.8709 91.5118 25.7153C91.423 25.5597 91.2946 25.4304 91.1397 25.3404C90.9848 25.2505 90.8088 25.2031 90.6297 25.2031H76.4109C76.2318 25.2031 76.0558 25.2505 75.9009 25.3404C75.746 25.4304 75.6176 25.5597 75.5288 25.7153C75.44 25.8709 75.394 26.0472 75.3953 26.2263C75.3966 26.4055 75.4453 26.5811 75.5365 26.7353L78.1968 31.2382C75.2901 32.3296 72.7848 34.2805 71.0143 36.831C69.2439 39.3815 68.2922 42.4108 68.2859 45.5156V58.2981L66.3782 60.2057C66.0909 60.4927 65.8505 60.8231 65.6657 61.1847L62.238 59.6148C61.2357 59.1684 60.1024 59.1142 59.062 59.4628C58.0216 59.8115 57.1499 60.5376 56.6189 61.4979C55.4509 63.6717 56.2808 66.5463 58.4943 67.6551L70.3367 73.5762C72.1709 74.4897 74.1917 74.9664 76.2408 74.9687H90.6297V72.9375H76.2408C74.5069 72.9353 72.797 72.5319 71.2451 71.7587L59.4031 65.8379C58.2344 65.2539 57.7944 63.5968 58.4073 62.4609C58.6892 61.9505 59.1525 61.5646 59.7054 61.3795C60.2584 61.1944 60.8606 61.2238 61.393 61.4617L72.941 66.7514C73.0738 66.8122 73.218 66.8437 73.364 66.8437H84.5359V64.8125H75.3953C74.8566 64.8125 74.3399 64.5985 73.959 64.2175C73.578 63.8366 73.364 63.3199 73.364 62.7812C73.364 62.2425 73.578 61.7258 73.959 61.3449C74.3399 60.964 74.8566 60.75 75.3953 60.75H83.1813C83.3503 60.75 83.5166 60.7078 83.6651 60.6273L83.9279 60.485C85.8862 59.4164 88.0767 58.8442 90.3074 58.8186C92.5381 58.793 94.7411 59.3148 96.7234 60.3381V72.9375H92.6609V74.9687H109.927C110.196 74.9687 110.454 74.8617 110.645 74.6712C110.835 74.4808 110.942 74.2225 110.942 73.9531ZM104.848 68.875C104.848 68.4732 104.729 68.0805 104.506 67.7465C104.283 67.4124 103.966 67.1521 103.594 66.9983C103.223 66.8446 102.815 66.8044 102.421 66.8828C102.027 66.9611 101.665 67.1546 101.381 67.4387C101.097 67.7227 100.903 68.0847 100.825 68.4787C100.747 68.8727 100.787 69.2811 100.941 69.6523C101.094 70.0235 101.355 70.3407 101.689 70.5639C102.023 70.7871 102.415 70.9062 102.817 70.9062C103.356 70.9056 103.872 70.6914 104.253 70.3106C104.634 69.9298 104.848 69.4135 104.848 68.875ZM84.5359 41.4531V45.5156C85.6134 45.5156 86.6467 45.9436 87.4085 46.7055C88.1704 47.4673 88.5984 48.5007 88.5984 49.5781C88.5984 50.6555 88.1704 51.6889 87.4085 52.4507C86.6467 53.2126 85.6134 53.6406 84.5359 53.6406V55.6718H82.5047V53.6406C81.4276 53.6394 80.395 53.211 79.6334 52.4494C78.8718 51.6878 78.4434 50.6552 78.4422 49.5781H80.4734C80.474 50.1166 80.6883 50.6329 81.0691 51.0137C81.4499 51.3945 81.9661 51.6087 82.5047 51.6093V47.5468C81.4272 47.5468 80.3939 47.1188 79.632 46.357C78.8702 45.5951 78.4422 44.5618 78.4422 43.4843C78.4422 42.4069 78.8702 41.3736 79.632 40.6117C80.3939 39.8499 81.4272 39.4219 82.5047 39.4219V37.3906H84.5359V39.4219C85.613 39.4231 86.6456 39.8515 87.4072 40.6131C88.1688 41.3747 88.5972 42.4073 88.5984 43.4843H86.5672C86.5665 42.9458 86.3523 42.4295 85.9715 42.0487C85.5907 41.6679 85.0744 41.4537 84.5359 41.4531ZM82.5047 41.4531C81.9659 41.4531 81.4493 41.6671 81.0683 42.048C80.6874 42.429 80.4734 42.9456 80.4734 43.4843C80.4734 44.0231 80.6874 44.5397 81.0683 44.9207C81.4493 45.3016 81.9659 45.5156 82.5047 45.5156V41.4531ZM84.5359 47.5468V51.6093C85.0746 51.6093 85.5913 51.3953 85.9722 51.0144C86.3532 50.6335 86.5672 50.1168 86.5672 49.5781C86.5672 49.0394 86.3532 48.5227 85.9722 48.1418C85.5913 47.7609 85.0746 47.5468 84.5359 47.5468ZM87.4979 16.3438C93.4468 17.1846 98.9768 19.8874 103.295 24.0646C107.613 28.2418 110.498 33.6789 111.536 39.5967L113.537 39.247C112.655 34.2113 110.52 29.4786 107.328 25.4845C104.137 21.4904 99.9922 18.3634 95.2754 16.3915C90.5586 14.4195 85.4214 13.6658 80.337 14.2C75.2525 14.7341 70.3842 16.5389 66.1801 19.4481C65.9644 19.5975 65.8149 19.8247 65.7629 20.0819C65.711 20.3392 65.7606 20.6066 65.9015 20.828L69.2918 26.1586C69.3656 26.2747 69.4623 26.3746 69.5759 26.4522C69.6896 26.5299 69.8178 26.5836 69.9529 26.6101C70.0879 26.6367 70.2269 26.6355 70.3615 26.6067C70.4961 26.5778 70.6234 26.522 70.7357 26.4424C75.34 23.1716 81.0244 21.7935 86.6154 22.5927C98.6945 24.2994 107.134 35.5154 105.426 47.5946C105.154 49.5302 104.627 51.4213 103.859 53.2186L102.875 52.474C102.725 52.3602 102.546 52.2905 102.358 52.2727C102.17 52.255 101.981 52.2898 101.812 52.3734C101.643 52.457 101.501 52.586 101.401 52.746C101.301 52.9059 101.248 53.0906 101.247 53.2792L101.201 63.4345C101.201 63.5922 101.237 63.7479 101.307 63.8892C101.376 64.0306 101.478 64.1537 101.604 64.2489C101.73 64.344 101.876 64.4086 102.031 64.4375C102.186 64.4664 102.346 64.4587 102.497 64.4152L112.259 61.6153C112.44 61.5633 112.603 61.4618 112.73 61.3222C112.857 61.1827 112.943 61.0106 112.977 60.8251C113.012 60.6397 112.994 60.4484 112.926 60.2725C112.858 60.0966 112.742 59.9431 112.592 59.8293L110.656 58.3643C113.164 53.4345 114.291 47.9183 113.919 42.4L111.892 42.538C112.026 44.5202 111.953 46.5108 111.674 48.4778C111.199 51.8744 110.112 55.1564 108.464 58.1643C108.347 58.378 108.31 58.6266 108.361 58.8649C108.412 59.1031 108.547 59.3151 108.742 59.4622L109.746 60.2227L103.239 62.0889L103.269 55.3192L103.639 55.5985C103.758 55.6886 103.895 55.7514 104.042 55.7823C104.188 55.8132 104.339 55.8114 104.484 55.7772C104.63 55.7429 104.766 55.677 104.883 55.5842C105 55.4913 105.095 55.3738 105.161 55.24C106.31 52.9237 107.078 50.4379 107.438 47.8778C109.301 34.6904 100.088 22.4449 86.8995 20.582C81.1595 19.7608 75.316 21.0412 70.4453 24.1875L68.1484 20.576C73.8793 16.8841 80.7489 15.3815 87.4979 16.3438Z" fill="white"/>
<rect x="9.51727" y="23.1289" width="32" height="4" transform="rotate(-45 9.51727 23.1289)" fill="#EE7463"/>
<rect width="16.4459" height="4" transform="matrix(-0.707107 -0.707107 -0.707107 0.707107 15.2599 23.127)" fill="#EE7463"/>
<defs>
<filter id="filter0_ii_213_2141" x="36.5176" y="-3.5" width="94" height="96" filterUnits="userSpaceOnUse" color-interpolation-filters="sRGB">
<feFlood flood-opacity="0" result="BackgroundImageFix"/>
<feBlend mode="normal" in="SourceGraphic" in2="BackgroundImageFix" result="shape"/>
<feColorMatrix in="SourceAlpha" type="matrix" values="0 0 0 0 0 0 0 0 0 0 0 0 0 0 0 0 0 0 127 0" result="hardAlpha"/>
<feOffset dx="3" dy="4"/>
<feGaussianBlur stdDeviation="10"/>
<feComposite in2="hardAlpha" operator="arithmetic" k2="-1" k3="1"/>
<feColorMatrix type="matrix" values="0 0 0 0 1 0 0 0 0 1 0 0 0 0 1 0 0 0 0.25 0"/>
<feBlend mode="normal" in2="shape" result="effect1_innerShadow_213_2141"/>
<feColorMatrix in="SourceAlpha" type="matrix" values="0 0 0 0 0 0 0 0 0 0 0 0 0 0 0 0 0 0 127 0" result="hardAlpha"/>
<feOffset dx="-3" dy="-4"/>
<feGaussianBlur stdDeviation="10"/>
<feComposite in2="hardAlpha" operator="arithmetic" k2="-1" k3="1"/>
<feColorMatrix type="matrix" values="0 0 0 0 0 0 0 0 0 0 0 0 0 0 0 0 0 0 0.15 0"/>
<feBlend mode="normal" in2="effect1_innerShadow_213_2141" result="effect2_innerShadow_213_2141"/>
</filter>
</defs>
</svg>
