<svg width="160" height="161" viewBox="0 0 160 161" fill="none" xmlns="http://www.w3.org/2000/svg">
<g opacity="0.08" clip-path="url(#clip0_57_2040)">
<path d="M104.673 43.5234H28.0516C26.7516 43.5234 25.6979 44.5772 25.6979 45.8772C25.6979 47.1772 26.7516 48.2309 28.0516 48.2309H104.673C105.973 48.2309 107.027 47.1772 107.027 45.8772C107.027 44.5772 105.973 43.5234 104.673 43.5234Z" fill="#EE7463"/>
<path d="M28.0516 31.9028H66.3622C67.6622 31.9028 68.716 30.8491 68.716 29.5491C68.716 28.2491 67.6622 27.1953 66.3622 27.1953H28.0516C26.7516 27.1953 25.6979 28.2491 25.6979 29.5491C25.6979 30.8494 26.7516 31.9028 28.0516 31.9028Z" fill="#EE7463"/>
<path d="M104.673 57.9883H28.0516C26.7516 57.9883 25.6979 59.042 25.6979 60.342C25.6979 61.642 26.7516 62.6958 28.0516 62.6958H104.673C105.973 62.6958 107.027 61.642 107.027 60.342C107.027 59.042 105.973 57.9883 104.673 57.9883Z" fill="#EE7463"/>
<path d="M45.5056 144.105H20.9847C16.96 144.105 13.6853 140.831 13.6853 136.806V12.4655C13.6853 8.44086 16.96 5.16617 20.9847 5.16617H91.6272C91.8553 5.16617 92.08 5.18711 92.3022 5.21711V19.8965C92.3022 26.5171 97.6885 31.903 104.309 31.903H118.988C119.018 32.1255 119.039 32.3502 119.039 32.5784V72.6599C119.039 73.9599 120.093 75.0137 121.393 75.0137C122.693 75.0137 123.746 73.9599 123.746 72.6599V32.5787C123.746 29.9968 122.741 27.5693 120.915 25.7434L98.4619 3.29023C96.6363 1.46461 94.2091 0.458984 91.6272 0.458984H20.9847C14.3641 0.458984 8.97815 5.84523 8.97815 12.4655V136.806C8.97815 143.426 14.3644 148.812 20.9847 148.812H45.5056C46.8056 148.812 47.8594 147.759 47.8594 146.459C47.8594 145.159 46.8056 144.105 45.5056 144.105ZM115.71 27.1959H104.309C100.284 27.1959 97.0097 23.9212 97.0097 19.8965V8.49523L115.71 27.1959Z" fill="#EE7463"/>
<path d="M150.299 115.686L130.356 82.0237C128.903 79.5693 125.74 78.7581 123.284 80.2127L118.433 83.0868C114.668 85.3174 113.076 89.8315 114.369 93.8318C112.735 94.424 110.943 94.4146 109.293 93.7768C105.463 92.5718 102.551 90.1477 97.7419 91.364C89.5762 93.4431 89.8244 93.339 89.0856 93.5921C84.3044 90.8699 81.4303 90.0599 76.3547 92.0234L71.8303 93.7724C69.7356 94.5818 67.4275 94.3899 65.4919 93.2431L64.2572 92.5152C64.8597 88.9052 63.2587 85.0956 59.8687 83.0874C59.8687 83.0874 59.8687 83.0874 59.8684 83.0871L55.0178 80.2134C52.569 78.7631 49.3965 79.5749 47.9459 82.0237L28.0022 115.686C26.5487 118.14 27.3575 121.304 29.8125 122.758L34.6631 125.632C36.1309 126.502 37.744 126.915 39.3378 126.915C41.115 126.915 42.8672 126.4 44.3653 125.43L45.3762 126.027L43.2418 129C40.6984 132.543 41.5065 137.47 45.0503 140.013C46.689 141.19 48.7478 141.727 50.8769 141.392C51.2147 143.367 52.2965 145.215 54.0484 146.473C55.6937 147.655 57.7431 148.192 59.8759 147.856C60.2147 149.83 61.2959 151.676 63.0468 152.933C65.4 154.622 68.3256 154.818 70.7634 153.776C71.2968 155.162 72.224 156.413 73.5175 157.342C76.895 159.766 81.5475 159.134 84.1719 155.993L89.8437 159.353C93.5947 161.576 98.4343 160.341 100.658 156.586C101.227 155.626 101.58 154.579 101.709 153.504L101.722 153.512C105.467 155.73 110.318 154.488 112.537 150.744C113.179 149.659 113.531 148.482 113.617 147.303C116.918 148.133 120.516 146.747 122.338 143.672C122.936 142.663 123.282 141.573 123.396 140.477C126.934 141.865 131.07 140.523 133.068 137.151C134.142 135.337 134.447 133.213 133.924 131.17C133.625 130.001 133.075 128.941 132.32 128.045L135.446 126.218C138.091 127.304 141.109 127.13 143.638 125.632L148.488 122.758C150.943 121.305 151.754 118.141 150.299 115.686ZM37.0625 121.582L32.2119 118.708C31.9962 118.581 31.9247 118.301 32.0522 118.086L51.9959 84.4221C52.1243 84.2055 52.4047 84.1352 52.619 84.2627L57.4693 87.1362C59.6247 88.4134 60.299 91.1777 59.0453 93.2937L43.22 120.006C41.9569 122.139 39.195 122.845 37.0625 121.582ZM47.7953 136.189C46.3659 135.163 46.039 133.175 47.0659 131.745L50.2031 127.375C51.2025 125.983 53.194 125.602 54.6475 126.645C56.074 127.669 56.4012 129.663 55.3775 131.089L52.24 135.459C51.2159 136.886 49.2212 137.213 47.7953 136.189ZM56.7937 142.65C55.3672 141.625 55.04 139.631 56.064 138.205L59.2012 133.835C59.2012 133.835 59.2012 133.835 59.2012 133.835C59.2012 133.835 59.2012 133.835 59.2015 133.835L62.6637 129.012C63.16 128.321 63.8953 127.864 64.7347 127.727C64.909 127.698 65.0837 127.684 65.2572 127.684C65.9178 127.684 66.5606 127.89 67.1081 128.282C67.7987 128.779 68.2556 129.514 68.3931 130.353C68.5309 131.193 68.3337 132.036 67.8375 132.726L61.2378 141.92C60.2122 143.349 58.2237 143.676 56.7937 142.65ZM65.7922 149.109C64.3662 148.086 64.0387 146.093 65.0609 144.667C65.0612 144.666 65.0619 144.666 65.0622 144.665L71.6618 135.472C72.6853 134.046 74.6803 133.718 76.1062 134.742C77.5328 135.766 77.86 137.76 76.8359 139.186L73.9037 143.271C73.9037 143.271 73.9037 143.271 73.9034 143.271L70.2362 148.38C69.2122 149.806 67.219 150.134 65.7922 149.109ZM76.2628 153.518C74.8372 152.494 74.5094 150.503 75.5309 149.076L77.7275 146.017C78.7512 144.59 80.7459 144.264 82.1719 145.287C83.5981 146.311 83.9256 148.305 82.9015 149.731L80.7068 152.788C79.6831 154.215 77.6887 154.542 76.2628 153.518ZM129.019 134.752C128.123 136.263 126.166 136.765 124.654 135.869C122.094 134.353 105.58 124.569 103.819 123.526C102.701 122.864 101.257 123.233 100.595 124.351C99.9322 125.47 100.301 126.913 101.42 127.576L117.171 136.907L117.171 136.908C118.683 137.803 119.187 139.755 118.288 141.273C117.392 142.785 115.434 143.286 113.923 142.391C108.097 138.94 103.367 136.137 98.1634 133.054C97.0443 132.392 95.6012 132.761 94.9387 133.879C94.2762 134.998 94.6453 136.441 95.7637 137.104L107.369 143.98L107.372 143.981C108.885 144.88 109.384 146.83 108.487 148.345C107.591 149.857 105.633 150.358 104.121 149.463L97.8928 145.773C97.8922 145.773 97.8912 145.772 97.8906 145.772C97.89 145.771 97.8894 145.771 97.8887 145.771L93.3434 143.078C92.2247 142.415 90.7812 142.784 90.1187 143.903C89.4562 145.021 89.8253 146.465 90.9437 147.127L95.49 149.821C95.4906 149.821 95.4912 149.822 95.4919 149.822C97.004 150.718 97.5084 152.669 96.6094 154.187C95.7134 155.699 93.7556 156.2 92.2434 155.305L86.94 152.163C89.2134 148.655 88.3487 143.927 84.9172 141.464C83.9093 140.741 82.7872 140.291 81.6394 140.097C82.8569 136.842 81.8072 133.041 78.8512 130.92C77.1012 129.663 75.0059 129.229 73.0284 129.539C72.6765 127.481 71.5512 125.678 69.8534 124.46C66.6603 122.168 62.3209 122.609 59.6406 125.32C59.0959 124.364 58.344 123.506 57.3928 122.823C54.7393 120.918 51.2943 120.901 48.6675 122.505L47.589 121.868L62.3922 96.8809L63.0969 97.2965C66.2094 99.1402 70.0075 99.5246 73.5275 98.1634L78.0519 96.4143C80.6409 95.4137 82.0687 95.3484 84.6297 96.5568C82.954 98.4393 81.9594 100.911 81.9594 103.575V114.011C81.9594 116.782 84.2128 119.039 86.9825 119.041H86.9893C89.7675 119.041 92.38 117.959 94.3453 115.995C95.4909 114.85 96.3365 113.485 96.8434 111.995C99.8825 113.795 124.991 128.663 127.902 130.388C128.634 130.822 129.153 131.515 129.364 132.339C129.575 133.162 129.452 134.02 129.019 134.752ZM146.09 118.708L141.239 121.582C139.107 122.845 136.345 122.138 135.082 120.006L127.665 107.486C127.002 106.368 125.557 105.999 124.44 106.661C123.322 107.323 122.952 108.767 123.614 109.885L131.032 122.406C131.172 122.641 131.323 122.866 131.48 123.084L129.418 124.289C129.001 124.536 128.6 124.807 128.217 125.103L96.2406 106.167C94.674 105.24 92.6878 106.37 92.6878 108.192C92.6631 108.332 92.9309 110.752 91.0175 112.665C89.9412 113.74 88.5106 114.332 86.989 114.332C86.9878 114.332 86.9865 114.332 86.9853 114.332C86.8094 114.332 86.6662 114.187 86.6662 114.009V103.573C86.6662 100.847 88.5418 98.5471 91.0784 97.9049L98.8959 95.9265C101.732 95.2096 103.336 96.7243 107.583 98.1618C110.532 99.3024 113.737 99.2321 116.583 98.0168L118.004 100.415C118.667 101.534 120.11 101.903 121.228 101.241C122.347 100.578 122.716 99.1343 122.054 98.0159L119.256 93.2931C117.99 91.1562 118.695 88.4024 120.832 87.1359L125.682 84.2624C125.894 84.1365 126.175 84.2009 126.306 84.4221L146.249 118.085C146.378 118.302 146.307 118.58 146.09 118.708Z" fill="#EE7463"/>
</g>
<defs>
<clipPath id="clip0_57_2040">
<rect width="160" height="160" fill="white" transform="translate(0 0.458984)"/>
</clipPath>
</defs>
</svg>
