<svg width="160" height="161" viewBox="0 0 160 161" fill="none" xmlns="http://www.w3.org/2000/svg">
<g opacity="0.08" clip-path="url(#clip0_57_2048)">
<path d="M155.938 51.2421L128.432 39.7831C127.239 39.2844 125.866 39.8503 125.368 41.0453C124.87 42.24 125.435 43.6121 126.63 44.11L154.135 55.5689C155.228 56.0239 155.313 57.0352 155.313 57.3346C155.313 57.6336 155.228 58.6449 154.135 59.0999L131.238 68.6389V65.8733C131.238 65.1658 131.046 64.5386 130.731 63.9851C126.317 56.2139 88.9067 55.528 80.0002 55.528C70.9105 55.528 34.9426 56.2552 29.5664 63.5286C29.0801 64.1867 28.762 64.9636 28.762 65.8729V68.6386L18.7068 64.4495V50.218L70.3958 28.6841C76.4996 26.1413 83.5005 26.1416 89.6042 28.6841L116.525 39.8997C117.719 40.3981 119.092 39.8325 119.59 38.6375C120.088 37.4428 119.523 36.0706 118.328 35.5728L91.407 24.3573C84.157 21.3366 75.8424 21.3366 68.593 24.3573L18.6496 45.1643C18.4165 44.1156 17.4821 43.3312 16.3633 43.3312C15.0687 43.3312 14.0196 44.3803 14.0196 45.6749V47.0934L4.06248 51.2418C1.55624 52.2855 0 54.6202 0 57.3346C0 60.0486 1.55624 62.383 4.06216 63.4267L14.0193 67.5748V107.838C10.5912 108.851 8.08183 112.027 8.08183 115.779C8.08183 117.339 8.51558 118.798 9.26838 120.045L6.36871 132.586C5.63153 135.776 8.05183 138.826 11.3306 138.826H21.3961C24.6749 138.826 27.0948 135.776 26.3577 132.586L23.4583 120.045C24.2108 118.798 24.6445 117.338 24.6445 115.779C24.6445 112.026 22.1352 108.851 18.7071 107.838V69.5276L28.7623 73.7166V110.827C28.7623 114.061 32.7817 115.616 34.1026 116.127C44.8376 120.28 68.249 121.172 80.0002 121.172C91.6532 121.172 115.136 120.291 125.898 116.127C127.219 115.616 131.238 114.061 131.238 110.827C131.238 107.778 131.238 74.9973 131.238 73.7166L155.938 63.4267C158.444 62.383 160 60.0483 160 57.3346C160 54.6202 158.443 52.2855 155.938 51.2421ZM5.86465 59.0999C4.77216 58.6449 4.68747 57.6336 4.68747 57.3346C4.68747 57.0352 4.77216 56.0239 5.86465 55.5689L14.0196 52.1715V62.4973L5.86465 59.0999ZM21.7905 133.642C21.8496 133.898 21.6574 134.138 21.3958 134.138H11.3302C11.0684 134.138 10.8762 133.897 10.9356 133.642L13.2871 123.47C15.1968 124.233 17.4283 124.274 19.4383 123.47L21.7905 133.642ZM19.9568 115.779C19.9568 117.74 18.3565 119.373 16.363 119.373C14.3693 119.373 12.7693 117.736 12.7693 115.779C12.7693 113.797 14.3815 112.185 16.363 112.185C18.3446 112.185 19.9568 113.797 19.9568 115.779ZM112.31 114.464C103.441 115.767 91.966 116.485 79.9998 116.485C68.0337 116.485 56.559 115.767 47.69 114.464C38.3698 113.095 35.0082 111.555 33.8761 110.827C36.2873 109.276 41.8054 108.176 44.6285 107.681C55.3812 105.796 69.1262 105.169 79.9995 105.169C103.358 105.169 121.516 107.863 126.124 110.827C124.991 111.555 121.63 113.095 112.31 114.464ZM126.551 94.9353C117.28 90.9925 95.8713 89.8797 85.5114 89.6909C85.4967 89.6906 85.4823 89.6906 85.4676 89.6906C84.1933 89.6906 83.1486 90.7122 83.1251 91.9915C83.1017 93.2859 84.1317 94.354 85.4258 94.3778C96.236 94.5746 106.433 95.3753 114.14 96.6321C123.682 98.1884 126.073 99.8687 126.551 100.302V105.787C115.927 101.361 91.5963 100.482 79.9998 100.482C68.3418 100.482 44.0985 101.365 33.4495 105.787V100.302C33.927 99.8687 36.3182 98.1884 45.86 96.6321C53.5663 95.3756 63.7637 94.5746 74.5739 94.3778C75.8683 94.354 76.8983 93.2859 76.8745 91.9915C76.8511 90.7119 75.8064 89.6906 74.5321 89.6906C74.5174 89.6906 74.503 89.6906 74.4883 89.6909C64.2009 89.8784 42.7366 90.985 33.4495 94.9353C33.4495 92.0503 33.4495 69.0882 33.4495 66.1901C33.9567 65.7292 36.6217 63.8623 47.69 62.2364C56.559 60.9336 68.0337 60.2161 79.9998 60.2161C91.966 60.2161 103.441 60.9336 112.31 62.2364C123.378 63.8623 126.043 65.7295 126.551 66.1901V94.9353Z" fill="#EE7463"/>
</g>
<defs>
<clipPath id="clip0_57_2048">
<rect width="160" height="160" fill="white" transform="translate(0 0.458984)"/>
</clipPath>
</defs>
</svg>
