<svg width="160" height="161" viewBox="0 0 160 161" fill="none" xmlns="http://www.w3.org/2000/svg">
<g opacity="0.08" clip-path="url(#clip0_57_1961)">
<path d="M109.096 100.799C108.597 99.414 107.07 98.696 105.685 99.1951C104.3 99.6942 103.582 101.222 104.081 102.606C104.093 102.64 104.106 102.674 104.12 102.708C106.551 109.052 106.727 113.903 104.6 116.036C102.02 118.611 95.5928 117.806 87.4039 113.887C76.4409 108.195 66.4758 100.758 57.8981 91.8693C37.0182 70.9868 28.4029 50.4961 33.7315 45.1675C35.4319 43.8247 37.642 43.3089 39.7612 43.7601C41.2293 43.868 42.5071 42.7651 42.6151 41.297C42.7194 39.8779 41.6908 38.6271 40.2783 38.4555C36.5721 37.7997 32.7696 38.8803 29.9623 41.3876C20.1955 51.1518 35.1256 76.6219 54.1289 95.6278C63.1324 104.945 73.5943 112.732 85.1035 118.683C87.1877 119.681 89.3355 120.54 91.533 121.255L72.5937 128.436C47.3036 118.821 29.0977 96.4009 24.879 69.6753C24.6507 68.2209 23.2866 67.2266 21.8322 67.4548C20.3777 67.6831 19.3834 69.0472 19.6117 70.5016C20.0302 73.1673 20.59 75.8329 21.275 78.4399C27.4133 101.697 43.5807 121.018 65.3912 131.161L34.2193 142.956C34.0764 142.717 33.8965 142.504 33.6862 142.322C25.764 135.961 20.7932 126.633 19.9316 116.51L18.6947 101.532C18.5974 100.081 17.3419 98.9835 15.8905 99.0808C15.8628 99.0828 15.8352 99.0848 15.8078 99.0878C14.3404 99.2044 13.2452 100.489 13.3618 101.956C13.3621 101.962 13.3628 101.969 13.3635 101.975L14.6216 116.948C15.5586 127.768 20.606 137.817 28.7255 145.03L6.4888 153.448L10.4872 137.038C10.8361 135.607 9.95912 134.164 8.52801 133.816C7.0969 133.467 5.65413 134.344 5.30527 135.775L0.104625 157.1C-0.245905 158.53 0.629087 159.973 2.0592 160.323C2.58366 160.452 3.13444 160.418 3.63925 160.227L102.267 122.908C102.424 122.831 102.573 122.738 102.71 122.631C104.844 122.303 106.823 121.316 108.369 119.808C111.01 117.166 113.284 111.72 109.096 100.799Z" fill="#EE7463"/>
<path d="M134.252 93.9237C119.842 88.5291 104.267 87.0167 89.0883 89.5387L79.5641 91.1381C78.1183 91.416 77.1716 92.8131 77.4495 94.2589C77.7181 95.6556 79.0359 96.5956 80.4437 96.3947L89.9653 94.8086C104.22 92.4386 118.848 93.86 132.381 98.9297C132.681 99.036 132.998 99.0893 133.316 99.087C134.789 99.0893 135.984 97.8981 135.986 96.4257C135.988 95.3111 135.297 94.3132 134.252 93.9237Z" fill="#EE7463"/>
<path d="M143.728 52.6259C143.095 51.2965 141.504 50.732 140.175 51.3651L84.1968 78.0214C82.8677 78.6541 82.3029 80.2445 82.9356 81.574C82.9356 81.5743 82.936 81.5747 82.936 81.5747C83.5687 82.9038 85.1591 83.4686 86.4886 82.8358C86.4889 82.8358 86.4889 82.8355 86.4893 82.8355L142.467 56.1792C143.797 55.5461 144.361 53.9554 143.728 52.6259Z" fill="#EE7463"/>
<path d="M64.7671 18.5505C64.4739 17.1077 63.0668 16.1757 61.624 16.469C60.1812 16.7622 59.2493 18.1693 59.5425 19.6121C59.5488 19.6441 59.5562 19.6757 59.5638 19.7074C62.9378 34.7812 61.5474 50.531 55.584 64.7805L51.7082 74.0809C51.1481 75.436 51.7875 76.9891 53.1397 77.5568C53.4635 77.6931 53.8117 77.7628 54.1633 77.7621C55.2392 77.7621 56.2095 77.1157 56.6236 76.1227L60.5021 66.833C66.8913 51.5693 68.3817 34.6979 64.7671 18.5505Z" fill="#EE7463"/>
<path d="M146.645 96.4219C142.228 96.4219 138.648 100.002 138.648 104.419C138.648 108.835 142.228 112.416 146.645 112.416C151.061 112.416 154.641 108.835 154.641 104.419C154.641 100.002 151.061 96.4219 146.645 96.4219ZM146.645 107.084C145.173 107.084 143.979 105.891 143.979 104.419C143.979 102.947 145.173 101.753 146.645 101.753C148.117 101.753 149.31 102.947 149.31 104.419C149.31 105.891 148.117 107.084 146.645 107.084Z" fill="#EE7463"/>
<path d="M82.6695 21.7842C78.2529 21.7842 74.6726 25.3645 74.6726 29.7811C74.6726 34.1977 78.2529 37.7779 82.6695 37.7779C87.0861 37.7779 90.6664 34.1977 90.6664 29.7811C90.6664 25.3645 87.0861 21.7842 82.6695 21.7842ZM82.6695 32.4467C81.1974 32.4467 80.0039 31.2532 80.0039 29.7811C80.0039 28.309 81.1974 27.1154 82.6695 27.1154C84.1416 27.1154 85.3351 28.309 85.3351 29.7811C85.3351 31.2532 84.1416 32.4467 82.6695 32.4467Z" fill="#EE7463"/>
<path d="M58.6788 11.1215C61.6232 11.1215 64.01 8.73461 64.01 5.79024C64.01 2.84587 61.6232 0.458984 58.6788 0.458984C55.7344 0.458984 53.3475 2.84587 53.3475 5.79024C53.3475 8.73461 55.7344 11.1215 58.6788 11.1215Z" fill="#EE7463"/>
<path d="M133.316 13.7871C131.844 13.7871 130.651 14.9806 130.651 16.4527V19.1184C130.651 20.5905 131.844 21.784 133.316 21.784C134.788 21.784 135.982 20.5905 135.982 19.1184V16.4527C135.982 14.9806 134.788 13.7871 133.316 13.7871Z" fill="#EE7463"/>
<path d="M133.316 0.458984C131.844 0.458984 130.651 1.65252 130.651 3.12461V5.79024C130.651 7.26233 131.844 8.45587 133.316 8.45587C134.788 8.45587 135.982 7.26233 135.982 5.79024V3.12461C135.982 1.65252 134.788 0.458984 133.316 0.458984Z" fill="#EE7463"/>
<path d="M141.313 8.45605H138.648C137.176 8.45605 135.982 9.64959 135.982 11.1217C135.982 12.5938 137.176 13.7873 138.648 13.7873H141.313C142.785 13.7873 143.979 12.5938 143.979 11.1217C143.979 9.64959 142.785 8.45605 141.313 8.45605Z" fill="#EE7463"/>
<path d="M127.985 8.45605H125.32C123.847 8.45605 122.654 9.64959 122.654 11.1217C122.654 12.5938 123.847 13.7873 125.32 13.7873H127.985C129.457 13.7873 130.651 12.5938 130.651 11.1217C130.651 9.64959 129.457 8.45605 127.985 8.45605Z" fill="#EE7463"/>
<path d="M114.657 29.7246H101.273C99.8008 29.7246 98.6073 30.9181 98.6073 32.3902V45.7744C98.6073 47.2464 99.8008 48.44 101.273 48.44H114.657C116.129 48.44 117.323 47.2464 117.323 45.7744V32.3902C117.323 30.9181 116.129 29.7246 114.657 29.7246ZM111.991 43.1087H103.939V35.0559H111.991V43.1087Z" fill="#EE7463"/>
<path d="M95.2382 51.9839C94.2596 50.9393 92.6309 50.854 91.5487 51.7906L64.8924 75.7813C63.7988 76.7662 63.7105 78.4512 64.6951 79.5451C65.6801 80.6387 67.3651 80.727 68.459 79.7424L95.1153 55.7517C96.1898 54.7451 96.2448 53.0585 95.2382 51.9839Z" fill="#EE7463"/>
<path d="M143.979 61.7686C142.507 61.7686 141.313 62.9621 141.313 64.4342V67.0998C141.313 68.5719 142.507 69.7654 143.979 69.7654C145.451 69.7654 146.644 68.5719 146.644 67.0998V64.4342C146.644 62.9621 145.451 61.7686 143.979 61.7686Z" fill="#EE7463"/>
<path d="M155.289 61.3098L153.405 59.4252C152.346 58.4023 150.658 58.4316 149.635 59.4905C148.638 60.5234 148.638 62.1611 149.635 63.1944L151.52 65.079C152.579 66.1019 154.266 66.0726 155.289 65.0137C156.287 63.9804 156.287 62.3427 155.289 61.3098Z" fill="#EE7463"/>
<path d="M157.307 51.1055H154.641C153.169 51.1055 151.976 52.299 151.976 53.7711C151.976 55.2432 153.169 56.4367 154.641 56.4367H157.307C158.779 56.4367 159.973 55.2432 159.973 53.7711C159.973 52.299 158.779 51.1055 157.307 51.1055Z" fill="#EE7463"/>
<path d="M155.224 42.464C154.191 41.4664 152.553 41.4664 151.52 42.464L149.635 44.3486C148.594 45.3899 148.595 47.0776 149.636 48.1185C150.136 48.618 150.814 48.8989 151.52 48.8989C152.227 48.8989 152.905 48.6176 153.405 48.1178L155.289 46.2332C156.312 45.1743 156.283 43.4866 155.224 42.464Z" fill="#EE7463"/>
<path d="M143.979 37.7773C142.507 37.7773 141.313 38.9709 141.313 40.443V43.1086C141.313 44.5807 142.507 45.7742 143.979 45.7742C145.451 45.7742 146.644 44.5807 146.644 43.1086V40.443C146.644 38.9709 145.451 37.7773 143.979 37.7773Z" fill="#EE7463"/>
<path d="M138.322 44.3487L136.438 42.4641C135.379 41.4415 133.692 41.4705 132.669 42.5294C131.671 43.5624 131.671 45.2001 132.669 46.2333L134.553 48.1179C135.612 49.1409 137.299 49.1115 138.322 48.0526C139.32 47.0194 139.32 45.3817 138.322 44.3487Z" fill="#EE7463"/>
<path d="M31.8919 11.9851C31.578 11.0208 30.744 10.3184 29.7407 10.1724L21.9171 9.03421L18.4278 1.9463C17.6501 0.625819 15.9491 0.185657 14.6286 0.963354C14.2228 1.20226 13.8846 1.54046 13.6457 1.9463L10.1404 9.03421L2.31674 10.1724C0.859643 10.3827 -0.150963 11.7345 0.0592886 13.1916C0.142923 13.7717 0.415483 14.3078 0.834653 14.7173L6.49378 20.2352L5.16097 28.0268C4.90507 29.4766 5.87269 30.8594 7.32246 31.1153C7.90623 31.2182 8.50733 31.1239 9.03146 30.847L16.0287 27.1578L23.026 30.8364C24.3292 31.5215 25.9409 31.0206 26.6259 29.7175C26.8988 29.1987 26.9928 28.6046 26.8938 28.0268L25.561 20.2352L31.2228 14.7173C31.9475 14.0079 32.2068 12.949 31.8919 11.9851ZM20.8269 17.3963C20.1991 18.0077 19.9122 18.8887 20.0592 19.7527L20.7202 23.6045L17.2683 21.7839C16.4922 21.3764 15.5652 21.3764 14.7892 21.7839L11.3239 23.6019L11.985 19.75C12.1346 18.8894 11.8527 18.0097 11.2306 17.3963L8.42903 14.6693L12.2969 14.1069C13.1652 13.981 13.9159 13.4355 14.3041 12.6488L16.0287 9.14883L17.7561 12.6488C18.1439 13.4348 18.8933 13.98 19.7606 14.1069L23.6258 14.6693L20.8269 17.3963Z" fill="#EE7463"/>
<path d="M150.968 134.073H150.957L149.859 132.426C143.701 123.217 134.018 116.955 123.094 115.118C121.636 114.91 120.286 115.923 120.078 117.38C119.877 118.788 120.817 120.106 122.214 120.374C130.094 121.712 137.274 125.715 142.555 131.714C138.115 132.513 134.232 135.179 131.893 139.037C129.022 144.178 130.863 150.673 136.005 153.544C141.146 156.415 147.641 154.574 150.512 149.433C151.609 147.316 152.201 144.974 152.242 142.59C155.079 146.709 155.305 152.089 152.826 156.432C152.075 157.699 152.493 159.334 153.759 160.085C155.025 160.836 156.66 160.419 157.411 159.152C157.435 159.112 157.458 159.071 157.48 159.029C162.361 150.311 159.486 139.295 150.968 134.073ZM145.863 146.831C144.441 149.409 141.198 150.345 138.62 148.922C136.042 147.5 135.106 144.257 136.528 141.679C136.536 141.665 136.544 141.65 136.552 141.636C138.125 139.06 140.779 137.333 143.771 136.939C144.234 136.926 144.693 137.033 145.104 137.248C147.354 138.503 147.473 143.947 145.863 146.831Z" fill="#EE7463"/>
</g>
<defs>
<clipPath id="clip0_57_1961">
<rect width="160" height="160" fill="white" transform="translate(0 0.458984)"/>
</clipPath>
</defs>
</svg>
