<svg width="65" height="66" viewBox="0 0 65 66" fill="none" xmlns="http://www.w3.org/2000/svg">
<g clip-path="url(#clip0_57_2357)">
<path d="M41.1351 31.3236C41.0353 30.9481 40.7419 30.6547 40.3664 30.5549C39.9908 30.4551 39.5906 30.5642 39.3175 30.8407L37.9167 32.2413L36.5159 30.8407C36.0918 30.4241 35.4113 30.4273 34.991 30.8475C34.5706 31.2679 34.5676 31.9483 34.9841 32.3725L36.3848 33.7733L34.984 35.174C34.7075 35.4471 34.5984 35.8474 34.6982 36.2229C34.798 36.5984 35.0914 36.8918 35.4669 36.9916C35.8424 37.0914 36.2427 36.9824 36.5158 36.7059L37.9166 35.3052L39.3174 36.706C39.7411 37.1244 40.4232 37.1223 40.8445 36.7012C41.2656 36.2801 41.2677 35.5978 40.8493 35.174L39.4486 33.7733L40.8494 32.3725C41.1258 32.0995 41.2348 31.6992 41.1351 31.3236Z" fill="#EE7463"/>
<path d="M18.4168 24.0233C18.4168 24.3106 18.5309 24.5861 18.7342 24.7892C18.9373 24.9924 19.2128 25.1066 19.5001 25.1066C19.7874 25.1066 20.0629 24.9924 20.266 24.7892L21.6667 23.3885L23.0675 24.7893C23.4912 25.2078 24.1733 25.2056 24.5946 24.7845C25.0158 24.3634 25.0178 23.6813 24.5994 23.2574L23.1987 21.8566L24.5995 20.4558C25.0179 20.032 25.0158 19.3499 24.5947 18.9287C24.1736 18.5076 23.4915 18.5054 23.0676 18.9239L21.6668 20.3245L20.266 18.9237C19.8422 18.5053 19.1601 18.5075 18.7389 18.9286C18.3178 19.3497 18.3156 20.0318 18.7341 20.4557L20.1347 21.8565L18.7339 23.2573C18.5309 23.4605 18.4168 23.736 18.4168 24.0233Z" fill="#EE7463"/>
<path d="M36.8598 23.1157C37.0095 23.5541 37.4215 23.8489 37.8849 23.8488C38.0043 23.8486 38.1227 23.8289 38.2357 23.7907C38.8018 23.5971 39.1037 22.9813 38.9102 22.4154L37.8586 19.34C37.8509 19.3171 37.8322 19.3006 37.8228 19.2785C37.7929 19.2118 37.7559 19.1483 37.7129 19.089C37.595 18.9488 37.4598 18.8242 37.3106 18.7179C37.2879 18.7069 37.262 18.7083 37.2387 18.6987C37.2159 18.6893 37.2 18.6708 37.1761 18.6629C37.1318 18.6543 37.0869 18.6487 37.0418 18.6462C36.9711 18.6298 36.8989 18.6207 36.8263 18.6191C36.7525 18.621 36.6793 18.6308 36.6077 18.6483C36.5658 18.6515 36.524 18.6571 36.4827 18.665L33.4078 19.7165C32.8416 19.9102 32.5397 20.5262 32.7333 21.0924C32.9269 21.6586 33.543 21.9605 34.1092 21.7669L34.6314 21.5883C32.7977 24.3859 30.0092 26.4212 26.7856 27.3147C18.5127 29.6792 18.4168 39.0947 18.4168 39.19C18.4167 39.4772 18.5308 39.7529 18.7341 39.9561C18.9372 40.1592 19.2128 40.2734 19.5002 40.2734C19.7875 40.2735 20.0631 40.1594 20.2664 39.9561C20.4695 39.753 20.5836 39.4774 20.5836 39.19C20.5836 39.1116 20.6613 31.3179 27.3814 29.3988C31.2278 28.3385 34.5343 25.8695 36.6436 22.4828L36.8598 23.1157Z" fill="#EE7463"/>
<path d="M49.3458 10.1303C48.8509 9.80037 48.1826 9.93113 47.8485 10.4232L44.2484 15.824L43.0158 14.5915C42.5916 14.175 41.9112 14.1782 41.4908 14.5984C41.0705 15.0186 41.0675 15.6992 41.484 16.1233L43.6507 18.29C43.8538 18.4933 44.1293 18.6074 44.4166 18.6074C44.452 18.6074 44.4874 18.6053 44.5235 18.6021C44.8464 18.5701 45.1379 18.3949 45.3179 18.125L49.6512 11.6251C49.977 11.1274 49.8406 10.4601 49.3458 10.1303Z" fill="#EE7463"/>
<path d="M57.4165 11.8384V6.69038H58.4998C60.2946 6.69038 61.7498 5.23525 61.7498 3.44041C61.7498 1.64556 60.2946 0.19043 58.4998 0.19043H6.50018C4.70533 0.19043 3.2502 1.64543 3.2502 3.44041C3.2502 5.23538 4.70533 6.69038 6.50018 6.69038H7.58346V11.8384C1.46716 19.1368 -1.13701 28.7521 0.460176 38.1395C2.05736 47.527 7.69493 55.74 15.8807 60.6049C15.8976 60.6179 15.9063 60.6371 15.9242 60.6492C15.9855 60.6866 16.0504 60.7174 16.118 60.7415C17.3786 61.4823 18.6877 62.137 20.0367 62.701C20.09 62.7274 20.1455 62.7493 20.2025 62.7664C28.0824 65.9977 36.9175 65.9977 44.7973 62.7664C44.8543 62.7493 44.9098 62.7274 44.9631 62.701C46.3121 62.137 47.6214 61.4823 48.882 60.7415C48.9496 60.7174 49.0144 60.6864 49.0758 60.6492C49.0937 60.6371 49.1023 60.6179 49.1193 60.6049C57.305 55.74 62.9426 47.5268 64.5398 38.1395C66.137 28.7521 63.5328 19.1368 57.4165 11.8384ZM6.50018 4.52369C5.90211 4.52305 5.4174 4.03835 5.4169 3.44041C5.41753 2.84233 5.90211 2.35763 6.50018 2.35712H58.4998C59.0981 2.35712 59.5831 2.84208 59.5831 3.44041C59.5831 4.03873 59.0981 4.52369 58.4998 4.52369H6.50018ZM10.8334 43.5234C10.2354 43.5228 9.75066 43.0381 9.75016 42.4401V6.69038H55.2498V42.4401C55.2492 43.0382 54.7646 43.5229 54.1665 43.5234H10.8334ZM40.0832 45.6901V47.8568C40.0826 48.4548 39.598 48.9396 38.9999 48.9401H26C25.402 48.9394 24.9173 48.4548 24.9168 47.8568V45.6901H40.0832ZM2.16692 32.6902C2.17149 26.5165 4.0613 20.4915 7.58359 15.4213V42.4401C7.58549 44.2342 9.03948 45.6882 10.8336 45.6901H22.7502V47.8568C22.7504 48.0807 22.7738 48.304 22.82 48.5231L16.2271 58.269C7.47593 52.7067 2.17289 43.0594 2.16692 32.6902ZM20.093 60.3592C19.414 60.0535 18.7445 59.7305 18.0929 59.3774L24.1069 50.4874C24.6566 50.8885 25.3193 51.1055 25.9999 51.1068H26.3898L20.093 60.3592ZM29.25 62.8469C26.8224 62.5883 24.4352 62.0353 22.1412 61.2001L29.0105 51.1068H29.2499V62.8469H29.25ZM33.5833 62.9958C33.2231 63.0085 32.8632 63.0234 32.5 63.0234C32.1368 63.0234 31.7769 63.0085 31.4167 62.9958V51.1068H33.5834V62.9958H33.5833ZM35.75 62.8469V51.1068H35.9894L42.8587 61.2001C40.5648 62.0353 38.1775 62.5883 35.75 62.8469ZM44.907 60.3592L38.6101 51.1068H38.9999C39.6805 51.1054 40.3432 50.8885 40.8929 50.4874L46.9069 59.3774C46.2554 59.7305 45.586 60.0535 44.907 60.3592ZM48.773 58.2689L42.1801 48.523C42.2263 48.3039 42.2498 48.0806 42.2499 47.8567V45.69H54.1665C55.9606 45.6881 57.4146 44.2341 57.4165 42.44V15.4213C60.9388 20.4915 62.8286 26.5165 62.8332 32.6902C62.8271 43.0594 57.524 52.7067 48.773 58.2689Z" fill="#EE7463"/>
</g>
<defs>
<clipPath id="clip0_57_2357">
<rect width="65" height="65" fill="white" transform="translate(0 0.19043)"/>
</clipPath>
</defs>
</svg>
