<svg width="65" height="66" viewBox="0 0 65 66" fill="none" xmlns="http://www.w3.org/2000/svg">
<path d="M59.9219 39.7998H38.5938C38.3244 39.7998 38.0661 39.9068 37.8756 40.0973C37.6852 40.2877 37.5782 40.5461 37.5782 40.8154C37.5782 41.0848 37.6852 41.3431 37.8756 41.5336C38.0661 41.7241 38.3244 41.8311 38.5938 41.8311H59.9219V44.8779H41.0922C40.8229 44.8779 40.5645 44.9849 40.3741 45.1754C40.1836 45.3659 40.0766 45.6242 40.0766 45.8936C40.0766 46.1629 40.1836 46.4212 40.3741 46.6117C40.5645 46.8022 40.8229 46.9092 41.0922 46.9092H55.8594V49.9561H41.6407C41.3713 49.9561 41.113 50.0631 40.9225 50.2535C40.7321 50.444 40.625 50.7023 40.625 50.9717C40.625 51.241 40.7321 51.4994 40.9225 51.6898C41.113 51.8803 41.3713 51.9873 41.6407 51.9873H59.9219V55.0342H40.361C40.0916 55.0342 39.8333 55.1412 39.6428 55.3316C39.4524 55.5221 39.3454 55.7804 39.3454 56.0498C39.3454 56.3192 39.4524 56.5775 39.6428 56.768C39.8333 56.9584 40.0916 57.0654 40.361 57.0654H59.9219V60.1123H36.7454C36.476 60.1123 36.2177 60.2193 36.0272 60.4098C35.8367 60.6002 35.7297 60.8586 35.7297 61.1279C35.7297 61.3973 35.8367 61.6556 36.0272 61.8461C36.2177 62.0366 36.476 62.1436 36.7454 62.1436H59.9219C60.4606 62.1436 60.9773 61.9296 61.3582 61.5486C61.7392 61.1677 61.9532 60.651 61.9532 60.1123V57.0654C61.9495 56.7078 61.8514 56.3574 61.6688 56.0498C61.8514 55.7422 61.9495 55.3919 61.9532 55.0342V51.9873C61.9532 51.4486 61.7392 50.9319 61.3582 50.551C60.9773 50.1701 60.4606 49.9561 59.9219 49.9561H57.8907V46.9092H59.9219C60.4606 46.9092 60.9773 46.6952 61.3582 46.3142C61.7392 45.9333 61.9532 45.4167 61.9532 44.8779V41.8311C61.9532 41.2923 61.7392 40.7757 61.3582 40.3947C60.9773 40.0138 60.4606 39.7998 59.9219 39.7998Z" fill="#EE7463"/>
<path d="M17.2656 30.6592C18.1285 30.6548 18.976 30.4307 19.7282 30.0079C20.4804 29.5852 21.1124 28.9777 21.5647 28.2429C22.017 27.5081 22.2746 26.6701 22.3131 25.8081C22.3517 24.9461 22.17 24.0885 21.7852 23.3162L28.2242 18.2381C29.1282 19.0247 30.2861 19.4579 31.4844 19.4579C32.6827 19.4579 33.8406 19.0247 34.7445 18.2381L41.1836 23.3162C40.7696 24.1545 40.595 25.0908 40.6792 26.022C40.7634 26.9531 41.103 27.843 41.6606 28.5935C42.2182 29.3439 42.9722 29.9259 43.8394 30.2752C44.7067 30.6245 45.6535 30.7277 46.5756 30.5732C47.4977 30.4188 48.3593 30.0127 49.0654 29.3999C49.7715 28.787 50.2946 27.9911 50.5773 27.0999C50.8599 26.2087 50.891 25.2568 50.6671 24.349C50.4433 23.4412 49.9732 22.6129 49.3086 21.9553L55.0875 13.0381C55.6566 13.2647 56.2625 13.3852 56.875 13.3935C58.0525 13.3961 59.1942 12.9894 60.1049 12.243C61.0155 11.4966 61.6385 10.457 61.8673 9.30195C62.096 8.14693 61.9163 6.94832 61.3588 5.91119C60.8014 4.87407 59.9008 4.06289 58.8113 3.61646C57.7217 3.17003 56.5109 3.11609 55.386 3.46387C54.2611 3.81165 53.292 4.53954 52.6445 5.52299C51.997 6.50644 51.7114 7.68432 51.8365 8.85511C51.9617 10.0259 52.4898 11.1168 53.3305 11.9412L47.5414 20.8584C46.6971 20.5231 45.777 20.4263 44.8814 20.5785C43.9858 20.7308 43.1493 21.1262 42.4633 21.7217L36.0242 16.6435C36.4208 15.8694 36.6119 15.0064 36.5792 14.1372C36.5465 13.268 36.2911 12.4217 35.8374 11.6796C35.3838 10.9375 34.7471 10.3243 33.9884 9.89885C33.2297 9.47342 32.3745 9.25 31.5047 9.25C30.6349 9.25 29.7796 9.47342 29.021 9.89885C28.2623 10.3243 27.6256 10.9375 27.1719 11.6796C26.7183 12.4217 26.4629 13.268 26.4302 14.1372C26.3974 15.0064 26.5886 15.8694 26.9852 16.6435L20.5461 21.7217C19.6348 20.9341 18.4701 20.5014 17.2656 20.5029C15.9188 20.5029 14.6272 21.0379 13.6748 21.9903C12.7225 22.9426 12.1875 24.2342 12.1875 25.5811C12.1875 26.9279 12.7225 28.2195 13.6748 29.1718C14.6272 30.1242 15.9188 30.6592 17.2656 30.6592ZM56.875 5.26854C57.4776 5.26854 58.0667 5.44724 58.5678 5.78204C59.0688 6.11683 59.4593 6.59269 59.6899 7.14943C59.9206 7.70618 59.9809 8.3188 59.8633 8.90984C59.7458 9.50087 59.4556 10.0438 59.0295 10.4699C58.6034 10.896 58.0605 11.1862 57.4694 11.3038C56.8784 11.4213 56.2658 11.361 55.709 11.1304C55.1523 10.8998 54.6764 10.5092 54.3416 10.0082C54.0068 9.50712 53.8281 8.91804 53.8281 8.31542C53.8281 7.50734 54.1491 6.73235 54.7205 6.16095C55.2919 5.58955 56.0669 5.26854 56.875 5.26854ZM45.7031 22.5342C46.3057 22.5342 46.8948 22.7129 47.3959 23.0477C47.8969 23.3825 48.2875 23.8583 48.5181 24.4151C48.7487 24.9718 48.809 25.5844 48.6915 26.1755C48.5739 26.7665 48.2837 27.3094 47.8576 27.7355C47.4315 28.1616 46.8886 28.4518 46.2975 28.5694C45.7065 28.6869 45.0939 28.6266 44.5371 28.396C43.9804 28.1654 43.5045 27.7749 43.1697 27.2738C42.8349 26.7727 42.6562 26.1837 42.6562 25.5811C42.6562 24.773 42.9773 23.998 43.5487 23.4266C44.1201 22.8552 44.895 22.5342 45.7031 22.5342ZM31.4844 11.3623C32.087 11.3623 32.6761 11.541 33.1771 11.8758C33.6782 12.2106 34.0687 12.6864 34.2993 13.2432C34.5299 13.7999 34.5903 14.4126 34.4727 15.0036C34.3551 15.5946 34.065 16.1375 33.6388 16.5636C33.2127 16.9898 32.6698 17.2799 32.0788 17.3975C31.4878 17.5151 30.8751 17.4547 30.3184 17.2241C29.7616 16.9935 29.2858 16.603 28.951 16.1019C28.6162 15.6009 28.4375 15.0118 28.4375 14.4092C28.4375 13.6011 28.7585 12.8261 29.3299 12.2547C29.9013 11.6833 30.6763 11.3623 31.4844 11.3623ZM17.2656 22.5342C17.8682 22.5342 18.4573 22.7129 18.9584 23.0477C19.4594 23.3825 19.85 23.8583 20.0806 24.4151C20.3112 24.9718 20.3715 25.5844 20.254 26.1755C20.1364 26.7665 19.8462 27.3094 19.4201 27.7355C18.994 28.1616 18.4511 28.4518 17.86 28.5694C17.269 28.6869 16.6564 28.6266 16.0996 28.396C15.5429 28.1654 15.067 27.7749 14.7322 27.2738C14.3974 26.7727 14.2188 26.1837 14.2188 25.5811C14.2188 24.773 14.5398 23.998 15.1112 23.4266C15.6826 22.8552 16.4575 22.5342 17.2656 22.5342Z" fill="#EE7463"/>
<path d="M26.4063 41.8311C24.7993 41.8311 23.2284 42.3076 21.8922 43.2004C20.5561 44.0932 19.5147 45.3621 18.8997 46.8468C18.2848 48.3314 18.1239 49.9651 18.4374 51.5412C18.7509 53.1173 19.5247 54.565 20.661 55.7013C21.7973 56.8376 23.245 57.6114 24.8211 57.9249C26.3972 58.2384 28.0309 58.0775 29.5156 57.4626C31.0002 56.8476 32.2692 55.8062 33.1619 54.4701C34.0547 53.1339 34.5313 51.563 34.5313 49.9561C34.5313 47.8012 33.6752 45.7345 32.1515 44.2108C30.6278 42.6871 28.5611 41.8311 26.4063 41.8311ZM26.4063 56.0498C25.201 56.0498 24.0229 55.6924 23.0207 55.0228C22.0186 54.3532 21.2376 53.4015 20.7764 52.288C20.3151 51.1745 20.1945 49.9493 20.4296 48.7672C20.6647 47.5851 21.2451 46.4993 22.0973 45.6471C22.9495 44.7949 24.0354 44.2145 25.2174 43.9794C26.3995 43.7443 27.6247 43.8649 28.7382 44.3262C29.8517 44.7874 30.8034 45.5684 31.473 46.5705C32.1426 47.5727 32.5 48.7508 32.5 49.9561C32.5 51.5722 31.858 53.1222 30.7152 54.265C29.5724 55.4078 28.0224 56.0498 26.4063 56.0498Z" fill="#EE7463"/>
<path d="M26.4063 37.7686C23.9958 37.7686 21.6395 38.4833 19.6352 39.8225C17.631 41.1617 16.0689 43.0651 15.1465 45.2921C14.224 47.5191 13.9827 49.9696 14.4529 52.3337C14.9232 54.6979 16.0839 56.8695 17.7884 58.5739C19.4928 60.2784 21.6644 61.4391 24.0286 61.9094C26.3927 62.3796 28.8432 62.1383 31.0702 61.2158C33.2972 60.2934 35.2006 58.7313 36.5398 56.7271C37.879 54.7228 38.5938 52.3665 38.5938 49.956C38.5938 46.7237 37.3097 43.6238 35.0241 41.3382C32.7385 39.0526 29.6386 37.7686 26.4063 37.7686ZM26.4063 60.1123C24.3975 60.1123 22.4339 59.5166 20.7637 58.4007C19.0936 57.2847 17.7918 55.6985 17.0231 53.8427C16.2544 51.9869 16.0533 49.9448 16.4452 47.9747C16.837 46.0045 17.8043 44.1949 19.2247 42.7745C20.6451 41.3541 22.4548 40.3868 24.4249 39.995C26.395 39.6031 28.4371 39.8042 30.2929 40.5729C32.1487 41.3416 33.7349 42.6434 34.8509 44.3135C35.9669 45.9837 36.5625 47.9473 36.5625 49.956C36.5625 52.6497 35.4925 55.2329 33.5878 57.1376C31.6831 59.0423 29.0999 60.1123 26.4063 60.1123Z" fill="#EE7463"/>
<path d="M25.8984 47.9248H28.4375C28.7068 47.9248 28.9652 47.8178 29.1556 47.6273C29.3461 47.4369 29.4531 47.1785 29.4531 46.9092C29.4531 46.6398 29.3461 46.3815 29.1556 46.191C28.9652 46.0006 28.7068 45.8936 28.4375 45.8936H27.4218C27.4218 45.6242 27.3148 45.3659 27.1244 45.1754C26.9339 44.9849 26.6756 44.8779 26.4062 44.8779C26.1369 44.8779 25.8785 44.9849 25.6881 45.1754C25.4976 45.3659 25.3906 45.6242 25.3906 45.8936C25.0572 45.9269 24.7336 46.0256 24.4383 46.184C24.143 46.3424 23.8818 46.5574 23.6696 46.8168C23.241 47.3405 23.0381 48.0131 23.1054 48.6865C23.1388 49.02 23.2375 49.3436 23.3959 49.6389C23.5543 49.9341 23.7693 50.1953 24.0287 50.4075C24.5524 50.8361 25.225 51.039 25.8984 50.9717H26.914C27.0487 50.9717 27.1779 51.0252 27.2731 51.1204C27.3683 51.2156 27.4218 51.3448 27.4218 51.4795C27.4218 51.6142 27.3683 51.7433 27.2731 51.8386C27.1779 51.9338 27.0487 51.9873 26.914 51.9873H24.375C24.1056 51.9873 23.8473 52.0943 23.6568 52.2848C23.4664 52.4752 23.3594 52.7336 23.3594 53.0029C23.3594 53.2723 23.4664 53.5306 23.6568 53.7211C23.8473 53.9116 24.1056 54.0186 24.375 54.0186H25.3906C25.3906 54.2879 25.4976 54.5462 25.6881 54.7367C25.8785 54.9272 26.1369 55.0342 26.4062 55.0342C26.6756 55.0342 26.9339 54.9272 27.1244 54.7367C27.3148 54.5462 27.4218 54.2879 27.4218 54.0186C28.0952 53.9512 28.7143 53.6191 29.1429 53.0953C29.5714 52.5716 29.7743 51.899 29.707 51.2256C29.6397 50.5522 29.3076 49.9331 28.7838 49.5046C28.26 49.076 27.5874 48.8731 26.914 48.9404H25.8984C25.7637 48.9404 25.6346 48.8869 25.5393 48.7917C25.4441 48.6965 25.3906 48.5673 25.3906 48.4326C25.3906 48.2979 25.4441 48.1688 25.5393 48.0735C25.6346 47.9783 25.7637 47.9248 25.8984 47.9248Z" fill="#EE7463"/>
<path d="M15.2344 37.7686C16.0321 37.7673 16.8223 37.9226 17.5602 38.2257C17.8081 38.3267 18.0859 38.3258 18.3332 38.2231C18.5804 38.1204 18.7771 37.9242 18.8805 37.6772C18.9816 37.4293 18.9806 37.1515 18.8779 36.9042C18.7752 36.657 18.579 36.4603 18.3321 36.3569C17.3519 35.9435 16.2982 35.7327 15.2344 35.7374C13.5043 35.7384 11.8197 36.2916 10.4258 37.3165C9.03197 38.3414 8.00166 39.7844 7.48491 41.4356C6.96815 43.0867 6.99193 44.8597 7.55279 46.4963C8.11365 48.133 9.1823 49.5479 10.6031 50.535C10.8241 50.6882 11.0969 50.7475 11.3615 50.6999C11.6261 50.6523 11.8611 50.5017 12.0149 50.2811C12.168 50.0601 12.2273 49.7874 12.1797 49.5228C12.1321 49.2582 11.9815 49.0232 11.761 48.8694C10.6942 48.1294 9.89168 47.0681 9.47032 45.8401C9.04897 44.6121 9.03081 43.2817 9.4185 42.0426C9.8062 40.8036 10.5795 39.7208 11.6256 38.952C12.6718 38.1832 13.9361 37.7686 15.2344 37.7686Z" fill="#EE7463"/>
<path d="M12.1875 53.5613C10.7608 53.1072 9.45216 52.3433 8.35525 51.3243C7.25834 50.3053 6.40029 49.0564 5.84254 47.667C5.28478 46.2775 5.04112 44.782 5.12899 43.2874C5.21686 41.7927 5.63409 40.336 6.35082 39.0215C7.06754 37.707 8.06602 36.5673 9.27478 35.6838C10.4835 34.8003 11.8727 34.1951 13.3427 33.9113C14.8128 33.6275 16.3274 33.6723 17.7781 34.0423C19.2289 34.4124 20.5799 35.0987 21.7344 36.0519C21.837 36.1373 21.9556 36.2016 22.0831 36.2412C22.2106 36.2807 22.3447 36.2948 22.4777 36.2825C22.6107 36.2702 22.7399 36.2319 22.8581 36.1697C22.9763 36.1075 23.081 36.0226 23.1664 35.9199C23.2517 35.8172 23.316 35.6987 23.3556 35.5712C23.3952 35.4436 23.4092 35.3095 23.3969 35.1765C23.3847 35.0436 23.3464 34.9143 23.2841 34.7962C23.2219 34.678 23.137 34.5732 23.0344 34.4879C21.6432 33.3188 20.0082 32.4756 18.2491 32.0201C16.4899 31.5645 14.6512 31.5081 12.8674 31.8549C11.0837 32.2017 9.40006 32.9431 7.9398 34.0246C6.47955 35.1062 5.27963 36.5005 4.42788 38.1057C3.57612 39.7109 3.09409 41.4862 3.01706 43.3017C2.94003 45.1173 3.26996 46.927 3.9827 48.5986C4.69543 50.2701 5.77293 51.7612 7.13633 52.9625C8.49973 54.1638 10.1145 55.0451 11.8625 55.5418C12.1318 55.5822 12.4062 55.5139 12.6253 55.352C12.8443 55.1901 12.99 54.9479 13.0304 54.6785C13.0708 54.4091 13.0026 54.1348 12.8407 53.9157C12.6788 53.6967 12.4365 53.5509 12.1672 53.5105L12.1875 53.5613Z" fill="#EE7463"/>
</svg>
