<svg width="65" height="66" viewBox="0 0 65 66" fill="none" xmlns="http://www.w3.org/2000/svg">
<path d="M63.9844 1.20605H31.4844V8.23316L26.4255 12.2804C25.5277 12.9985 24.4014 13.3936 23.2537 13.3936H23.2477C24.568 12.1017 25.3906 10.304 25.3906 8.31543C25.3906 4.39613 22.2016 1.20605 18.2812 1.20605C14.3609 1.20605 11.1719 4.39613 11.1719 8.31543C11.1719 10.3335 12.0209 12.1535 13.3758 13.4484C9.85258 13.8668 7.10938 16.869 7.10938 20.5029V25.5811H1.01562V49.9561H5.07812V53.006H7.10938V48.9435C7.10938 48.3829 7.56539 47.9278 8.125 47.9278H18.2812C18.8409 47.9278 19.2969 48.3829 19.2969 48.9435V53.006H21.3281V48.9435C21.3281 47.6181 20.473 46.4999 19.2898 46.0814C19.2908 46.0195 19.2969 45.9586 19.2969 45.8966C19.2969 45.3857 19.2268 44.8932 19.108 44.4189C19.6178 44.7022 20.1957 44.8779 20.8203 44.8779C22.7805 44.8779 24.375 43.2844 24.375 41.3243V27.6123H31.4844V31.6748H43.4952L38.8385 37.1084L40.3812 38.4297L46.1703 31.6758H46.7188V37.7696H48.75V31.6758H49.2984L55.0875 38.4297L56.6302 37.1084L51.9736 31.6748H59.9219V47.9248H57.7027C57.527 47.4322 57.2305 47.0026 56.8445 46.6644C56.8587 46.4085 56.875 46.1536 56.875 45.8966C56.875 42.5359 54.142 39.8028 50.7812 39.8028C47.4205 39.8028 44.6875 42.5359 44.6875 45.8966C43.0077 45.8966 41.6406 47.2636 41.6406 48.9435V53.006H43.6719V48.9435C43.6719 48.3829 44.1279 47.9278 44.6875 47.9278H54.8438C55.4034 47.9278 55.8594 48.3829 55.8594 48.9435V53.006H57.8906V49.9561H61.9531V31.6748H63.9844V1.20605ZM50.7812 41.8341C53.0217 41.8341 54.8438 43.6561 54.8438 45.8966H46.7188C46.7188 43.6561 48.5408 41.8341 50.7812 41.8341ZM13.2031 8.31543C13.2031 5.51535 15.4812 3.2373 18.2812 3.2373C21.0813 3.2373 23.3594 5.51535 23.3594 8.31543C23.3594 11.1155 21.0813 13.3936 18.2812 13.3936C15.4812 13.3936 13.2031 11.1155 13.2031 8.31543ZM5.26602 47.9248H3.04688V27.6123H7.10938C7.10938 29.8528 8.93141 31.6748 11.1719 31.6748H12.1875V39.8943C9.31023 40.3797 7.10938 42.8822 7.10938 45.8966C7.10938 45.9586 7.11547 46.0195 7.11648 46.0814C6.25422 46.3861 5.57477 47.0636 5.26602 47.9248ZM13.2031 41.8341C15.4436 41.8341 17.2656 43.6561 17.2656 45.8966H9.14062C9.14062 43.6561 10.9627 41.8341 13.2031 41.8341ZM22.3438 24.5167L22.3427 41.3243C22.3427 42.1632 21.6592 42.8467 20.8193 42.8467C19.9794 42.8467 19.2969 42.1632 19.2969 41.3232V29.6436H17.2656V41.3232C17.2656 41.3395 17.2707 41.3547 17.2707 41.372C16.4298 40.6154 15.3806 40.0913 14.2188 39.8943V22.5342H12.1875V29.6436H11.1719C10.0516 29.6436 9.14062 28.7325 9.14062 27.6123V20.5029C9.14062 17.7029 11.4187 15.4248 14.2188 15.4248H23.2537C24.8615 15.4248 26.4387 14.8713 27.6951 13.8679L35.4291 7.67965C35.7337 7.43488 36.1187 7.2998 36.5127 7.2998H36.5625H36.857C37.8148 7.2998 38.5938 8.0798 38.5938 9.03652C38.5938 9.56262 38.3602 10.0532 37.9529 10.3843L23.4691 22.1513C22.7541 22.7332 22.3438 23.5955 22.3438 24.5167ZM51.7969 15.4248V11.3623H57.8906V17.4561H45.7031V15.4248H51.7969ZM49.7656 13.3936H37.4705L39.2336 11.9615C40.1172 11.2425 40.625 10.1761 40.625 9.03652C40.625 8.40684 40.4554 7.82184 40.1812 7.2998H49.7656V13.3936ZM24.375 25.5811V24.5167C24.375 24.2089 24.5121 23.9215 24.7498 23.7286L31.4844 18.2574V25.5811H24.375ZM61.9531 29.6436H33.5156V16.607L34.97 15.4248H43.6719V19.4873H59.9219V9.33105H51.7969V5.26855H36.857H36.5625H36.5127C35.6596 5.26855 34.8237 5.56207 34.1595 6.09426L33.5156 6.60816V3.2373H61.9531V29.6436Z" fill="#EE7463"/>
<path d="M19.2898 56.2346C19.2908 56.1727 19.2969 56.1118 19.2969 56.0498C19.2969 52.6891 16.5638 49.9561 13.2031 49.9561C9.84242 49.9561 7.10938 52.6891 7.10938 56.0498C7.10938 56.1118 7.11547 56.1727 7.11648 56.2346C5.93328 56.6531 5.07812 57.7713 5.07812 59.0967V64.1748H21.3281V59.0967C21.3281 57.7713 20.473 56.6531 19.2898 56.2346ZM13.2031 51.9873C15.4436 51.9873 17.2656 53.8093 17.2656 56.0498H9.14062C9.14062 53.8093 10.9627 51.9873 13.2031 51.9873ZM19.2969 62.1436H7.10938V59.0967C7.10938 58.5361 7.56539 58.0811 8.125 58.0811H18.2812C18.8409 58.0811 19.2969 58.5361 19.2969 59.0967V62.1436Z" fill="#EE7463"/>
<path d="M37.571 56.2346C37.572 56.1727 37.5781 56.1118 37.5781 56.0498C37.5781 52.6891 34.8451 49.9561 31.4844 49.9561C28.1237 49.9561 25.3906 52.6891 25.3906 56.0498C25.3906 56.1118 25.3967 56.1727 25.3977 56.2346C24.2145 56.6531 23.3594 57.7713 23.3594 59.0967V64.1748H39.6094V59.0967C39.6094 57.7713 38.7542 56.6531 37.571 56.2346ZM31.4844 51.9873C33.7248 51.9873 35.5469 53.8093 35.5469 56.0498H27.4219C27.4219 53.8093 29.2439 51.9873 31.4844 51.9873ZM37.5781 62.1436H25.3906V59.0967C25.3906 58.5361 25.8466 58.0811 26.4062 58.0811H36.5625C37.1221 58.0811 37.5781 58.5361 37.5781 59.0967V62.1436Z" fill="#EE7463"/>
<path d="M55.8523 56.2346C55.8533 56.1727 55.8594 56.1118 55.8594 56.0498C55.8594 52.6891 53.1263 49.9561 49.7656 49.9561C46.4049 49.9561 43.6719 52.6891 43.6719 56.0498C43.6719 56.1118 43.678 56.1727 43.679 56.2346C42.4958 56.6531 41.6406 57.7713 41.6406 59.0967V64.1748H57.8906V59.0967C57.8906 57.7713 57.0355 56.6531 55.8523 56.2346ZM49.7656 51.9873C52.0061 51.9873 53.8281 53.8093 53.8281 56.0498H45.7031C45.7031 53.8093 47.5252 51.9873 49.7656 51.9873ZM55.8594 62.1436H43.6719V59.0967C43.6719 58.5361 44.1279 58.0811 44.6875 58.0811H54.8438C55.4034 58.0811 55.8594 58.5361 55.8594 59.0967V62.1436Z" fill="#EE7463"/>
<path d="M38.5633 46.6643C38.5775 46.4084 38.5938 46.1534 38.5938 45.8965C38.5938 42.5358 35.8607 39.8027 32.5 39.8027C29.1393 39.8027 26.4062 42.5358 26.4062 45.8965C24.7264 45.8965 23.3594 47.2635 23.3594 48.9434V53.0059H25.3906V48.9434C25.3906 48.3827 25.8466 47.9277 26.4062 47.9277H36.5625C37.1221 47.9277 37.5781 48.3827 37.5781 48.9434V53.0059H39.6094V48.9434C39.6094 48.0323 39.1991 47.2229 38.5633 46.6643ZM32.5 41.834C34.7405 41.834 36.5625 43.656 36.5625 45.8965H28.4375C28.4375 43.656 30.2595 41.834 32.5 41.834Z" fill="#EE7463"/>
<path d="M35.5469 21.5186H37.5781V23.5498H35.5469V21.5186Z" fill="#EE7463"/>
<path d="M39.6094 21.5186H59.9219V23.5498H39.6094V21.5186Z" fill="#EE7463"/>
<path d="M35.5469 25.5811H59.9219V27.6123H35.5469V25.5811Z" fill="#EE7463"/>
</svg>
