<svg width="65" height="66" viewBox="0 0 65 66" fill="none" xmlns="http://www.w3.org/2000/svg">
<g clip-path="url(#clip0_57_2435)">
<path fill-rule="evenodd" clip-rule="evenodd" d="M26.2447 6.43957L28.7254 8.4335L27.8904 11.5047C27.749 12.0253 27.9396 12.5663 28.3758 12.8835C28.6029 13.0485 28.867 13.1314 29.1318 13.1313C29.3759 13.1313 29.6207 13.0607 29.8373 12.919L32.5 11.1759L35.1629 12.919C35.6144 13.2144 36.188 13.2008 36.6251 12.8831C37.0609 12.5659 37.2512 12.025 37.1098 11.5046L36.2748 8.4335L38.7553 6.4397C39.1758 6.10213 39.3398 5.55242 39.1735 5.0394C39.007 4.52601 38.5511 4.17727 38.012 4.15111L34.8331 3.9961L33.7035 1.02083C33.7035 1.02083 33.7035 1.02083 33.7035 1.0207V1.02058C33.5118 0.516318 33.0395 0.19043 32.5001 0.19043C31.9606 0.19043 31.4882 0.516318 31.2967 1.02058L30.1671 3.9961L26.9883 4.15111C26.4491 4.17727 25.9931 4.52601 25.8271 5.03839C25.6599 5.55191 25.8242 6.10213 26.2447 6.43957ZM30.7523 6.0012C31.2636 5.97657 31.7113 5.65132 31.8931 5.17271L32.5 3.57424L33.1068 5.17283C33.2886 5.65144 33.7364 5.97657 34.2472 6.0012L35.9549 6.08448L34.6223 7.15559C34.2234 7.47602 34.0525 8.00224 34.1866 8.49634L34.6351 10.1462L33.2053 9.21032C32.9909 9.06979 32.7451 8.99945 32.4995 8.99945C32.2539 8.99945 32.0087 9.06966 31.7948 9.20981L30.3642 10.1462L30.8129 8.49583C30.947 8.0016 30.7757 7.47551 30.3771 7.15559L29.0446 6.08448L30.7523 6.0012ZM40.5611 9.18531L43.0419 11.1791L42.2069 14.2504C42.0655 14.7709 42.2561 15.3119 42.6923 15.6291C42.9194 15.7941 43.1835 15.877 43.4483 15.8769C43.6924 15.8769 43.9372 15.8063 44.1538 15.6646L46.8166 13.9216L49.4796 15.6646C49.9308 15.9599 50.504 15.9462 50.9417 15.6287C51.3777 15.3116 51.568 14.7705 51.4264 14.2504L50.5914 11.1791L53.072 9.18544C53.4927 8.84724 53.6567 8.29728 53.4902 7.78502C53.3236 7.27162 52.8677 6.92288 52.3287 6.89673L49.1497 6.74172L48.0201 3.76645C48.0201 3.76645 48.0201 3.76645 48.0201 3.76632V3.76619C47.8285 3.26193 47.3563 2.93604 46.8169 2.93604C46.2773 2.93604 45.8049 3.26193 45.6135 3.76619L44.4838 6.74172L41.3051 6.89673C40.7659 6.92288 40.3099 7.27162 40.1438 7.784C39.9768 8.29689 40.1405 8.84673 40.5611 9.18531ZM45.069 8.74669C45.5802 8.72206 46.028 8.39681 46.2098 7.91819L46.8165 6.31973L47.4234 7.91832C47.6052 8.39693 48.053 8.72206 48.5639 8.74669L50.2715 8.82997L48.9388 9.9012C48.5395 10.222 48.3687 10.7486 48.5032 11.2418L48.9517 12.8917L47.522 11.9558C47.3077 11.8153 47.0619 11.7449 46.8162 11.7449C46.5707 11.7449 46.3254 11.8151 46.1113 11.9553L44.6809 12.8916L45.1295 11.2416C45.2636 10.7477 45.0926 10.2216 44.6937 9.90107L43.3611 8.82997L45.069 8.74669ZM11.928 9.18531L14.4087 11.1791L13.5741 14.2495C13.432 14.7704 13.6223 15.3118 14.059 15.6292C14.2863 15.7942 14.5505 15.8771 14.8152 15.8771C15.0594 15.8771 15.3042 15.8066 15.5205 15.6647L18.1834 13.9217L20.8463 15.6647C21.2978 15.9603 21.8712 15.9465 22.3079 15.6292C22.7443 15.3122 22.9347 14.771 22.7931 14.2505L21.9582 11.1792L24.4395 9.18506C24.8597 8.84686 25.0235 8.29702 24.8569 7.78515C24.6903 7.27175 24.2344 6.92301 23.6954 6.89686L20.5165 6.74185L19.3869 3.76657C19.3869 3.76657 19.3869 3.76657 19.3869 3.76645V3.76632C19.1953 3.26206 18.723 2.93617 18.1836 2.93617C17.6435 2.93617 17.171 3.26244 16.9805 3.76632L15.8507 6.74185L12.6718 6.89686C12.1333 6.92301 11.6774 7.27137 11.5102 7.78515C11.3438 8.29791 11.5078 8.84749 11.928 9.18531ZM16.4357 8.74669C16.9475 8.72193 17.3955 8.3963 17.5764 7.91819L18.1834 6.31985L18.7902 7.91832C18.972 8.39693 19.4197 8.72206 19.9306 8.74669L21.6383 8.82997L20.3049 9.90145C19.9066 10.2221 19.736 10.7481 19.8699 11.2417L20.3184 12.8916L18.8887 11.9557C18.6743 11.8151 18.4285 11.7448 18.1828 11.7448C17.9373 11.7448 17.692 11.815 17.4781 11.9552L16.0477 12.8915L16.4963 11.2414C16.6305 10.7472 16.4592 10.221 16.0604 9.90095L14.7278 8.82984L16.4357 8.74669ZM22.123 24.9001C22.8849 24.1073 23.355 23.0317 23.355 21.8479C23.355 19.4171 21.3774 17.4393 18.9465 17.4393C16.5156 17.4393 14.5379 19.417 14.5379 21.8479C14.5379 23.0321 15.0081 24.108 15.7706 24.9008C13.7939 25.7858 12.2395 27.4845 11.5648 29.6634C11.3219 30.4474 11.4608 31.2743 11.9455 31.9319C12.4303 32.5896 13.1792 32.9668 14.0002 32.9668H22.5665V33.7641C22.5665 35.6458 24.0976 37.1767 25.9793 37.1767H39.0209C40.9024 37.1767 42.4334 35.6458 42.4335 33.7641V32.9672H51C51.821 32.9672 52.5697 32.5899 53.0547 31.9323C53.5394 31.2745 53.6782 30.4477 53.4353 29.6636C52.7607 27.4847 51.2061 25.7861 49.2296 24.9011C49.9921 24.1081 50.4623 23.0323 50.4623 21.8481C50.4623 19.4174 48.4846 17.4396 46.0537 17.4396C43.6228 17.4396 41.6452 19.4172 41.6452 21.8481C41.6452 23.032 42.1152 24.1074 42.8771 24.9002C41.9241 25.3279 41.065 25.9488 40.3508 26.7344C39.255 25.3428 37.7994 24.2563 36.128 23.6076C37.3044 22.589 38.0507 21.0865 38.0507 19.412C38.0507 16.3514 35.5608 13.8612 32.5001 13.8612C29.4394 13.8612 26.9493 16.3513 26.9493 19.412C26.9493 21.0865 27.6957 22.589 28.872 23.6076C27.2007 24.2563 25.7452 25.3428 24.6493 26.7344C23.9351 25.9487 23.076 25.3278 22.123 24.9001ZM18.9465 19.4705C20.2573 19.4705 21.3238 20.537 21.3238 21.8479C21.3238 23.1588 20.2574 24.2252 18.9465 24.2252C17.6356 24.2252 16.5691 23.1588 16.5691 21.8479C16.5691 20.537 17.6357 19.4705 18.9465 19.4705ZM13.5807 30.7267C13.5232 30.6486 13.4368 30.4849 13.5051 30.2641C14.2477 27.8668 16.4342 26.2563 18.9463 26.2563C20.7728 26.2563 22.441 27.1063 23.5135 28.5523C23.1528 29.2975 22.8799 30.0955 22.7119 30.9356H14.0002C13.7692 30.9357 13.6382 30.8047 13.5807 30.7267ZM43.6763 21.8481C43.6763 20.5373 44.7427 19.4708 46.0536 19.4708C47.3645 19.4708 48.4309 20.5372 48.4309 21.8481C48.4309 23.159 47.3645 24.2255 46.0536 24.2255C44.7427 24.2255 43.6763 23.1589 43.6763 21.8481ZM46.0536 26.2566C48.5659 26.2566 50.7525 27.8672 51.4948 30.2645C51.5631 30.4851 51.4769 30.6489 51.4194 30.7271C51.3619 30.805 51.2309 30.9361 50.9997 30.9361H42.2881C42.1201 30.096 41.847 29.2979 41.4865 28.5525C42.5589 27.1067 44.2271 26.2566 46.0536 26.2566ZM32.5001 15.8925C34.4407 15.8925 36.0195 17.4714 36.0195 19.412C36.0195 21.3526 34.4407 22.9314 32.5001 22.9314C30.5595 22.9314 28.9806 21.3526 28.9806 19.412C28.9806 17.4714 30.5595 15.8925 32.5001 15.8925ZM32.5 24.9625C36.5575 24.9625 39.9454 27.9873 40.4022 32.007V33.7641C40.402 34.5258 39.7824 35.1456 39.0208 35.1456H25.9793C25.2176 35.1456 24.5978 34.5259 24.5978 33.7642V32.007C25.0546 27.9873 28.4424 24.9625 32.5 24.9625ZM62.3392 41.5287C61.757 40.5566 59.3686 37.6699 53.0791 41.3331L42.039 47.7633C41.5153 48.0683 40.9831 48.2881 40.4293 48.425C40.6273 48.0915 40.7835 47.7184 40.8934 47.3084C41.4625 45.1836 40.2002 42.9653 38.0195 42.2583C37.9758 42.2443 37.9315 42.2331 37.8865 42.2249C34.7167 41.6532 31.5869 40.5217 29.072 39.6125C28.1972 39.2963 27.3711 38.9976 26.6681 38.7697C23.8276 37.8479 21.2642 38.9869 19.1307 40.2222L10.9484 44.9594L10.0689 43.4053C9.72243 42.7929 9.15635 42.3516 8.47525 42.1629C7.7944 41.9743 7.08168 42.0611 6.46952 42.4078L3.37199 44.1609C2.10462 44.8782 1.65698 46.4928 2.37439 47.7603L11.4811 63.8515C11.9665 64.709 12.8626 65.1912 13.784 65.1912C14.2244 65.1912 14.6707 65.081 15.0805 64.8491L18.1781 63.096C18.7904 62.7494 19.2317 62.1834 19.4204 61.5023C19.6092 60.8212 19.5223 60.1089 19.1756 59.4965L18.3773 58.086L20.2058 57.0304L34.3315 60.8152C35.1334 61.0302 35.9206 61.1375 36.6908 61.1375C38.2264 61.1375 39.6945 60.7109 41.0763 59.8602L61.1114 47.5234C62.9539 46.3893 63.539 43.532 62.3392 41.5287ZM17.4633 60.9598C17.4193 61.118 17.318 61.2488 17.1779 61.3281L14.0802 63.0814C13.9401 63.1607 13.7758 63.1801 13.6175 63.1365C13.4593 63.0925 13.3284 62.9911 13.2491 62.8511L4.14221 46.7598C4.06287 46.6196 4.04344 46.4553 4.08711 46.297C4.13104 46.1388 4.23248 46.0081 4.37263 45.9286L7.47016 44.1755C7.56144 44.124 7.663 44.0975 7.76622 44.0975C7.82182 44.0975 7.87768 44.1052 7.9329 44.1205C8.09096 44.1643 8.22185 44.2658 8.3012 44.4059L16.1168 58.2155C16.1172 58.2163 16.1174 58.217 16.118 58.2177C16.1182 58.2182 16.1186 58.2187 16.1188 58.2192L17.408 60.497C17.4875 60.6373 17.5071 60.8017 17.4633 60.9598ZM60.0466 45.7938L40.0115 58.1306C38.4316 59.1034 36.6972 59.3468 34.8575 58.8532L20.3254 54.9594C20.0657 54.8896 19.788 54.9261 19.5548 55.0608L17.3769 56.3181L11.9491 46.7274L20.1486 41.9801C21.9823 40.9184 23.9654 40.0283 26.0415 40.7021C26.7123 40.9195 27.4858 41.1991 28.3815 41.5229C30.9491 42.4512 34.1401 43.6047 37.4523 44.2107C38.5864 44.6083 39.2205 45.7035 38.9312 46.783C38.5507 48.2028 37.3656 48.3804 36.4223 48.2723C34.798 47.9383 33.2537 47.4975 31.6197 47.0308C30.844 46.8093 30.0418 46.5801 29.2171 46.3592C28.6753 46.2141 28.1186 46.5357 27.9732 47.0774C27.828 47.6192 28.1497 48.176 28.6914 48.3213C29.5 48.5379 30.2939 48.7646 31.0617 48.984C32.7473 49.4654 34.3394 49.9201 36.0545 50.2708C36.0611 50.2722 36.0677 50.2725 36.0742 50.2738C36.0812 50.2751 36.0878 50.2771 36.0949 50.2783L37.4677 50.5014C39.5295 50.8316 41.359 50.51 43.061 49.519L54.101 43.0888C57.2599 41.2494 59.688 41.0563 60.5963 42.5727C61.2213 43.6156 60.9439 45.2414 60.0466 45.7938ZM8.47436 47.4696C8.56272 48.0738 8.14441 48.6355 7.54011 48.7239C6.93569 48.8122 6.37417 48.3939 6.28582 47.7895C6.19746 47.1852 6.61577 46.6235 7.22019 46.5352C7.82436 46.4468 8.386 46.8651 8.47436 47.4696Z" fill="#EE7463"/>
</g>
<defs>
<clipPath id="clip0_57_2435">
<rect width="65" height="65" fill="white" transform="translate(0 0.19043)"/>
</clipPath>
</defs>
</svg>
