<svg width="65" height="66" viewBox="0 0 65 66" fill="none" xmlns="http://www.w3.org/2000/svg">
<g clip-path="url(#clip0_57_2437)">
<path d="M22.3911 0.19043C18.6454 0.19043 15.2095 3.9311 12.7162 10.7235C10.3332 17.2159 9.02075 25.8282 9.02075 34.9739C9.02075 41.071 9.61794 47.0605 10.7477 52.295C11.854 57.4209 13.4462 61.7265 15.3522 64.7465L15.6325 65.1904H19.5349V63.2861H16.6909C13.1263 57.2879 10.9253 46.5203 10.9253 34.9739C10.9253 26.0465 12.1964 17.6672 14.5042 11.3797C16.6698 5.47892 19.5447 2.09473 22.3911 2.09473C25.2375 2.09473 28.1123 5.47892 30.2783 11.3797C32.5862 17.6672 33.8572 26.0465 33.8572 34.9739C33.8572 46.5203 31.6562 57.2879 28.0917 63.2861H25.2475V65.1904H29.1499L29.4301 64.7465C31.3361 61.7265 32.9283 57.4209 34.0346 52.295C35.1643 47.0605 35.7615 41.071 35.7615 34.9739C35.7615 25.8281 34.4491 17.2159 32.066 10.7235C29.5728 3.9311 26.1368 0.19043 22.3911 0.19043V0.19043Z" fill="#EE7463"/>
<path d="M21.4389 63.2861H23.3432V65.1904H21.4389V63.2861Z" fill="#EE7463"/>
<path d="M21.4389 6.85547V34.0218H12.8293V34.9739C12.8293 39.2398 13.1782 43.8408 13.8115 47.9296C14.6288 53.2064 15.88 57.5553 17.5304 60.8556L17.7937 61.3818H26.9886L27.2517 60.8555C28.9021 57.5552 30.1534 53.2063 30.9707 47.9295C31.6041 43.8407 31.9528 39.2397 31.9528 34.9738V34.0217H23.3432V6.85547H21.4389ZM25.8033 59.4775H18.9788C15.9846 53.0926 14.8299 43.369 14.7394 35.9261H30.0427C29.9523 43.369 28.7976 53.0926 25.8033 59.4775Z" fill="#EE7463"/>
<path d="M25.4012 10.9072H27.3055V12.8115H25.4012V10.9072Z" fill="#EE7463"/>
<path d="M27.3055 14.7158H29.2098V16.6201H27.3055V14.7158Z" fill="#EE7463"/>
<path d="M55.8419 57.195L54.545 45.767L50.7736 41.0526V5.90332H51.7257C53.3007 5.90332 54.5822 4.62198 54.5822 3.04688C54.5822 1.47177 53.3007 0.19043 51.7257 0.19043H44.1084C42.5334 0.19043 41.2521 1.47177 41.2521 3.04688C41.2521 4.62198 42.5334 5.90332 44.1084 5.90332H45.0607V8.75977H46.965V5.90332H48.8693V53.7646C48.8693 54.2896 48.4422 54.7168 47.9171 54.7168C47.392 54.7168 46.965 54.2897 46.965 53.7646V10.6641H45.0607V41.0528L41.2892 45.7672L39.9923 57.1953C39.7433 59.3891 39.6847 61.8513 41.1385 63.4794C42.1667 64.6308 43.7611 65.1906 46.0128 65.1906H49.8214C52.0731 65.1906 53.6675 64.6308 54.6957 63.4794C56.1494 61.8512 56.0909 59.3889 55.8419 57.195ZM43.1564 3.04688C43.1564 2.52192 43.5835 2.09473 44.1084 2.09473H51.7257C52.2508 2.09473 52.6779 2.52192 52.6779 3.04688C52.6779 3.57183 52.2508 3.99902 51.7257 3.99902H44.1084C43.5835 3.99902 43.1564 3.57183 43.1564 3.04688ZM53.2752 62.2108C52.6291 62.9343 51.4994 63.2861 49.8214 63.2861H46.0128C44.3348 63.2861 43.2051 62.9343 42.5589 62.2108C41.6057 61.143 41.6831 59.1848 41.8844 57.4099L43.1193 46.5277L45.0607 44.101V53.7646C45.0607 55.3396 46.3421 56.6211 47.9171 56.6211C49.4921 56.6211 50.7736 55.3398 50.7736 53.7646V44.1011L52.7148 46.5277L53.9498 57.4099C54.1513 59.1848 54.2286 61.1432 53.2752 62.2108Z" fill="#EE7463"/>
</g>
<defs>
<clipPath id="clip0_57_2437">
<rect width="65" height="65" fill="white" transform="translate(0 0.19043)"/>
</clipPath>
</defs>
</svg>
