<svg width="32" height="32" viewBox="0 0 32 32" fill="none" xmlns="http://www.w3.org/2000/svg">
<path d="M29.6442 4.41526H27.7405V3.00617C27.7405 2.25874 27.4436 1.54193 26.9151 1.01341C26.3866 0.484903 25.6697 0.187988 24.9223 0.187988C24.1749 0.187988 23.4581 0.484903 22.9296 1.01341C22.4011 1.54193 22.1041 2.25874 22.1041 3.00617V4.41526H19.286V3.00617C19.286 2.25874 18.989 1.54193 18.4605 1.01341C17.932 0.484903 17.2152 0.187988 16.4678 0.187988C15.7203 0.187988 15.0035 0.484903 14.475 1.01341C13.9465 1.54193 13.6496 2.25874 13.6496 3.00617V4.41526H10.8314V3.00617C10.8314 2.25874 10.5345 1.54193 10.006 1.01341C9.47747 0.484903 8.76066 0.187988 8.01323 0.187988C7.2658 0.187988 6.54898 0.484903 6.02047 1.01341C5.49196 1.54193 5.19505 2.25874 5.19505 3.00617V4.41526H3.29136C2.67534 4.41601 2.08476 4.66105 1.64916 5.09665C1.21356 5.53224 0.968519 6.12283 0.967773 6.73885V28.8616C0.967773 29.4781 1.21249 30.0694 1.64817 30.5056C2.08384 30.9418 2.67485 31.1872 3.29136 31.188H29.6414C30.2579 31.188 30.8492 30.9433 31.2854 30.5076C31.7216 30.0719 31.967 29.4809 31.9678 28.8644V6.73885C31.967 6.12283 31.722 5.53224 31.2864 5.09665C30.8508 4.66105 30.2602 4.41601 29.6442 4.41526ZM23.5132 3.00617C23.5132 2.63246 23.6617 2.27405 23.9259 2.00979C24.1902 1.74554 24.5486 1.59708 24.9223 1.59708C25.296 1.59708 25.6544 1.74554 25.9187 2.00979C26.183 2.27405 26.3314 2.63246 26.3314 3.00617V4.41526H23.5132V3.00617ZM15.0587 3.00617C15.0587 2.63246 15.2071 2.27405 15.4714 2.00979C15.7357 1.74554 16.0941 1.59708 16.4678 1.59708C16.8415 1.59708 17.1999 1.74554 17.4642 2.00979C17.7284 2.27405 17.8769 2.63246 17.8769 3.00617V4.41526H15.0587V3.00617ZM6.60414 3.00617C6.60414 2.63246 6.75259 2.27405 7.01685 2.00979C7.28111 1.74554 7.63951 1.59708 8.01323 1.59708C8.38694 1.59708 8.74535 1.74554 9.00961 2.00979C9.27386 2.27405 9.42232 2.63246 9.42232 3.00617V4.41526H6.60414V3.00617ZM30.5587 28.8644C30.5583 29.1068 30.4618 29.3392 30.2904 29.5106C30.119 29.6821 29.8866 29.7785 29.6442 29.7789H3.29136C3.04894 29.7785 2.81655 29.6821 2.64513 29.5106C2.47371 29.3392 2.37724 29.1068 2.37686 28.8644V6.73885C2.37724 6.49643 2.47371 6.26404 2.64513 6.09261C2.81655 5.92119 3.04894 5.82472 3.29136 5.82435H9.42232C9.42232 6.19807 9.27386 6.55647 9.00961 6.82073C8.74535 7.08499 8.38694 7.23344 8.01323 7.23344C7.82637 7.23344 7.64717 7.30767 7.51504 7.4398C7.38291 7.57193 7.30868 7.75113 7.30868 7.93799C7.30868 8.12485 7.38291 8.30405 7.51504 8.43618C7.64717 8.56831 7.82637 8.64253 8.01323 8.64253C8.76066 8.64253 9.47747 8.34562 10.006 7.81711C10.5345 7.2886 10.8314 6.57178 10.8314 5.82435H17.8769C17.8769 6.19807 17.7284 6.55647 17.4642 6.82073C17.1999 7.08499 16.8415 7.23344 16.4678 7.23344C16.2809 7.23344 16.1017 7.30767 15.9696 7.4398C15.8375 7.57193 15.7632 7.75113 15.7632 7.93799C15.7632 8.12485 15.8375 8.30405 15.9696 8.43618C16.1017 8.56831 16.2809 8.64253 16.4678 8.64253C17.2152 8.64253 17.932 8.34562 18.4605 7.81711C18.989 7.2886 19.286 6.57178 19.286 5.82435H26.3314C26.3314 6.19807 26.183 6.55647 25.9187 6.82073C25.6544 7.08499 25.296 7.23344 24.9223 7.23344C24.7355 7.23344 24.5563 7.30767 24.4241 7.4398C24.292 7.57193 24.2178 7.75113 24.2178 7.93799C24.2178 8.12485 24.292 8.30405 24.4241 8.43618C24.5563 8.56831 24.7355 8.64253 24.9223 8.64253C25.6697 8.64253 26.3866 8.34562 26.9151 7.81711C27.4436 7.2886 27.7405 6.57178 27.7405 5.82435H29.6442C29.8866 5.82472 30.119 5.92119 30.2904 6.09261C30.4618 6.26404 30.5583 6.49643 30.5587 6.73885V28.8644Z" fill="white"/>
<path d="M27.1372 10.188H5.79833C5.31306 10.1887 4.84788 10.3812 4.50474 10.7233C4.16161 11.0654 3.96851 11.5291 3.96777 12.0129V26.3631C3.96851 26.8468 4.16161 27.3106 4.50474 27.6527C4.84788 27.9948 5.31306 28.1873 5.79833 28.188H27.1372C27.6225 28.1873 28.0877 27.9948 28.4308 27.6527C28.7739 27.3106 28.967 26.8468 28.9678 26.3631V12.0129C28.967 11.5291 28.7739 11.0654 28.4308 10.7233C28.0877 10.3812 27.6225 10.1887 27.1372 10.188ZM27.5789 26.3631C27.5785 26.4797 27.5319 26.5915 27.4491 26.674C27.3664 26.7565 27.2542 26.803 27.1372 26.8034H5.79833C5.6813 26.803 5.56918 26.7565 5.48643 26.674C5.40368 26.5915 5.35703 26.4797 5.35666 26.3631V12.0129C5.35703 11.8962 5.40368 11.7845 5.48643 11.702C5.56918 11.6195 5.6813 11.573 5.79833 11.5726H27.1372C27.2542 11.573 27.3664 11.6195 27.4491 11.702C27.5319 11.7845 27.5785 11.8962 27.5789 12.0129V26.3631Z" fill="white"/>
<path d="M22.9678 20.188C22.4381 20.1908 21.9308 20.4287 21.5563 20.8501C21.1817 21.2715 20.9702 21.8423 20.9678 22.4382V22.9378C20.9678 23.5346 21.1785 24.1069 21.5536 24.5289C21.9286 24.9509 22.4373 25.188 22.9678 25.188C23.4982 25.188 24.0069 24.9509 24.382 24.5289C24.7571 24.1069 24.9678 23.5346 24.9678 22.9378V22.4382C24.9653 21.8423 24.7538 21.2715 24.3793 20.8501C24.0047 20.4287 23.4975 20.1908 22.9678 20.188ZM23.6344 22.9378C23.6344 23.1367 23.5642 23.3275 23.4392 23.4681C23.3142 23.6088 23.1446 23.6878 22.9678 23.6878C22.791 23.6878 22.6214 23.6088 22.4964 23.4681C22.3713 23.3275 22.3011 23.1367 22.3011 22.9378V22.4382C22.3011 22.2393 22.3713 22.0485 22.4964 21.9078C22.6214 21.7672 22.791 21.6881 22.9678 21.6881C23.1446 21.6881 23.3142 21.7672 23.4392 21.9078C23.5642 22.0485 23.6344 22.2393 23.6344 22.4382V22.9378Z" fill="white"/>
<path d="M15.9678 20.188C15.4381 20.1908 14.9308 20.4287 14.5563 20.8501C14.1817 21.2715 13.9702 21.8423 13.9678 22.4382V22.9378C13.9678 23.5346 14.1785 24.1069 14.5536 24.5289C14.9286 24.9509 15.4373 25.188 15.9678 25.188C16.4982 25.188 17.0069 24.9509 17.382 24.5289C17.7571 24.1069 17.9678 23.5346 17.9678 22.9378V22.4382C17.9653 21.8423 17.7538 21.2715 17.3793 20.8501C17.0047 20.4287 16.4975 20.1908 15.9678 20.188ZM16.6344 22.9378C16.6344 23.1367 16.5642 23.3275 16.4392 23.4681C16.3142 23.6088 16.1446 23.6878 15.9678 23.6878C15.791 23.6878 15.6214 23.6088 15.4964 23.4681C15.3713 23.3275 15.3011 23.1367 15.3011 22.9378V22.4382C15.3011 22.2393 15.3713 22.0485 15.4964 21.9078C15.6214 21.7672 15.791 21.6881 15.9678 21.6881C16.1446 21.6881 16.3142 21.7672 16.4392 21.9078C16.5642 22.0485 16.6344 22.2393 16.6344 22.4382V22.9378Z" fill="white"/>
<path d="M8.96777 20.188C8.4381 20.1908 7.93081 20.4287 7.55627 20.8501C7.18173 21.2715 6.97023 21.8423 6.96777 22.4382V22.9378C6.96777 23.5346 7.17849 24.1069 7.55356 24.5289C7.92863 24.9509 8.43734 25.188 8.96777 25.188C9.49821 25.188 10.0069 24.9509 10.382 24.5289C10.7571 24.1069 10.9678 23.5346 10.9678 22.9378V22.4382C10.9653 21.8423 10.7538 21.2715 10.3793 20.8501C10.0047 20.4287 9.49745 20.1908 8.96777 20.188ZM9.63444 22.9378C9.63444 23.1367 9.5642 23.3275 9.43918 23.4681C9.31415 23.6088 9.14458 23.6878 8.96777 23.6878C8.79096 23.6878 8.62139 23.6088 8.49637 23.4681C8.37134 23.3275 8.30111 23.1367 8.30111 22.9378V22.4382C8.30111 22.2393 8.37134 22.0485 8.49637 21.9078C8.62139 21.7672 8.79096 21.6881 8.96777 21.6881C9.14458 21.6881 9.31415 21.7672 9.43918 21.9078C9.5642 22.0485 9.63444 22.2393 9.63444 22.4382V22.9378Z" fill="white"/>
<path d="M22.9678 13.188C22.4381 13.1908 21.9308 13.4287 21.5563 13.8501C21.1817 14.2715 20.9702 14.8423 20.9678 15.4382V15.9378C20.9678 16.5346 21.1785 17.1069 21.5536 17.5289C21.9286 17.9509 22.4373 18.188 22.9678 18.188C23.4982 18.188 24.0069 17.9509 24.382 17.5289C24.7571 17.1069 24.9678 16.5346 24.9678 15.9378V15.4382C24.9653 14.8423 24.7538 14.2715 24.3793 13.8501C24.0047 13.4287 23.4975 13.1908 22.9678 13.188ZM23.6344 15.9378C23.6344 16.1367 23.5642 16.3275 23.4392 16.4681C23.3142 16.6088 23.1446 16.6878 22.9678 16.6878C22.791 16.6878 22.6214 16.6088 22.4964 16.4681C22.3713 16.3275 22.3011 16.1367 22.3011 15.9378V15.4382C22.3011 15.2393 22.3713 15.0485 22.4964 14.9078C22.6214 14.7672 22.791 14.6881 22.9678 14.6881C23.1446 14.6881 23.3142 14.7672 23.4392 14.9078C23.5642 15.0485 23.6344 15.2393 23.6344 15.4382V15.9378Z" fill="white"/>
<path d="M15.9678 13.188C15.4381 13.1908 14.9308 13.4287 14.5563 13.8501C14.1817 14.2715 13.9702 14.8423 13.9678 15.4382V15.9378C13.9678 16.5346 14.1785 17.1069 14.5536 17.5289C14.9286 17.9509 15.4373 18.188 15.9678 18.188C16.4982 18.188 17.0069 17.9509 17.382 17.5289C17.7571 17.1069 17.9678 16.5346 17.9678 15.9378V15.4382C17.9653 14.8423 17.7538 14.2715 17.3793 13.8501C17.0047 13.4287 16.4975 13.1908 15.9678 13.188ZM16.6344 15.9378C16.6344 16.1367 16.5642 16.3275 16.4392 16.4681C16.3142 16.6088 16.1446 16.6878 15.9678 16.6878C15.791 16.6878 15.6214 16.6088 15.4964 16.4681C15.3713 16.3275 15.3011 16.1367 15.3011 15.9378V15.4382C15.3011 15.2393 15.3713 15.0485 15.4964 14.9078C15.6214 14.7672 15.791 14.6881 15.9678 14.6881C16.1446 14.6881 16.3142 14.7672 16.4392 14.9078C16.5642 15.0485 16.6344 15.2393 16.6344 15.4382V15.9378Z" fill="white"/>
<path d="M8.96777 13.188C8.4381 13.1908 7.93081 13.4287 7.55627 13.8501C7.18173 14.2715 6.97023 14.8423 6.96777 15.4382V15.9378C6.96777 16.5346 7.17849 17.1069 7.55356 17.5289C7.92863 17.9509 8.43734 18.188 8.96777 18.188C9.49821 18.188 10.0069 17.9509 10.382 17.5289C10.7571 17.1069 10.9678 16.5346 10.9678 15.9378V15.4382C10.9653 14.8423 10.7538 14.2715 10.3793 13.8501C10.0047 13.4287 9.49745 13.1908 8.96777 13.188ZM9.63444 15.9378C9.63444 16.1367 9.5642 16.3275 9.43918 16.4681C9.31415 16.6088 9.14458 16.6878 8.96777 16.6878C8.79096 16.6878 8.62139 16.6088 8.49637 16.4681C8.37134 16.3275 8.30111 16.1367 8.30111 15.9378V15.4382C8.30111 15.2393 8.37134 15.0485 8.49637 14.9078C8.62139 14.7672 8.79096 14.6881 8.96777 14.6881C9.14458 14.6881 9.31415 14.7672 9.43918 14.9078C9.5642 15.0485 9.63444 15.2393 9.63444 15.4382V15.9378Z" fill="white"/>
</svg>
