<svg width="48" height="49" viewBox="0 0 48 49" fill="none" xmlns="http://www.w3.org/2000/svg">
<path d="M44.9002 24.8074C44.8704 23.6001 44.7813 22.373 44.5137 21.1953C44.0777 19.2953 43.0471 17.7318 41.0851 17.1083C38.9347 16.4255 37.0123 17.0687 35.2782 18.4047C35.189 18.4739 35.1097 18.6125 35.1097 18.7115C35.0998 20.0375 35.0998 21.3537 35.0998 22.6698C35.734 22.5412 36.2989 22.373 36.8736 22.3235C37.6465 22.2542 38.3699 22.4125 38.8158 23.1448C39.2617 23.8672 39.5392 24.6688 39.5491 25.51C39.5788 28.746 39.5788 31.9819 39.5491 35.208C39.5392 36.633 38.7861 37.5831 37.4582 38.0383C37.3492 38.0779 37.1907 38.2362 37.1907 38.3352C37.1808 39.9284 37.2006 41.5217 37.2105 43.1149C37.2105 43.3821 37.3195 43.5008 37.6168 43.5008C40.441 43.5305 43.275 41.581 44.2561 38.8992C44.9299 37.0586 45.0092 35.1388 44.9993 33.209C44.9794 30.4283 44.9794 27.6178 44.9002 24.8074ZM39.3113 10.3494C40.6887 10.2009 42.076 10.0426 43.4534 9.89415C43.6813 9.87435 43.8002 9.81498 43.8002 9.55768C43.7903 7.95454 43.8002 6.34149 43.8002 4.65918C41.5508 4.91647 39.3807 5.15398 37.2204 5.41127C34.7431 5.69826 32.3153 6.00503 29.8379 6.27222C29.7587 7.29151 29.6794 8.36027 29.61 9.39935C29.5704 10.0525 29.5407 10.7056 29.5109 11.3983C30.8883 11.2499 32.2063 11.1113 33.5242 10.9728C35.4566 10.765 37.3889 10.5572 39.3113 10.3494ZM33.8215 26.8064C33.8909 24.0454 33.9503 21.2844 34.0296 18.5333C34.0692 16.9599 34.1386 15.3864 34.1782 13.8031C34.1882 13.3379 34.1782 12.8728 34.1782 12.3879C33.9503 12.3879 33.7918 12.378 33.6431 12.3879C32.4144 12.4473 31.1856 12.5364 29.947 12.5661C29.5109 12.576 29.4118 12.7442 29.4019 13.1202C29.3821 13.9911 29.3425 14.852 29.3128 15.7229C29.1839 19.137 29.0551 22.561 28.9362 25.9751C28.9164 26.4303 28.9362 26.8855 28.9362 27.4199C30.5019 27.3704 31.9982 27.3209 33.5044 27.2715C33.8215 27.2616 33.8116 27.0439 33.8215 26.8064ZM35.734 37.9888C34.5548 37.8601 33.9404 36.7221 33.9008 35.6138C33.8512 34.2778 33.8215 32.932 33.8017 31.596C33.8017 31.2595 33.7026 31.121 33.336 31.1309C32.0279 31.1705 30.71 31.2002 29.392 31.2101C29.0353 31.2101 28.9758 31.3585 28.9857 31.6653C29.0056 32.5163 28.9957 33.3674 29.0254 34.2184C29.065 35.5247 29.0155 36.8508 29.2236 38.1372C29.4911 39.78 30.2938 41.2347 31.691 42.1946C32.9297 43.0456 34.3863 43.3821 35.9818 43.5701C35.9818 41.7493 35.9818 40.0076 35.9718 38.256C35.9818 38.1669 35.8331 37.9987 35.734 37.9888ZM9.93007 34.2184C8.02747 34.1393 7.46264 33.5356 7.423 31.6257C7.39327 30.171 7.423 28.7163 7.39327 27.2616C7.38336 26.648 7.314 26.0246 7.26445 25.4011H3.04307C3.04307 27.6574 2.93406 29.8246 3.06289 31.9819C3.34035 36.4054 5.70868 38.8893 9.87061 39.394C10.4553 39.4633 10.6733 39.305 10.6534 38.7211C10.6237 37.4643 10.6336 36.1976 10.6534 34.9408C10.6634 34.3966 10.4553 34.2382 9.93007 34.2184ZM3.01334 23.7287H7.28427C7.28427 22.462 7.26445 21.2547 7.28427 20.0474C7.33382 17.5833 8.02747 16.8213 10.4553 16.5244C10.5048 16.5145 10.5444 16.4651 10.6435 16.4057V12.378C7.75001 12.0515 4.56911 14.0801 3.52863 16.9005C2.69624 19.1271 3.13225 21.4328 3.01334 23.7287ZM20.5331 18.5432C20.543 19.4438 20.543 20.3542 20.5529 21.2547C20.5529 21.8683 20.5529 22.4818 20.5529 23.0855H25.4085C25.4085 20.9974 25.4977 19.0182 25.3787 17.0588C25.2796 15.3072 24.4274 13.8723 22.9113 12.9025C21.3555 11.903 19.6214 11.7546 17.8377 11.903C17.6693 11.9129 17.4017 12.1801 17.3918 12.3384C17.3522 13.615 17.372 14.9015 17.372 16.2177C17.7485 16.2375 18.0161 16.2573 18.2836 16.2671C19.9088 16.3265 20.5133 16.9302 20.5331 18.5432ZM11.5354 43.6592H16.3513V7.57849C14.6965 7.75662 13.1209 7.92485 11.5354 8.09308V43.6592ZM25.4481 24.8074C24.0311 24.8074 22.723 24.8272 21.415 24.7975C20.8006 24.7777 20.6024 24.9954 20.6024 25.6089C20.6223 27.3407 20.5628 29.0626 20.5727 30.7944C20.5826 33.0012 19.7304 34.1986 17.6197 34.4065C17.5504 34.4163 17.481 34.4757 17.4215 34.5054V39.018C21.5736 39.2456 24.2293 37.0388 25.0716 33.8424C25.8742 30.8736 25.2697 27.8553 25.4481 24.8074Z" fill="white"/>
</svg>
