<svg width="38" height="38" viewBox="0 0 38 38" fill="none" xmlns="http://www.w3.org/2000/svg">
<path d="M37.2611 30.2161L33.0485 27.4074L29.3035 24.9112C28.5808 24.4304 27.6095 24.588 27.076 25.2729L24.7587 28.2519C24.2609 28.8984 23.3654 29.0841 22.6516 28.6889C21.0793 27.8143 19.2199 26.9907 15.1173 22.8829C11.0147 18.775 10.1859 16.9209 9.31124 15.3485C8.91604 14.6347 9.1018 13.7392 9.74824 13.2415L12.7273 10.9242C13.4121 10.3907 13.5698 9.41944 13.0889 8.69663L10.6694 5.067L7.78407 0.738915C7.29297 0.00222807 6.30989 -0.218941 5.55064 0.236385L2.22302 2.2327C1.32373 2.76254 0.662674 3.61812 0.376788 4.62207C-0.533194 7.93983 -0.716659 15.2587 11.0127 26.9881C22.742 38.7175 30.0602 38.5334 33.3779 37.6233C34.3819 37.3375 35.2374 36.6765 35.7673 35.7771L37.7636 32.4495C38.219 31.6902 37.9978 30.7072 37.2611 30.2161Z" fill="#FBBB4E"/>
<path d="M20.6002 6.19999C26.2309 6.20624 30.7939 10.7692 30.8002 16.4C30.8002 16.7313 31.0688 17 31.4002 17C31.7316 17 32.0002 16.7314 32.0002 16.4C31.9933 10.1068 26.8934 5.00693 20.6003 5C20.2689 5 20.0002 5.26861 20.0002 5.60003C20.0002 5.93131 20.2688 6.19999 20.6002 6.19999Z" fill="#FBBB4E"/>
<path d="M20.6431 9.28577C24.5467 9.29035 27.7099 12.4536 27.7145 16.3571C27.7145 16.7121 28.0023 17 28.3574 17C28.7124 17 29.0002 16.7122 29.0002 16.3571C28.9949 11.7438 25.2565 8.00532 20.6431 8C20.2881 8 20.0002 8.2878 20.0002 8.64288C20.0002 8.99797 20.288 9.28577 20.6431 9.28577Z" fill="#FBBB4E"/>
<path d="M20.5002 13C21.8803 13.0016 22.9986 14.1199 23.0002 15.5C23.0002 15.7761 23.224 16 23.5002 16C23.7763 16 24.0002 15.7762 24.0002 15.5C23.998 13.5679 22.4323 12.0022 20.5003 12C20.2241 12 20.0002 12.2238 20.0002 12.5C20.0002 12.7761 20.224 13 20.5002 13Z" fill="#FBBB4E"/>
</svg>
