<svg width="161" height="36" viewBox="0 0 161 36" fill="none" xmlns="http://www.w3.org/2000/svg">
<path d="M16.5064 3.66045C16.8058 2.73914 18.1092 2.73914 18.4085 3.66045L21.1518 12.1032C21.2856 12.5152 21.6696 12.7942 22.1028 12.7942H30.98C31.9488 12.7942 32.3516 14.0338 31.5678 14.6032L24.386 19.8211C24.0355 20.0758 23.8888 20.5271 24.0227 20.9392L26.7659 29.3819C27.0653 30.3032 26.0108 31.0694 25.2271 30.5L18.0453 25.282C17.6948 25.0274 17.2202 25.0274 16.8697 25.282L9.68785 30.5C8.90414 31.0694 7.84966 30.3032 8.14901 29.3819L10.8922 20.9392C11.0261 20.5271 10.8794 20.0758 10.529 19.8211L3.34712 14.6032C2.5634 14.0338 2.96618 12.7942 3.9349 12.7942H12.8121C13.2454 12.7942 13.6293 12.5152 13.7632 12.1032L16.5064 3.66045Z" fill="#FFCC5C"/>
<path d="M47.7794 3.66045C48.0787 2.73914 49.3821 2.73914 49.6815 3.66045L52.4247 12.1032C52.5586 12.5152 52.9425 12.7942 53.3758 12.7942H62.253C63.2217 12.7942 63.6245 14.0338 62.8408 14.6032L55.6589 19.8211C55.3085 20.0758 55.1618 20.5271 55.2957 20.9392L58.0389 29.3819C58.3382 30.3032 57.2838 31.0694 56.5 30.5L49.3182 25.282C48.9677 25.0274 48.4931 25.0274 48.1426 25.282L40.9608 30.5C40.1771 31.0694 39.1226 30.3032 39.422 29.3819L42.1652 20.9392C42.299 20.5271 42.1524 20.0758 41.8019 19.8211L34.6201 14.6032C33.8364 14.0338 34.2391 12.7942 35.2078 12.7942H44.0851C44.5183 12.7942 44.9023 12.5152 45.0361 12.1032L47.7794 3.66045Z" fill="#FFCC5C"/>
<path d="M79.0518 3.66045C79.3512 2.73914 80.6546 2.73914 80.9539 3.66045L83.6972 12.1032C83.831 12.5152 84.215 12.7942 84.6482 12.7942H93.5255C94.4942 12.7942 94.897 14.0338 94.1132 14.6032L86.9314 19.8211C86.5809 20.0758 86.4343 20.5271 86.5681 20.9392L89.3114 29.3819C89.6107 30.3032 88.5562 31.0694 87.7725 30.5L80.5907 25.282C80.2402 25.0274 79.7656 25.0274 79.4151 25.282L72.2333 30.5C71.4495 31.0694 70.3951 30.3032 70.6944 29.3819L73.4376 20.9392C73.5715 20.5271 73.4249 20.0758 73.0744 19.8211L65.8925 14.6032C65.1088 14.0338 65.5116 12.7942 66.4803 12.7942H75.3576C75.7908 12.7942 76.1747 12.5152 76.3086 12.1032L79.0518 3.66045Z" fill="#FFCC5C"/>
<path d="M110.325 3.66045C110.624 2.73914 111.928 2.73914 112.227 3.66045L114.97 12.1032C115.104 12.5152 115.488 12.7942 115.921 12.7942H124.798C125.767 12.7942 126.17 14.0338 125.386 14.6032L118.204 19.8211C117.854 20.0758 117.707 20.5271 117.841 20.9392L120.584 29.3819C120.884 30.3032 119.829 31.0694 119.045 30.5L111.864 25.282C111.513 25.0274 111.039 25.0274 110.688 25.282L103.506 30.5C102.722 31.0694 101.668 30.3032 101.967 29.3819L104.711 20.9392C104.844 20.5271 104.698 20.0758 104.347 19.8211L97.1655 14.6032C96.3818 14.0338 96.7845 12.7942 97.7533 12.7942H106.631C107.064 12.7942 107.448 12.5152 107.582 12.1032L110.325 3.66045Z" fill="#FFCC5C"/>
<path d="M141.597 3.66045C141.897 2.73914 143.2 2.73914 143.499 3.66045L146.243 12.1032C146.376 12.5152 146.76 12.7942 147.194 12.7942H156.071C157.04 12.7942 157.442 14.0338 156.659 14.6032L149.477 19.8211C149.126 20.0758 148.98 20.5271 149.114 20.9392L151.857 29.3819C152.156 30.3032 151.102 31.0694 150.318 30.5L143.136 25.282C142.786 25.0274 142.311 25.0274 141.961 25.282L134.779 30.5C133.995 31.0694 132.94 30.3032 133.24 29.3819L135.983 20.9392C136.117 20.5271 135.97 20.0758 135.62 19.8211L128.438 14.6032C127.654 14.0338 128.057 12.7942 129.026 12.7942H137.903C138.336 12.7942 138.72 12.5152 138.854 12.1032L141.597 3.66045Z" fill="#FFCC5C"/>
</svg>
