<svg width="540" height="540" viewBox="0 0 540 540" fill="none" xmlns="http://www.w3.org/2000/svg">
<path d="M51.3674 145.865C50.3529 147.413 49.1363 148.757 47.7176 149.898C46.2923 151.006 44.9293 151.721 43.6288 152.041L42.0581 149.444C43.2744 149.125 44.5051 148.506 45.7501 147.587C46.9885 146.636 48.0315 145.514 48.8791 144.22C49.9963 142.515 50.548 141.055 50.5343 139.838C50.501 138.608 50.0062 137.678 49.0499 137.046C48.3473 136.581 47.6272 136.443 46.8897 136.629C46.1454 136.783 45.4315 137.126 44.7478 137.657C44.077 138.169 43.1907 138.945 42.0889 139.987C40.7036 141.29 39.5109 142.299 38.5109 143.014C37.5236 143.71 36.4247 144.149 35.2141 144.332C33.9968 144.483 32.7344 144.126 31.4268 143.262C30.3339 142.54 29.5345 141.605 29.0287 140.456C28.5357 139.288 28.411 137.942 28.6546 136.417C28.8982 134.893 29.5914 133.259 30.7343 131.515C31.5305 130.3 32.47 129.208 33.5528 128.238C34.6356 127.268 35.7458 126.556 36.8835 126.1L38.5898 128.618C37.4783 129.119 36.4649 129.769 35.5495 130.568C34.6147 131.355 33.8391 132.218 33.2227 133.159C32.1311 134.825 31.6117 136.279 31.6646 137.522C31.7302 138.745 32.2412 139.672 33.1975 140.304C33.9001 140.768 34.6299 140.913 35.387 140.74C36.1245 140.553 36.8449 140.2 37.5481 139.682C38.2446 139.131 39.1211 138.349 40.1777 137.334C41.563 136.03 42.7493 135.031 43.7365 134.335C44.7237 133.639 45.8162 133.21 47.014 133.047C48.2246 132.864 49.4739 133.198 50.762 134.049C51.8354 134.758 52.6283 135.703 53.1408 136.884C53.6338 138.053 53.7521 139.409 53.4957 140.952C53.2198 142.483 52.5103 144.12 51.3674 145.865Z" fill="black"/>
<path d="M67.3553 123.514C65.351 126.109 63.052 127.555 60.4583 127.851C57.8647 128.147 55.1833 127.216 52.414 125.06L41.3925 116.477L43.54 113.696L54.4508 122.193C58.6046 125.428 62.0918 125.219 64.9122 121.567C66.2866 119.787 66.8312 118.029 66.546 116.293C66.2423 114.542 65.0382 112.847 62.9335 111.209L52.0228 102.712L54.1059 100.014L65.1274 108.597C67.9151 110.768 69.489 113.152 69.8492 115.748C70.191 118.33 69.3597 120.918 67.3553 123.514Z" fill="black"/>
<path d="M65.7771 86.9325C67.9204 84.5772 70.1672 83.2384 72.5174 82.9162C74.8677 82.5939 77.0258 83.3349 78.992 85.1389C80.9581 86.943 81.887 89.0348 81.7788 91.4144C81.6706 93.7939 80.5449 96.1613 78.4016 98.5167L74.3121 103.011L79.7965 108.043L77.4326 110.641L59.3237 94.0246L65.7771 86.9325ZM76.08 96.5294C77.5772 94.8841 78.3748 93.312 78.4729 91.813C78.5538 90.2983 77.9388 88.9395 76.6281 87.7368C75.3173 86.5341 73.923 86.0492 72.4452 86.2821C70.9501 86.4992 69.454 87.4304 67.9569 89.0757L63.9383 93.492L72.0614 100.946L76.08 96.5294Z" fill="black"/>
<path d="M108.634 62.3564C109.972 61.7228 111.294 61.5371 112.6 61.7993C113.891 62.0437 115.055 62.7696 116.094 63.9769C117.483 65.5926 117.942 67.3644 117.471 69.2925C117.017 71.2053 115.632 73.1661 113.316 75.175L104.458 82.8579L88.4232 64.2158L96.7506 56.993C98.8722 55.1528 100.874 54.1604 102.756 54.0158C104.656 53.8559 106.255 54.5305 107.553 56.0396C108.393 57.0161 108.889 58.0588 109.04 59.1677C109.209 60.2612 109.073 61.3241 108.634 62.3564ZM92.9307 64.0727L98.0618 70.0382L103.498 65.3226C104.86 64.1418 105.689 62.9885 105.986 61.8626C106.286 60.7037 106.016 59.6359 105.176 58.6595C104.336 57.683 103.331 57.2682 102.161 57.4152C100.993 57.529 99.7287 58.1764 98.3674 59.3572L92.9307 64.0727ZM111.354 73.1099C112.857 71.8064 113.775 70.5764 114.107 69.4198C114.44 68.2633 114.148 67.1524 113.232 66.0871C111.445 64.0099 109.04 64.2824 106.017 66.9047L99.9172 72.1953L105.254 78.4005L111.354 73.1099Z" fill="black"/>
<path d="M137.934 55.8941L129.172 53.0553C128.678 53.4885 128.282 53.8181 127.983 54.0442L123.144 57.7111L127.64 63.6944L124.843 65.8141L110.067 46.1507L117.704 40.3641C120.24 38.4423 122.693 37.5389 125.062 37.654C127.431 37.769 129.418 38.894 131.022 41.0288C132.162 42.5457 132.76 44.1205 132.816 45.7532C132.872 47.3859 132.393 48.9685 131.379 50.5011L140.983 53.5837L137.934 55.8941ZM126.105 51.7201C127.877 50.3776 128.94 48.9692 129.296 47.4949C129.651 46.0205 129.294 44.5717 128.225 43.1485C127.156 41.7252 125.873 40.9923 124.378 40.9498C122.868 40.8885 121.228 41.5291 119.456 42.8716L114.701 46.4749L121.35 55.3235L126.105 51.7201Z" fill="black"/>
<path d="M155.747 48.3696C153.679 49.7381 151.521 50.5206 149.271 50.717C147.009 50.8938 144.873 50.4953 142.863 49.5218C140.872 48.5353 139.227 47.0528 137.929 45.0744C136.63 43.096 135.922 40.9938 135.804 38.7679C135.706 36.529 136.19 34.4104 137.256 32.4119C138.31 30.3938 139.871 28.7005 141.938 27.332C143.987 25.9763 146.142 25.2101 148.404 25.0333C150.654 24.837 152.774 25.232 154.764 26.2185C156.742 27.1855 158.387 28.6679 159.698 30.6659C161.009 32.6639 161.724 34.7758 161.842 37.0018C161.947 39.2081 161.473 41.3204 160.419 43.3384C159.352 45.3369 157.795 47.0139 155.747 48.3696ZM154.03 45.7546C155.532 44.7604 156.653 43.5268 157.393 42.0537C158.153 40.5676 158.482 39.0012 158.38 37.3544C158.285 35.6752 157.749 34.0912 156.772 32.6025C155.795 31.1138 154.563 30.0044 153.077 29.2744C151.597 28.5118 150.027 28.1879 148.368 28.3028C146.728 28.4048 145.157 28.9529 143.655 29.947C142.153 30.9411 141.012 32.1877 140.234 33.6866C139.474 35.1727 139.142 36.7554 139.237 38.4346C139.338 40.0814 139.878 41.6491 140.855 43.1378C141.832 44.6265 143.06 45.7521 144.54 46.5147C146.027 47.2448 147.6 47.5524 149.259 47.4375C150.938 47.3097 152.528 46.7487 154.03 45.7546Z" fill="black"/>
<path d="M488.633 394.135C489.647 392.587 490.864 391.242 492.282 390.102C493.708 388.993 495.071 388.279 496.371 387.959L497.942 390.555C496.726 390.875 495.495 391.494 494.25 392.413C493.011 393.364 491.968 394.486 491.121 395.779C490.004 397.484 489.452 398.945 489.466 400.162C489.499 401.391 489.994 402.322 490.95 402.954C491.653 403.418 492.373 403.557 493.11 403.37C493.855 403.216 494.569 402.874 495.252 402.342C495.923 401.831 496.809 401.054 497.911 400.013C499.296 398.71 500.489 397.701 501.489 396.985C502.476 396.29 503.575 395.85 504.786 395.667C506.003 395.517 507.266 395.874 508.573 396.738C509.666 397.46 510.465 398.395 510.971 399.544C511.464 400.712 511.589 402.058 511.345 403.582C511.102 405.106 510.409 406.741 509.266 408.485C508.469 409.7 507.53 410.792 506.447 411.762C505.364 412.731 504.254 413.444 503.117 413.9L501.41 411.382C502.522 410.881 503.535 410.231 504.45 409.431C505.385 408.645 506.161 407.781 506.777 406.841C507.869 405.175 508.388 403.721 508.335 402.478C508.27 401.255 507.759 400.328 506.803 399.696C506.1 399.232 505.37 399.086 504.613 399.26C503.875 399.447 503.155 399.799 502.452 400.318C501.755 400.868 500.879 401.651 499.822 402.666C498.437 403.969 497.251 404.969 496.263 405.665C495.276 406.36 494.184 406.79 492.986 406.953C491.775 407.136 490.526 406.802 489.238 405.951C488.165 405.242 487.372 404.297 486.859 403.115C486.366 401.947 486.248 400.591 486.504 399.048C486.78 397.517 487.49 395.879 488.633 394.135Z" fill="black"/>
<path d="M472.645 416.486C474.649 413.89 476.948 412.445 479.542 412.149C482.135 411.853 484.817 412.783 487.586 414.94L498.607 423.523L496.46 426.304L485.549 417.807C481.395 414.572 477.908 414.781 475.088 418.433C473.713 420.213 473.169 421.971 473.454 423.707C473.758 425.458 474.962 427.152 477.066 428.791L487.977 437.288L485.894 439.985L474.873 431.402C472.085 429.231 470.511 426.848 470.151 424.252C469.809 421.67 470.64 419.081 472.645 416.486Z" fill="black"/>
<path d="M474.223 453.067C472.08 455.423 469.833 456.761 467.483 457.084C465.132 457.406 462.974 456.665 461.008 454.861C459.042 453.057 458.113 450.965 458.221 448.585C458.329 446.206 459.455 443.838 461.598 441.483L465.688 436.989L460.203 431.956L462.567 429.359L480.676 445.975L474.223 453.067ZM463.92 443.47C462.423 445.116 461.625 446.688 461.527 448.187C461.446 449.702 462.061 451.06 463.372 452.263C464.683 453.466 466.077 453.951 467.555 453.718C469.05 453.501 470.546 452.569 472.043 450.924L476.062 446.508L467.939 439.054L463.92 443.47Z" fill="black"/>
<path d="M431.366 477.643C430.028 478.277 428.706 478.463 427.4 478.201C426.109 477.956 424.945 477.23 423.906 476.023C422.517 474.407 422.057 472.635 422.529 470.707C422.983 468.794 424.368 466.834 426.684 464.825L435.542 457.142L451.577 475.784L443.249 483.007C441.128 484.847 439.126 485.839 437.244 485.984C435.344 486.144 433.745 485.469 432.447 483.96C431.607 482.984 431.111 481.941 430.96 480.832C430.791 479.739 430.927 478.676 431.366 477.643ZM447.069 475.927L441.938 469.962L436.502 474.677C435.14 475.858 434.311 477.011 434.014 478.137C433.714 479.296 433.984 480.364 434.824 481.34C435.664 482.317 436.669 482.732 437.839 482.585C439.007 482.471 440.271 481.823 441.633 480.643L447.069 475.927ZM428.646 466.89C427.143 468.193 426.225 469.423 425.893 470.58C425.56 471.736 425.852 472.847 426.768 473.913C428.555 475.99 430.96 475.717 433.983 473.095L440.083 467.804L434.745 461.599L428.646 466.89Z" fill="black"/>
<path d="M402.066 484.106L410.828 486.944C411.322 486.511 411.718 486.182 412.017 485.956L416.856 482.289L412.36 476.305L415.157 474.186L429.933 493.849L422.296 499.636C419.76 501.557 417.307 502.461 414.938 502.346C412.569 502.231 410.582 501.106 408.978 498.971C407.838 497.454 407.24 495.879 407.184 494.247C407.128 492.614 407.607 491.031 408.621 489.499L399.017 486.416L402.066 484.106ZM413.895 488.28C412.123 489.622 411.06 491.031 410.704 492.505C410.349 493.979 410.706 495.428 411.775 496.851C412.844 498.275 414.127 499.007 415.622 499.05C417.132 499.111 418.772 498.471 420.544 497.128L425.299 493.525L418.65 484.676L413.895 488.28Z" fill="black"/>
<path d="M384.253 491.63C386.321 490.262 388.479 489.479 390.729 489.283C392.991 489.106 395.127 489.504 397.137 490.478C399.128 491.465 400.773 492.947 402.071 494.925C403.37 496.904 404.078 499.006 404.196 501.232C404.294 503.471 403.81 505.589 402.744 507.588C401.69 509.606 400.129 511.299 398.062 512.668C396.013 514.023 393.858 514.79 391.596 514.966C389.346 515.163 387.226 514.768 385.236 513.781C383.258 512.814 381.613 511.332 380.302 509.334C378.991 507.336 378.276 505.224 378.158 502.998C378.053 500.792 378.527 498.679 379.581 496.661C380.648 494.663 382.205 492.986 384.253 491.63ZM385.97 494.245C384.468 495.239 383.347 496.473 382.607 497.946C381.847 499.432 381.518 500.999 381.62 502.645C381.715 504.325 382.251 505.909 383.228 507.397C384.205 508.886 385.437 509.995 386.923 510.725C388.403 511.488 389.973 511.812 391.632 511.697C393.272 511.595 394.843 511.047 396.345 510.053C397.847 509.059 398.988 507.812 399.766 506.313C400.526 504.827 400.858 503.244 400.763 501.565C400.662 499.918 400.122 498.351 399.145 496.862C398.168 495.373 396.94 494.248 395.46 493.485C393.973 492.755 392.4 492.447 390.741 492.562C389.062 492.69 387.472 493.251 385.97 494.245Z" fill="black"/>
<path d="M31.3277 337.607C31.7005 339.422 31.787 341.237 31.5871 343.051C31.3596 344.847 30.8988 346.319 30.2047 347.469L27.2657 346.749C27.9006 345.659 28.3349 344.347 28.5685 342.814C28.7746 341.262 28.7219 339.728 28.4104 338.211C27.9998 336.212 27.3612 334.788 26.4947 333.937C25.6054 333.091 24.6001 332.785 23.479 333.017C22.6553 333.187 22.0484 333.601 21.6583 334.256C21.2406 334.894 20.977 335.643 20.8676 336.504C20.7535 337.342 20.6735 338.52 20.6277 340.039C20.5658 341.944 20.4331 343.505 20.2296 344.721C20.0214 345.914 19.5537 347.005 18.8266 347.994C18.0718 348.964 16.9279 349.609 15.3949 349.926C14.1136 350.191 12.8897 350.098 11.7232 349.645C10.552 349.169 9.51591 348.305 8.61495 347.055C7.714 345.804 7.0535 344.156 6.63346 342.111C6.34085 340.687 6.236 339.247 6.31891 337.793C6.40183 336.338 6.68503 335.046 7.16851 333.916L10.1478 334.485C9.71481 335.628 9.45613 336.808 9.37178 338.023C9.26455 339.243 9.32421 340.404 9.55075 341.507C9.95191 343.46 10.6086 344.857 11.5209 345.698C12.4284 346.516 13.4427 346.809 14.5639 346.577C15.3876 346.406 16.0059 345.991 16.4189 345.33C16.809 344.675 17.0702 343.914 17.2025 343.048C17.3071 342.164 17.3757 340.988 17.4081 339.52C17.47 337.615 17.605 336.066 17.8132 334.873C18.0214 333.68 18.4915 332.601 19.2233 331.635C19.9505 330.646 21.0691 329.995 22.5793 329.682C23.8377 329.421 25.064 329.526 26.2581 329.998C27.4293 330.474 28.4677 331.349 29.3734 332.622C30.2562 333.901 30.9076 335.562 31.3277 337.607Z" fill="black"/>
<path d="M26.8944 310.45C27.3047 313.709 26.697 316.363 25.0714 318.414C23.4457 320.465 20.8946 321.711 17.4179 322.153L3.58075 323.91L3.14114 320.418L16.8392 318.679C22.0542 318.017 24.3731 315.393 23.7957 310.808C23.5144 308.574 22.6616 306.944 21.2373 305.919C19.7899 304.897 17.7451 304.553 15.1028 304.889L1.40471 306.628L0.978293 303.242L14.8154 301.485C18.3153 301.04 21.1066 301.608 23.1894 303.188C25.2491 304.771 26.4841 307.192 26.8944 310.45Z" fill="black"/>
<path d="M0.0194457 285.704C-0.123582 282.517 0.522395 279.975 1.95738 278.078C3.39236 276.181 5.44016 275.173 8.10077 275.052C10.7614 274.932 12.8912 275.751 14.4902 277.511C16.0893 279.27 16.9603 281.743 17.1034 284.931L17.3763 291.013L24.798 290.677L24.9557 294.192L0.450107 295.301L0.0194457 285.704ZM14.0624 285.174C13.9625 282.948 13.4195 281.27 12.4333 280.14C11.4239 279.012 10.0323 278.487 8.25852 278.568C6.48478 278.648 5.15743 279.295 4.27646 280.509C3.37216 281.724 2.96997 283.445 3.06988 285.672L3.33805 291.648L14.3306 291.15L14.0624 285.174Z" fill="black"/>
<path d="M13.0183 237.895C13.5183 236.496 14.3224 235.426 15.4305 234.684C16.5153 233.941 17.8499 233.627 19.4344 233.743C21.5547 233.899 23.1269 234.826 24.1511 236.524C25.177 238.199 25.5783 240.569 25.3552 243.634L24.5017 255.357L0.0365172 253.56L0.838867 242.54C1.04329 239.732 1.76007 237.609 2.9892 236.17C4.22004 234.708 5.82572 234.05 7.80623 234.195C9.08774 234.289 10.1724 234.675 11.0601 235.352C11.9495 236.005 12.6022 236.853 13.0183 237.895ZM3.12301 250.259L10.9519 250.833L11.4757 243.639C11.6069 241.837 11.3812 240.433 10.7986 239.425C10.1945 238.393 9.25162 237.83 7.97011 237.736C6.6886 237.642 5.68587 238.062 4.96192 238.997C4.21637 239.907 3.77801 241.262 3.64684 243.064L3.12301 250.259ZM22.514 243.567C22.6588 241.578 22.4416 240.057 21.8624 239.003C21.2833 237.949 20.2947 237.37 18.8967 237.268C16.1706 237.068 14.6618 238.968 14.3706 242.969L13.7828 251.041L21.9263 251.639L22.514 243.567Z" fill="black"/>
<path d="M29.1863 212.52L20.9915 216.734C20.9472 217.391 20.8991 217.906 20.8473 218.278L20.0075 224.307L27.3998 225.345L26.9144 228.83L2.6204 225.418L3.94568 215.903C4.38582 212.744 5.48407 210.363 7.24042 208.762C8.99676 207.161 11.1938 206.546 13.8314 206.916C15.7055 207.18 17.2372 207.869 18.4266 208.983C19.6159 210.098 20.3917 211.557 20.7537 213.361L29.7154 208.721L29.1863 212.52ZM17.8828 217.968C18.1902 215.76 17.9506 214.009 17.1638 212.714C16.377 211.419 15.1044 210.649 13.3459 210.402C11.5875 210.155 10.1646 210.547 9.07735 211.579C7.96691 212.607 7.25796 214.225 6.95051 216.432L6.12524 222.357L17.0575 223.892L17.8828 217.968Z" fill="black"/>
<path d="M36.4833 194.551C35.9849 196.987 35.0096 199.073 33.5572 200.809C32.082 202.54 30.291 203.776 28.184 204.514C26.0818 205.23 23.8751 205.35 21.5638 204.873C19.2524 204.396 17.2714 203.413 15.6205 201.922C13.9744 200.409 12.8248 198.567 12.1718 196.397C11.4959 194.222 11.4071 191.916 11.9055 189.48C12.3992 187.067 13.3837 184.995 14.8589 183.264C16.3112 181.527 18.0885 180.301 20.1907 179.586C22.27 178.865 24.4768 178.745 26.811 179.227C29.1452 179.709 31.1377 180.695 32.7885 182.185C34.4165 183.67 35.5684 185.501 36.2443 187.676C36.8973 189.846 36.977 192.138 36.4833 194.551ZM33.4283 193.921C33.7903 192.151 33.7142 190.483 33.2001 188.916C32.6907 187.326 31.8203 185.985 30.5889 184.892C29.3393 183.772 27.8449 183.033 26.1057 182.674C24.3665 182.315 22.7143 182.405 21.1491 182.945C19.5657 183.456 18.2278 184.342 17.1353 185.601C16.0475 186.838 15.3226 188.341 14.9606 190.11C14.5986 191.88 14.6699 193.571 15.1746 195.184C15.6841 196.774 16.5636 198.129 17.8132 199.249C19.0445 200.342 20.5298 201.067 22.269 201.426C24.0082 201.785 25.6695 201.708 27.2529 201.197C28.8181 200.658 30.147 199.758 31.2394 198.499C32.3366 197.216 33.0662 195.69 33.4283 193.921Z" fill="black"/>
<path d="M508.672 202.393C508.299 200.578 508.213 198.764 508.413 196.95C508.64 195.154 509.101 193.681 509.795 192.531L512.734 193.252C512.099 194.342 511.665 195.653 511.431 197.187C511.225 198.739 511.278 200.273 511.59 201.789C512 203.788 512.639 205.213 513.505 206.063C514.395 206.909 515.4 207.216 516.521 206.984C517.345 206.813 517.952 206.4 518.342 205.744C518.759 205.107 519.023 204.358 519.132 203.497C519.246 202.658 519.326 201.48 519.372 199.962C519.434 198.056 519.567 196.496 519.77 195.28C519.979 194.087 520.446 192.996 521.173 192.007C521.928 191.036 523.072 190.392 524.605 190.074C525.886 189.809 527.11 189.903 528.277 190.356C529.448 190.832 530.484 191.695 531.385 192.946C532.286 194.197 532.947 195.844 533.367 197.889C533.659 199.314 533.764 200.753 533.681 202.208C533.598 203.662 533.315 204.954 532.832 206.085L529.852 205.516C530.285 204.372 530.544 203.193 530.628 201.978C530.735 200.758 530.676 199.596 530.449 198.494C530.048 196.541 529.391 195.143 528.479 194.302C527.572 193.484 526.557 193.191 525.436 193.424C524.612 193.594 523.994 194.01 523.581 194.67C523.191 195.326 522.93 196.087 522.798 196.952C522.693 197.836 522.624 199.012 522.592 200.48C522.53 202.386 522.395 203.935 522.187 205.128C521.979 206.32 521.509 207.4 520.777 208.366C520.049 209.355 518.931 210.006 517.421 210.319C516.162 210.579 514.936 210.474 513.742 210.003C512.571 209.527 511.532 208.652 510.627 207.378C509.744 206.1 509.092 204.438 508.672 202.393Z" fill="black"/>
<path d="M513.106 229.55C512.695 226.292 513.303 223.637 514.929 221.586C516.554 219.535 519.105 218.289 522.582 217.848L536.419 216.091L536.859 219.582L523.161 221.321C517.946 221.984 515.627 224.607 516.204 229.192C516.486 231.427 517.338 233.057 518.763 234.082C520.21 235.104 522.255 235.447 524.897 235.112L538.595 233.372L539.022 236.759L525.185 238.516C521.685 238.96 518.893 238.393 516.811 236.812C514.751 235.23 513.516 232.809 513.106 229.55Z" fill="black"/>
<path d="M539.981 254.297C540.124 257.484 539.478 260.026 538.043 261.923C536.608 263.819 534.56 264.828 531.899 264.948C529.239 265.069 527.109 264.249 525.51 262.49C523.911 260.73 523.04 258.257 522.897 255.07L522.624 248.988L515.202 249.324L515.044 245.808L539.55 244.699L539.981 254.297ZM525.938 254.826C526.038 257.053 526.581 258.731 527.567 259.86C528.576 260.989 529.968 261.513 531.742 261.433C533.515 261.353 534.843 260.705 535.724 259.491C536.628 258.276 537.03 256.555 536.93 254.329L536.662 248.353L525.669 248.85L525.938 254.826Z" fill="black"/>
<path d="M526.982 302.106C526.482 303.504 525.678 304.574 524.57 305.316C523.485 306.06 522.15 306.373 520.566 306.257C518.445 306.101 516.873 305.174 515.849 303.476C514.823 301.801 514.422 299.431 514.645 296.366L515.498 284.644L539.963 286.44L539.161 297.46C538.957 300.268 538.24 302.391 537.011 303.83C535.78 305.292 534.174 305.951 532.194 305.805C530.912 305.711 529.828 305.326 528.94 304.649C528.051 303.996 527.398 303.148 526.982 302.106ZM536.877 289.742L529.048 289.167L528.524 296.362C528.393 298.164 528.619 299.568 529.201 300.575C529.806 301.608 530.748 302.171 532.03 302.265C533.311 302.359 534.314 301.939 535.038 301.004C535.784 300.094 536.222 298.738 536.353 296.937L536.877 289.742ZM517.486 296.434C517.341 298.422 517.558 299.944 518.138 300.998C518.717 302.052 519.705 302.63 521.103 302.733C523.829 302.933 525.338 301.033 525.629 297.031L526.217 288.959L518.074 288.361L517.486 296.434Z" fill="black"/>
<path d="M510.814 327.481L519.008 323.266C519.053 322.609 519.101 322.095 519.153 321.723L519.992 315.694L512.6 314.655L513.086 311.17L537.38 314.583L536.054 324.097C535.614 327.257 534.516 329.637 532.76 331.238C531.003 332.839 528.806 333.455 526.169 333.084C524.294 332.821 522.763 332.132 521.573 331.017C520.384 329.903 519.608 328.443 519.246 326.64L510.285 331.279L510.814 327.481ZM522.117 322.033C521.81 324.24 522.049 325.991 522.836 327.286C523.623 328.581 524.896 329.352 526.654 329.599C528.412 329.846 529.835 329.454 530.923 328.422C532.033 327.393 532.742 325.776 533.049 323.568L533.875 317.644L522.942 316.108L522.117 322.033Z" fill="black"/>
<path d="M503.517 345.45C504.015 343.014 504.99 340.928 506.443 339.191C507.918 337.46 509.709 336.225 511.816 335.486C513.918 334.77 516.125 334.651 518.436 335.128C520.748 335.604 522.729 336.588 524.379 338.078C526.026 339.591 527.175 341.433 527.828 343.604C528.504 345.779 528.593 348.085 528.094 350.52C527.601 352.933 526.616 355.006 525.141 356.737C523.689 358.473 521.911 359.699 519.809 360.415C517.73 361.136 515.523 361.255 513.189 360.773C510.855 360.292 508.862 359.306 507.211 357.816C505.584 356.33 504.432 354.5 503.756 352.325C503.103 350.154 503.023 347.862 503.517 345.45ZM506.572 346.08C506.21 347.849 506.286 349.518 506.8 351.085C507.309 352.675 508.18 354.016 509.411 355.108C510.661 356.228 512.155 356.968 513.894 357.326C515.633 357.685 517.286 357.595 518.851 357.056C520.434 356.544 521.772 355.659 522.865 354.399C523.952 353.163 524.677 351.66 525.039 349.89C525.401 348.121 525.33 346.429 524.825 344.816C524.316 343.226 523.436 341.871 522.187 340.751C520.955 339.659 519.47 338.933 517.731 338.575C515.992 338.216 514.33 338.292 512.747 338.804C511.182 339.343 509.853 340.242 508.761 341.502C507.663 342.784 506.934 344.31 506.572 346.08Z" fill="black"/>
<path d="M151.433 486.215C152.974 487.234 154.313 488.455 155.449 489.88C156.553 491.311 157.264 492.68 157.583 493.986L154.997 495.563C154.679 494.342 154.063 493.106 153.148 491.856C152.201 490.612 151.083 489.565 149.795 488.714C148.097 487.592 146.643 487.038 145.431 487.051C144.207 487.085 143.28 487.582 142.65 488.542C142.188 489.248 142.05 489.971 142.236 490.711C142.389 491.459 142.731 492.176 143.26 492.862C143.769 493.536 144.542 494.426 145.579 495.532C146.877 496.923 147.882 498.121 148.594 499.125C149.287 500.117 149.724 501.22 149.907 502.436C150.057 503.658 149.701 504.926 148.841 506.239C148.122 507.336 147.19 508.139 146.046 508.647C144.883 509.142 143.543 509.267 142.025 509.023C140.507 508.778 138.88 508.082 137.143 506.934C135.933 506.135 134.845 505.191 133.88 504.104C132.914 503.017 132.204 501.902 131.75 500.759L134.257 499.046C134.757 500.162 135.404 501.18 136.2 502.099C136.983 503.038 137.843 503.817 138.78 504.436C140.439 505.532 141.887 506.053 143.124 506C144.342 505.934 145.266 505.421 145.895 504.461C146.357 503.755 146.502 503.022 146.329 502.262C146.143 501.522 145.792 500.798 145.276 500.092C144.727 499.393 143.948 498.512 142.937 497.451C141.639 496.06 140.644 494.869 139.951 493.878C139.258 492.886 138.831 491.789 138.668 490.586C138.486 489.371 138.818 488.116 139.666 486.823C140.372 485.745 141.314 484.949 142.49 484.434C143.653 483.939 145.003 483.82 146.541 484.078C148.065 484.355 149.696 485.067 151.433 486.215Z" fill="black"/>
<path d="M129.175 470.16C131.76 472.173 133.199 474.481 133.494 477.086C133.789 479.69 132.862 482.383 130.715 485.164L122.167 496.232L119.398 494.075L127.86 483.118C131.081 478.947 130.873 475.446 127.236 472.613C125.464 471.233 123.713 470.686 121.984 470.973C120.241 471.278 118.553 472.487 116.921 474.6L108.46 485.557L105.774 483.465L114.321 472.397C116.483 469.598 118.856 468.017 121.442 467.656C124.013 467.312 126.59 468.147 129.175 470.16Z" fill="black"/>
<path d="M92.7464 471.745C90.4009 469.592 89.0677 467.336 88.7468 464.976C88.4259 462.616 89.1637 460.449 90.9603 458.475C92.7568 456.5 94.8399 455.567 97.2095 455.676C99.5791 455.785 101.937 456.915 104.282 459.067L108.758 463.174L113.769 457.667L116.356 460.04L99.8089 478.225L92.7464 471.745ZM102.303 461.399C100.665 459.895 99.0992 459.094 97.6065 458.996C96.0981 458.915 94.745 459.532 93.5473 460.848C92.3496 462.165 91.8667 463.565 92.0987 465.049C92.3148 466.55 93.2422 468.052 94.8806 469.556L99.2785 473.591L106.701 465.434L102.303 461.399Z" fill="black"/>
<path d="M68.2728 428.708C67.6418 427.365 67.4569 426.037 67.718 424.726C67.9614 423.429 68.6843 422.26 69.8866 421.217C71.4955 419.822 73.2599 419.361 75.18 419.834C77.0848 420.29 79.0374 421.681 81.0379 424.007L88.6888 432.902L70.1245 449.004L62.9318 440.641C61.0992 438.511 60.111 436.501 59.967 434.61C59.8078 432.703 60.4796 431.097 61.9824 429.793C62.9548 428.95 63.9931 428.452 65.0974 428.301C66.1864 428.131 67.2449 428.267 68.2728 428.708ZM69.982 444.477L75.9225 439.325L71.2267 433.865C70.0508 432.498 68.9023 431.665 67.7811 431.367C66.627 431.066 65.5637 431.337 64.5913 432.181C63.6189 433.024 63.2058 434.033 63.3522 435.208C63.4656 436.381 64.1102 437.651 65.2861 439.018L69.982 444.477ZM78.9814 425.977C77.6833 424.468 76.4585 423.546 75.3068 423.212C74.1551 422.878 73.0488 423.171 71.988 424.091C69.9194 425.885 70.1908 428.3 72.8021 431.336L78.0707 437.462L84.2499 432.102L78.9814 425.977Z" fill="black"/>
<path d="M61.8375 399.285L59.0106 408.084C59.4419 408.58 59.7701 408.978 59.9953 409.278L63.6469 414.137L69.6052 409.623L71.716 412.432L52.1347 427.269L46.3723 419.6C44.4585 417.054 43.5589 414.591 43.6734 412.211C43.788 409.832 44.9083 407.837 47.0342 406.226C48.5448 405.082 50.113 404.481 51.7389 404.425C53.3647 404.368 54.9408 404.849 56.4669 405.868L59.5368 396.223L61.8375 399.285ZM57.6809 411.164C56.344 409.385 54.9415 408.317 53.4733 407.96C52.0051 407.603 50.5623 407.961 49.145 409.035C47.7277 410.109 46.9979 411.397 46.9555 412.898C46.8945 414.414 47.5324 416.062 48.8693 417.841L52.4576 422.616L61.2692 415.939L57.6809 411.164Z" fill="black"/>
<path d="M54.3444 381.398C55.7072 383.474 56.4864 385.642 56.6819 387.901C56.858 390.173 56.4613 392.318 55.4917 394.336C54.5093 396.335 53.0331 397.987 51.0629 399.291C49.0928 400.595 46.9994 401.306 44.7827 401.424C42.5532 401.523 40.4434 401.037 38.4533 399.966C36.4436 398.908 34.7574 397.341 33.3945 395.264C32.0446 393.207 31.2815 391.043 31.1055 388.771C30.9099 386.513 31.3034 384.384 32.2857 382.385C33.2486 380.399 34.7249 378.747 36.7145 377.43C38.7042 376.113 40.8073 375.396 43.024 375.277C45.2211 375.172 47.3245 375.648 49.3342 376.706C51.3243 377.777 52.9944 379.341 54.3444 381.398ZM51.7403 383.122C50.7503 381.613 49.5218 380.488 48.0548 379.745C46.5749 378.982 45.0151 378.652 43.3752 378.754C41.7029 378.849 40.1256 379.387 38.6431 380.369C37.1606 381.35 36.0558 382.587 35.3288 384.079C34.5694 385.566 34.2469 387.142 34.3613 388.808C34.4629 390.455 35.0087 392.032 35.9986 393.541C36.9886 395.049 38.23 396.194 39.7227 396.976C41.2025 397.739 42.7786 398.073 44.4508 397.977C46.0907 397.875 47.6519 397.334 49.1344 396.352C50.6169 395.371 51.7378 394.138 52.4972 392.652C53.2242 391.159 53.5306 389.579 53.4161 387.913C53.2889 386.227 52.7303 384.63 51.7403 383.122Z" fill="black"/>
<path d="M388.567 53.7855C387.026 52.7667 385.687 51.545 384.551 50.1204C383.447 48.689 382.736 47.3204 382.417 46.0145L385.003 44.4372C385.321 45.6585 385.937 46.8944 386.852 48.1447C387.799 49.3882 388.917 50.4356 390.205 51.2867C391.903 52.4086 393.357 52.9627 394.569 52.9488C395.793 52.9154 396.72 52.4185 397.35 51.4582C397.812 50.7527 397.95 50.0296 397.764 49.289C397.611 48.5416 397.269 47.8247 396.741 47.1381C396.231 46.4645 395.458 45.5745 394.421 44.4681C393.123 43.077 392.118 41.8793 391.406 40.875C390.713 39.8837 390.276 38.7802 390.093 37.5645C389.943 36.3421 390.299 35.0744 391.159 33.7613C391.878 32.6638 392.81 31.8611 393.954 31.3532C395.117 30.8581 396.457 30.7329 397.975 30.9775C399.493 31.2221 401.12 31.9182 402.857 33.0659C404.067 33.8655 405.155 34.8089 406.12 35.8962C407.086 36.9835 407.796 38.0984 408.25 39.2408L405.743 40.9543C405.243 39.8381 404.596 38.8205 403.8 37.9013C403.017 36.9626 402.157 36.1837 401.22 35.5647C399.561 34.4686 398.113 33.947 396.876 34C395.658 34.066 394.734 34.5791 394.105 35.5394C393.643 36.2449 393.498 36.9778 393.671 37.7381C393.857 38.4787 394.208 39.2021 394.724 39.9082C395.273 40.6077 396.052 41.4879 397.063 42.5489C398.361 43.94 399.356 45.1312 400.049 46.1226C400.742 47.1139 401.169 48.211 401.332 49.4138C401.514 50.6295 401.182 51.884 400.334 53.1775C399.628 54.2554 398.686 55.0517 397.51 55.5663C396.347 56.0614 394.997 56.1801 393.459 55.9227C391.935 55.6456 390.304 54.9332 388.567 53.7855Z" fill="black"/>
<path d="M410.825 69.8404C408.24 67.8276 406.801 65.519 406.506 62.9145C406.211 60.31 407.138 57.6173 409.285 54.8365L417.833 43.7688L420.602 45.9253L412.141 56.8818C408.919 61.053 409.127 64.5547 412.764 67.387C414.536 68.7672 416.287 69.3141 418.016 69.0276C419.759 68.7227 421.447 67.5135 423.079 65.4001L431.54 54.4436L434.226 56.5354L425.679 67.6031C423.517 70.4025 421.144 71.983 418.558 72.3447C415.987 72.6879 413.41 71.8531 410.825 69.8404Z" fill="black"/>
<path d="M447.254 68.2556C449.599 70.4078 450.932 72.664 451.253 75.0241C451.574 77.3842 450.836 79.5514 449.04 81.5258C447.243 83.5001 445.16 84.433 442.79 84.3243C440.421 84.2157 438.063 83.0852 435.718 80.933L431.242 76.8263L426.231 82.3337L423.644 79.9599L440.191 61.7751L447.254 68.2556ZM437.697 78.6016C439.335 80.1051 440.901 80.906 442.393 81.0045C443.902 81.0857 445.255 80.4682 446.453 79.152C447.65 77.8357 448.133 76.4356 447.901 74.9516C447.685 73.4502 446.758 71.9479 445.119 70.4445L440.722 66.409L433.299 74.5662L437.697 78.6016Z" fill="black"/>
<path d="M471.727 111.292C472.358 112.636 472.543 113.963 472.282 115.275C472.039 116.571 471.316 117.74 470.113 118.783C468.505 120.179 466.74 120.64 464.82 120.166C462.915 119.71 460.963 118.319 458.962 115.993L451.311 107.098L469.876 90.9965L477.068 99.3588C478.901 101.489 479.889 103.5 480.033 105.39C480.192 107.298 479.52 108.903 478.018 110.207C477.045 111.05 476.007 111.548 474.903 111.7C473.814 111.869 472.755 111.733 471.727 111.292ZM470.018 95.5229L464.077 100.675L468.773 106.135C469.949 107.502 471.098 108.335 472.219 108.633C473.373 108.934 474.436 108.663 475.409 107.82C476.381 106.976 476.794 105.967 476.648 104.792C476.534 103.619 475.89 102.349 474.714 100.982L470.018 95.5229ZM461.019 114.024C462.317 115.533 463.542 116.454 464.693 116.788C465.845 117.122 466.951 116.829 468.012 115.909C470.081 114.115 469.809 111.7 467.198 108.664L461.929 102.539L455.75 107.898L461.019 114.024Z" fill="black"/>
<path d="M478.163 140.715L480.989 131.916C480.558 131.42 480.23 131.022 480.005 130.722L476.353 125.863L470.395 130.378L468.284 127.569L487.865 112.731L493.628 120.4C495.542 122.947 496.441 125.41 496.327 127.789C496.212 130.168 495.092 132.163 492.966 133.774C491.455 134.919 489.887 135.519 488.261 135.576C486.635 135.632 485.059 135.151 483.533 134.133L480.463 143.777L478.163 140.715ZM482.319 128.836C483.656 130.616 485.059 131.684 486.527 132.041C487.995 132.398 489.438 132.039 490.855 130.965C492.272 129.891 493.002 128.603 493.044 127.102C493.105 125.586 492.468 123.939 491.131 122.16L487.542 117.384L478.731 124.061L482.319 128.836Z" fill="black"/>
<path d="M485.656 158.602C484.293 156.526 483.514 154.358 483.318 152.099C483.142 149.828 483.539 147.683 484.508 145.664C485.491 143.665 486.967 142.014 488.937 140.71C490.907 139.406 493.001 138.694 495.217 138.576C497.447 138.477 499.557 138.963 501.547 140.034C503.556 141.092 505.243 142.66 506.605 144.736C507.955 146.793 508.718 148.957 508.895 151.229C509.09 153.488 508.697 155.617 507.714 157.616C506.751 159.602 505.275 161.253 503.285 162.57C501.296 163.887 499.193 164.605 496.976 164.723C494.779 164.829 492.675 164.352 490.666 163.294C488.676 162.223 487.006 160.659 485.656 158.602ZM488.26 156.879C489.25 158.387 490.478 159.513 491.945 160.256C493.425 161.018 494.985 161.348 496.625 161.247C498.297 161.151 499.874 160.613 501.357 159.632C502.839 158.65 503.944 157.414 504.671 155.921C505.431 154.435 505.753 152.859 505.639 151.192C505.537 149.545 504.991 147.968 504.001 146.46C503.011 144.951 501.77 143.806 500.277 143.024C498.797 142.261 497.221 141.928 495.549 142.023C493.909 142.125 492.348 142.667 490.866 143.648C489.383 144.629 488.262 145.863 487.503 147.349C486.776 148.842 486.469 150.421 486.584 152.087C486.711 153.773 487.27 155.37 488.26 156.879Z" fill="black"/>
<path d="M196.672 31.4589C194.865 31.8333 193.058 31.9202 191.251 31.7195C189.463 31.491 187.997 31.0283 186.851 30.3312L187.569 27.3799C188.654 28.0175 189.96 28.4536 191.488 28.6883C193.033 28.8952 194.561 28.8422 196.071 28.5294C198.061 28.1171 199.48 27.4759 200.327 26.6058C201.169 25.7127 201.475 24.7032 201.244 23.5774C201.074 22.7502 200.662 22.1407 200.009 21.749C199.375 21.3296 198.628 21.0649 197.771 20.9551C196.936 20.8405 195.763 20.7602 194.251 20.7141C192.353 20.6519 190.799 20.5187 189.589 20.3144C188.401 20.1053 187.314 19.6357 186.329 18.9055C185.363 18.1475 184.721 16.9989 184.405 15.4594C184.141 14.1728 184.234 12.9437 184.685 11.7723C185.159 10.5962 186.019 9.55578 187.264 8.65105C188.51 7.74632 190.151 7.08306 192.187 6.66126C193.606 6.36742 195.039 6.26213 196.488 6.34539C197.936 6.42865 199.223 6.71304 200.348 7.19854L199.782 10.1903C198.643 9.75552 197.469 9.49576 196.258 9.41105C195.044 9.30337 193.887 9.36328 192.789 9.59077C190.844 9.99361 189.453 10.6531 188.615 11.5691C187.801 12.4805 187.509 13.499 187.74 14.6249C187.91 15.4521 188.324 16.073 188.981 16.4877C189.634 16.8794 190.392 17.1417 191.254 17.2745C192.135 17.3796 193.306 17.4485 194.767 17.4811C196.665 17.5432 198.207 17.6788 199.395 17.8879C200.583 18.0969 201.658 18.5689 202.62 19.3039C203.605 20.0341 204.253 21.1574 204.565 22.6739C204.824 23.9376 204.719 25.169 204.25 26.3681C203.776 27.5442 202.905 28.587 201.637 29.4965C200.364 30.383 198.709 31.0371 196.672 31.4589Z" fill="black"/>
<path d="M223.716 27.007C220.471 27.4191 217.828 26.8089 215.785 25.1764C213.743 23.544 212.502 20.9821 212.062 17.4909L210.313 3.59575L213.789 3.15431L215.521 16.9098C216.181 22.1466 218.794 24.4752 223.36 23.8954C225.585 23.6129 227.208 22.7565 228.229 21.3263C229.246 19.8728 229.588 17.8194 229.254 15.1661L227.522 1.41059L230.895 0.982392L232.644 14.8775C233.087 18.392 232.521 21.1951 230.948 23.2866C229.372 25.3549 226.961 26.595 223.716 27.007Z" fill="black"/>
<path d="M248.359 0.0195272C251.533 -0.1241 254.065 0.524584 255.953 1.96558C257.842 3.40658 258.846 5.46295 258.966 8.13471C259.086 10.8065 258.27 12.9452 256.518 14.551C254.766 16.1567 252.303 17.0314 249.129 17.175L243.073 17.4491L243.407 24.9019L239.906 25.0603L238.802 0.451993L248.359 0.0195272ZM248.887 14.1213C251.104 14.021 252.775 13.4757 253.9 12.4854C255.024 11.4717 255.545 10.0743 255.466 8.29312C255.386 6.51195 254.741 5.17904 253.532 4.29438C252.322 3.38629 250.609 2.98241 248.391 3.08274L242.44 3.35204L242.935 14.3906L248.887 14.1213Z" fill="black"/>
<path d="M295.969 13.0728C297.361 13.5749 298.427 14.3824 299.166 15.4952C299.906 16.5845 300.219 17.9247 300.103 19.5158C299.948 21.645 299.025 23.2238 297.333 24.2523C295.666 25.2824 293.305 25.6855 290.253 25.4614L278.58 24.6044L280.368 0.0366702L291.343 0.842382C294.139 1.04766 296.253 1.76744 297.686 3.00173C299.142 4.23772 299.798 5.85013 299.653 7.83894C299.559 9.12582 299.175 10.215 298.501 11.1064C297.851 11.9996 297.007 12.655 295.969 13.0728ZM283.656 3.1361L283.084 10.9978L290.249 11.5238C292.043 11.6555 293.442 11.4289 294.445 10.8439C295.473 10.2372 296.033 9.29039 296.127 8.00351C296.221 6.71663 295.802 5.70969 294.871 4.98271C293.965 4.23404 292.615 3.79384 290.821 3.66212L283.656 3.1361ZM290.32 22.6083C292.301 22.7537 293.816 22.5356 294.865 21.954C295.915 21.3725 296.491 20.3797 296.593 18.9759C296.792 16.2383 294.9 14.7233 290.916 14.4308L282.877 13.8406L282.282 22.0181L290.32 22.6083Z" fill="black"/>
<path d="M321.238 29.3086L317.041 21.0795C316.387 21.035 315.874 20.9867 315.504 20.9347L309.5 20.0913L308.466 27.5146L304.995 27.0271L308.394 2.63138L317.868 3.96221C321.015 4.4042 323.385 5.50705 324.98 7.27075C326.574 9.03446 327.187 11.2407 326.818 13.8893C326.556 15.7713 325.87 17.3094 324.76 18.5038C323.65 19.6981 322.197 20.4771 320.4 20.8407L325.021 29.8399L321.238 29.3086ZM315.813 17.9577C318.011 18.2665 319.754 18.0258 321.044 17.2357C322.334 16.4456 323.101 15.1676 323.347 13.4019C323.593 11.6361 323.202 10.2072 322.175 9.11538C321.151 8.00029 319.54 7.28837 317.342 6.97963L311.442 6.15091L309.913 17.129L315.813 17.9577Z" fill="black"/>
<path d="M339.132 36.6362C336.706 36.1357 334.629 35.1563 332.9 33.6978C331.176 32.2164 329.946 30.4179 329.21 28.3021C328.497 26.1911 328.378 23.9751 328.853 21.6541C329.328 19.3331 330.307 17.3437 331.791 15.686C333.298 14.033 335.132 12.8786 337.294 12.2228C339.46 11.5441 341.756 11.4549 344.181 11.9554C346.584 12.4512 348.648 13.4398 350.372 14.9212C352.101 16.3796 353.322 18.1643 354.035 20.2753C354.752 22.3633 354.871 24.5793 354.392 26.9233C353.912 29.2673 352.93 31.2682 351.446 32.9259C349.967 34.5607 348.144 35.7174 345.978 36.3962C343.817 37.0519 341.535 37.1319 339.132 36.6362ZM339.759 33.5683C341.521 33.9319 343.183 33.8555 344.743 33.3392C346.327 32.8276 347.662 31.9536 348.75 30.717C349.865 29.4622 350.602 27.9616 350.959 26.2151C351.316 24.4686 351.227 22.8095 350.689 21.2377C350.18 19.6477 349.298 18.3041 348.044 17.2071C346.813 16.1148 345.316 15.3868 343.554 15.0233C341.792 14.6597 340.107 14.7314 338.501 15.2382C336.918 15.7498 335.568 16.633 334.453 17.8878C333.365 19.1243 332.643 20.6159 332.285 22.3623C331.928 24.1088 332.004 25.7771 332.514 27.3671C333.051 28.9389 333.946 30.2733 335.201 31.3703C336.478 32.4721 337.997 33.2048 339.759 33.5683Z" fill="black"/>
<path d="M343.327 508.541C345.135 508.167 346.942 508.08 348.748 508.281C350.537 508.509 352.003 508.972 353.148 509.669L352.431 512.62C351.346 511.983 350.039 511.546 348.512 511.312C346.967 511.105 345.439 511.158 343.929 511.471C341.939 511.883 340.52 512.524 339.673 513.394C338.83 514.287 338.525 515.297 338.756 516.423C338.926 517.25 339.338 517.859 339.991 518.251C340.625 518.67 341.371 518.935 342.229 519.045C343.063 519.16 344.237 519.24 345.749 519.286C347.646 519.348 349.2 519.481 350.411 519.686C351.599 519.895 352.686 520.364 353.671 521.095C354.637 521.852 355.279 523.001 355.595 524.541C355.859 525.827 355.766 527.056 355.315 528.228C354.841 529.404 353.981 530.444 352.735 531.349C351.49 532.254 349.849 532.917 347.813 533.339C346.394 533.633 344.961 533.738 343.512 533.655C342.064 533.571 340.777 533.287 339.652 532.802L340.218 529.81C341.357 530.245 342.531 530.504 343.741 530.589C344.956 530.697 346.113 530.637 347.211 530.409C349.156 530.006 350.547 529.347 351.385 528.431C352.199 527.52 352.491 526.501 352.26 525.375C352.09 524.548 351.676 523.927 351.018 523.512C350.365 523.121 349.608 522.858 348.746 522.726C347.865 522.62 346.694 522.552 345.232 522.519C343.335 522.457 341.793 522.321 340.605 522.112C339.417 521.903 338.342 521.431 337.38 520.696C336.395 519.966 335.747 518.843 335.435 517.326C335.176 516.062 335.28 514.831 335.75 513.632C336.224 512.456 337.095 511.413 338.363 510.504C339.636 509.617 341.291 508.963 343.327 508.541Z" fill="black"/>
<path d="M316.284 512.993C319.529 512.581 322.172 513.191 324.215 514.824C326.257 516.456 327.498 519.018 327.938 522.509L329.687 536.404L326.21 536.846L324.478 523.09C323.819 517.853 321.206 515.525 316.64 516.105C314.415 516.387 312.792 517.243 311.771 518.674C310.753 520.127 310.411 522.181 310.746 524.834L312.478 538.589L309.105 539.018L307.356 525.122C306.913 521.608 307.479 518.805 309.052 516.713C310.628 514.645 313.039 513.405 316.284 512.993Z" fill="black"/>
<path d="M291.641 539.981C288.467 540.124 285.935 539.475 284.047 538.034C282.158 536.593 281.153 534.537 281.034 531.865C280.914 529.194 281.73 527.055 283.482 525.449C285.234 523.843 287.697 522.969 290.871 522.825L296.927 522.551L296.593 515.098L300.094 514.94L301.198 539.548L291.641 539.981ZM291.113 525.879C288.896 525.979 287.225 526.524 286.1 527.515C284.976 528.528 284.454 529.926 284.534 531.707C284.614 533.488 285.259 534.821 286.468 535.706C287.678 536.614 289.391 537.018 291.609 536.917L297.56 536.648L297.065 525.609L291.113 525.879Z" fill="black"/>
<path d="M244.031 526.927C242.639 526.425 241.573 525.618 240.834 524.505C240.094 523.415 239.781 522.075 239.897 520.484C240.052 518.355 240.975 516.776 242.666 515.748C244.334 514.718 246.694 514.315 249.747 514.539L261.42 515.396L259.631 539.963L248.657 539.158C245.861 538.952 243.747 538.233 242.314 536.998C240.858 535.762 240.202 534.15 240.347 532.161C240.441 530.874 240.825 529.785 241.499 528.894C242.149 528 242.993 527.345 244.031 526.927ZM256.343 536.864L256.916 529.002L249.751 528.476C247.957 528.345 246.558 528.571 245.555 529.156C244.527 529.763 243.966 530.71 243.873 531.997C243.779 533.283 244.198 534.29 245.129 535.017C246.035 535.766 247.385 536.206 249.179 536.338L256.343 536.864ZM249.68 517.392C247.699 517.246 246.184 517.464 245.134 518.046C244.085 518.628 243.509 519.62 243.407 521.024C243.207 523.762 245.1 525.277 249.084 525.569L257.123 526.159L257.718 517.982L249.68 517.392Z" fill="black"/>
<path d="M218.762 510.691L222.959 518.921C223.613 518.965 224.126 519.013 224.496 519.065L230.5 519.909L231.534 512.485L235.004 512.973L231.606 537.369L222.132 536.038C218.985 535.596 216.614 534.493 215.02 532.729C213.426 530.966 212.813 528.759 213.182 526.111C213.444 524.229 214.13 522.691 215.24 521.496C216.35 520.302 217.803 519.523 219.6 519.159L214.979 510.16L218.762 510.691ZM224.187 522.042C221.989 521.734 220.245 521.974 218.956 522.764C217.666 523.554 216.899 524.832 216.653 526.598C216.407 528.364 216.797 529.793 217.825 530.885C218.849 532 220.46 532.712 222.658 533.02L228.558 533.849L230.087 522.871L224.187 522.042Z" fill="black"/>
<path d="M200.868 503.364C203.294 503.864 205.371 504.844 207.1 506.302C208.824 507.784 210.054 509.582 210.79 511.698C211.503 513.809 211.622 516.025 211.147 518.346C210.672 520.667 209.693 522.656 208.209 524.314C206.702 525.967 204.868 527.121 202.706 527.777C200.54 528.456 198.244 528.545 195.818 528.045C193.416 527.549 191.352 526.56 189.628 525.079C187.899 523.62 186.678 521.836 185.965 519.725C185.248 517.637 185.129 515.421 185.608 513.077C186.088 510.733 187.07 508.732 188.554 507.074C190.033 505.439 191.856 504.283 194.022 503.604C196.183 502.948 198.465 502.868 200.868 503.364ZM200.241 506.432C198.478 506.068 196.817 506.145 195.257 506.661C193.673 507.172 192.338 508.046 191.25 509.283C190.135 510.538 189.398 512.038 189.041 513.785C188.684 515.531 188.773 517.191 189.31 518.762C189.82 520.352 190.702 521.696 191.956 522.793C193.187 523.885 194.684 524.613 196.446 524.977C198.208 525.34 199.892 525.269 201.499 524.762C203.082 524.25 204.431 523.367 205.547 522.112C206.635 520.876 207.357 519.384 207.714 517.638C208.072 515.891 207.996 514.223 207.486 512.633C206.949 511.061 206.054 509.727 204.799 508.63C203.522 507.528 202.003 506.795 200.241 506.432Z" fill="black"/>
</svg>
