<svg width="605" height="504" viewBox="0 0 605 504" fill="none" xmlns="http://www.w3.org/2000/svg">
<path opacity="0.1" fill-rule="evenodd" clip-rule="evenodd" d="M309.365 15.2266C347.399 -0.603866 387.685 -1.20894 429.074 3.01184C467.869 6.96801 488.771 19.6028 503.18 53.5014C519.739 92.4586 503.49 104.566 511.169 145.866C516.339 173.676 547.545 190.368 561.542 215.379C579.233 246.992 603.928 277.772 604.944 313.436C605.963 349.2 593.123 387.514 567.195 413.833C541.091 440.331 500.661 451.718 462.685 457.841C427.916 463.448 392.596 439.683 358.322 447.513C321.49 455.929 300.689 503.454 262.772 503.516C227.452 503.573 206.11 465.45 176.256 447.809C146.64 430.308 100.964 428.689 86.0189 399.067C69.8588 367.036 111.98 327.642 98.8678 294.416C84.27 257.427 27.3414 246.788 11.5029 210.247C-4.01567 174.444 -3.30901 131.008 12.5834 95.3486C28.4403 59.7689 59.1205 23.8524 98.9783 13.9689C144.036 2.7959 188.24 43.1304 234.755 40.2566C265.554 38.3538 281.168 26.9626 309.365 15.2266Z" fill="#FBBB4E"/>
</svg>
