<svg width="542" height="296" viewBox="0 0 542 296" fill="none" xmlns="http://www.w3.org/2000/svg">
<path opacity="0.45" d="M232.561 206.633L232.143 205.725L232.561 206.633ZM424.242 180.345L423.25 180.218L424.242 180.345ZM256.864 119.165C256.414 118.844 255.79 118.948 255.469 119.397L250.237 126.721C249.916 127.17 250.021 127.795 250.47 128.116C250.919 128.437 251.544 128.333 251.865 127.883L256.515 121.373L263.025 126.023C263.474 126.344 264.099 126.24 264.42 125.791C264.741 125.341 264.637 124.717 264.187 124.396L256.864 119.165ZM119.207 207.24C119.605 207.761 120.079 208.28 120.621 208.795L121.998 207.344C121.519 206.889 121.119 206.448 120.796 206.026L119.207 207.24ZM123.864 211.313C124.905 211.996 126.071 212.671 127.353 213.331L128.268 211.552C127.04 210.921 125.936 210.28 124.961 209.641L123.864 211.313ZM130.989 215.022C132.16 215.516 133.401 215.996 134.71 216.458L135.375 214.572C134.103 214.123 132.898 213.657 131.766 213.179L130.989 215.022ZM138.503 217.686C139.731 218.05 141.007 218.397 142.328 218.726L142.81 216.785C141.517 216.463 140.27 216.124 139.071 215.768L138.503 217.686ZM146.2 219.603C147.467 219.864 148.769 220.106 150.105 220.328L150.433 218.356C149.122 218.137 147.845 217.899 146.603 217.644L146.2 219.603ZM154.031 220.91C155.318 221.077 156.632 221.226 157.972 221.355L158.163 219.364C156.845 219.237 155.553 219.091 154.289 218.927L154.031 220.91ZM161.923 221.669C163.219 221.751 164.538 221.814 165.878 221.856L165.942 219.857C164.623 219.815 163.325 219.753 162.049 219.673L161.923 221.669ZM169.835 221.922C171.135 221.923 172.454 221.906 173.79 221.868L173.733 219.869C172.417 219.906 171.118 219.923 169.837 219.922L169.835 221.922ZM177.741 221.699C179.041 221.624 180.356 221.53 181.686 221.416L181.514 219.423C180.204 219.536 178.908 219.629 177.626 219.702L177.741 221.699ZM185.622 221.022C186.918 220.874 188.227 220.706 189.547 220.518L189.266 218.538C187.963 218.723 186.673 218.889 185.395 219.035L185.622 221.022ZM193.461 219.907C194.75 219.687 196.05 219.449 197.36 219.189L196.972 217.227C195.68 217.483 194.397 217.719 193.125 217.935L193.461 219.907ZM201.22 218.373C202.492 218.086 203.773 217.78 205.061 217.455L204.571 215.516C203.299 215.837 202.036 216.139 200.78 216.422L201.22 218.373ZM208.884 216.436C210.144 216.083 211.412 215.71 212.686 215.318L212.098 213.406C210.84 213.794 209.588 214.161 208.344 214.51L208.884 216.436ZM216.446 214.109C217.683 213.694 218.925 213.261 220.172 212.808L219.49 210.928C218.258 211.375 217.031 211.803 215.811 212.212L216.446 214.109ZM223.875 211.413C225.095 210.937 226.32 210.441 227.55 209.927L226.778 208.082C225.563 208.59 224.353 209.08 223.147 209.55L223.875 211.413ZM231.165 208.364C231.769 208.094 232.374 207.82 232.979 207.541L232.143 205.725C231.544 206 230.946 206.271 230.35 206.537L231.165 208.364ZM232.979 207.541C233.577 207.266 234.179 206.998 234.784 206.737L233.991 204.901C233.372 205.168 232.756 205.442 232.143 205.725L232.979 207.541ZM238.448 205.258C239.679 204.794 240.922 204.358 242.176 203.949L241.555 202.048C240.274 202.466 239.003 202.912 237.743 203.387L238.448 205.258ZM245.966 202.8C247.231 202.445 248.507 202.116 249.792 201.81L249.329 199.864C248.019 200.176 246.718 200.512 245.426 200.874L245.966 202.8ZM253.671 200.964C254.96 200.707 256.257 200.473 257.563 200.26L257.241 198.286C255.913 198.503 254.593 198.741 253.28 199.002L253.671 200.964ZM261.494 199.685C262.799 199.515 264.112 199.365 265.431 199.233L265.232 197.243C263.894 197.377 262.562 197.529 261.236 197.701L261.494 199.685ZM269.392 198.894C270.708 198.8 272.029 198.723 273.355 198.662L273.263 196.664C271.921 196.726 270.582 196.804 269.249 196.9L269.392 198.894ZM277.331 198.526C278.652 198.496 279.978 198.482 281.307 198.481L281.305 196.481C279.962 196.482 278.622 196.497 277.286 196.527L277.331 198.526ZM285.287 198.518C286.611 198.543 287.938 198.581 289.267 198.63L289.341 196.632C288.001 196.582 286.662 196.544 285.325 196.518L285.287 198.518ZM293.246 198.812C294.57 198.884 295.896 198.966 297.223 199.057L297.361 197.062C296.024 196.97 294.688 196.887 293.353 196.815L293.246 198.812ZM301.198 199.359C302.522 199.468 303.846 199.586 305.17 199.712L305.359 197.721C304.027 197.594 302.695 197.476 301.363 197.366L301.198 199.359ZM309.14 200.11C310.463 200.25 311.784 200.397 313.104 200.549L313.334 198.562C312.008 198.409 310.68 198.262 309.35 198.121L309.14 200.11ZM317.071 201.024C318.392 201.187 319.711 201.355 321.028 201.527L321.287 199.544C319.966 199.372 318.643 199.203 317.316 199.039L317.071 201.024ZM324.992 202.058C326.312 202.238 327.629 202.421 328.942 202.606L329.221 200.626C327.906 200.44 326.586 200.257 325.263 200.076L324.992 202.058ZM332.908 203.172C334.228 203.363 335.542 203.554 336.851 203.745L337.14 201.766C335.83 201.575 334.515 201.383 333.193 201.193L332.908 203.172ZM340.824 204.326C342.145 204.519 343.461 204.712 344.768 204.901L345.056 202.922C343.749 202.732 342.435 202.54 341.113 202.347L340.824 204.326ZM348.745 205.474C350.073 205.663 351.392 205.848 352.702 206.029L352.975 204.048C351.669 203.868 350.353 203.683 349.027 203.494L348.745 205.474ZM356.679 206.565C358.016 206.741 359.342 206.91 360.657 207.072L360.901 205.087C359.592 204.926 358.271 204.758 356.94 204.582L356.679 206.565ZM364.629 207.539C365.979 207.69 367.316 207.83 368.638 207.96L368.833 205.969C367.521 205.841 366.193 205.701 364.851 205.551L364.629 207.539ZM372.614 208.316C373.975 208.426 375.319 208.522 376.645 208.601L376.765 206.605C375.454 206.526 374.124 206.432 372.775 206.323L372.614 208.316ZM380.669 208.791C382.022 208.837 383.354 208.864 384.664 208.867L384.67 206.867C383.383 206.864 382.071 206.838 380.737 206.793L380.669 208.791ZM388.735 208.803C390.112 208.754 391.461 208.675 392.78 208.564L392.613 206.571C391.328 206.679 390.011 206.756 388.663 206.804L388.735 208.803ZM396.795 208.113C398.164 207.917 399.495 207.679 400.788 207.396L400.36 205.442C399.119 205.714 397.836 205.943 396.511 206.133L396.795 208.113ZM404.757 206.339C406.091 205.915 407.374 205.43 408.603 204.878L407.785 203.054C406.63 203.571 405.418 204.03 404.151 204.433L404.757 206.339ZM412.248 202.944C413.427 202.209 414.54 201.393 415.582 200.491L414.273 198.979C413.313 199.81 412.284 200.564 411.189 201.247L412.248 202.944ZM418.484 197.53C419.353 196.484 420.148 195.355 420.867 194.137L419.145 193.12C418.479 194.248 417.745 195.29 416.946 196.252L418.484 197.53ZM422.711 190.421C423.217 189.191 423.662 187.889 424.042 186.513L422.114 185.98C421.754 187.283 421.336 188.508 420.861 189.66L422.711 190.421ZM424.92 182.565C425.038 181.883 425.143 181.185 425.234 180.472L423.25 180.218C423.163 180.903 423.062 181.572 422.949 182.224L424.92 182.565ZM425.234 180.472C425.327 179.744 425.397 179.028 425.444 178.324L423.449 178.191C423.405 178.853 423.339 179.529 423.25 180.218L425.234 180.472ZM425.453 174.196C425.357 172.752 425.154 171.365 424.849 170.031L422.9 170.477C423.18 171.704 423.368 172.987 423.457 174.329L425.453 174.196ZM423.559 166.014C423.012 164.713 422.356 163.475 421.598 162.298L419.916 163.38C420.613 164.463 421.214 165.598 421.716 166.79L423.559 166.014ZM419.052 158.97C418.135 157.947 417.13 156.979 416.047 156.061L414.755 157.588C415.773 158.45 416.711 159.355 417.563 160.306L419.052 158.97ZM412.701 153.549C411.587 152.804 410.412 152.098 409.183 151.428L408.226 153.185C409.407 153.828 410.529 154.503 411.59 155.212L412.701 153.549ZM405.504 149.603C404.275 149.047 403.002 148.519 401.689 148.018L400.976 149.887C402.254 150.375 403.49 150.887 404.679 151.425L405.504 149.603ZM397.829 146.658C396.56 146.245 395.259 145.852 393.93 145.479L393.389 147.404C394.694 147.77 395.969 148.155 397.21 148.56L397.829 146.658ZM389.945 144.436C388.652 144.122 387.337 143.823 386 143.538L385.584 145.494C386.903 145.775 388.199 146.07 389.472 146.38L389.945 144.436ZM381.993 142.739C380.674 142.493 379.338 142.259 377.987 142.037L377.662 144.011C379 144.231 380.322 144.462 381.626 144.705L381.993 142.739ZM373.97 141.416C372.637 141.222 371.29 141.038 369.933 140.862L369.677 142.846C371.024 143.02 372.36 143.203 373.682 143.395L373.97 141.416ZM365.91 140.372C364.568 140.218 363.218 140.071 361.86 139.932L361.655 141.921C363.006 142.06 364.348 142.206 365.681 142.359L365.91 140.372ZM357.83 139.539C356.485 139.414 355.134 139.296 353.778 139.182L353.611 141.175C354.962 141.288 356.307 141.406 357.646 141.53L357.83 139.539ZM349.742 138.861C348.395 138.758 347.044 138.66 345.692 138.565L345.553 140.561C346.901 140.655 348.247 140.753 349.59 140.855L349.742 138.861ZM341.65 138.293C340.302 138.206 338.954 138.121 337.606 138.039L337.484 140.035C338.829 140.117 340.175 140.202 341.52 140.289L341.65 138.293ZM333.557 137.797C332.209 137.718 330.864 137.641 329.522 137.565L329.408 139.562C330.749 139.638 332.094 139.715 333.441 139.794L333.557 137.797ZM325.467 137.335C324.118 137.259 322.775 137.183 321.439 137.106L321.324 139.103C322.662 139.18 324.006 139.256 325.354 139.332L325.467 137.335ZM317.383 136.87C316.032 136.79 314.69 136.709 313.358 136.625L313.233 138.621C314.567 138.705 315.912 138.786 317.264 138.867L317.383 136.87ZM309.308 136.361C307.953 136.269 306.611 136.174 305.283 136.075L305.135 138.07C306.467 138.169 307.814 138.264 309.173 138.356L309.308 136.361ZM301.251 135.758C299.889 135.645 298.545 135.527 297.221 135.402L297.033 137.393C298.366 137.518 299.717 137.638 301.086 137.752L301.251 135.758ZM293.233 134.999C291.86 134.85 290.513 134.693 289.194 134.527L288.944 136.511C290.276 136.679 291.634 136.837 293.017 136.987L293.233 134.999ZM285.227 133.983C283.867 133.781 282.543 133.566 281.258 133.338L280.908 135.307C282.214 135.539 283.556 135.757 284.933 135.962L285.227 133.983ZM277.295 132.56C275.947 132.268 274.654 131.956 273.418 131.623L272.898 133.555C274.169 133.897 275.495 134.216 276.872 134.514L277.295 132.56ZM269.642 130.475C268.331 130.023 267.112 129.54 265.989 129.022L265.151 130.838C266.344 131.388 267.627 131.896 268.991 132.366L269.642 130.475ZM262.581 127.145C261.436 126.381 260.468 125.564 259.681 124.688L258.193 126.024C259.111 127.045 260.212 127.97 261.472 128.809L262.581 127.145ZM257.749 121.587C257.533 121.021 257.372 120.431 257.269 119.814L255.296 120.143C255.421 120.891 255.617 121.611 255.881 122.302L257.749 121.587Z" fill="#EE7463"/>
<path opacity="0.45" d="M6.31106 65.7088L7.13921 66.2693L6.31106 65.7088ZM68.824 101.675L68.5491 100.714L68.824 101.675ZM119.358 121.28C119.472 121.82 120.003 122.165 120.543 122.051L129.348 120.186C129.888 120.072 130.234 119.541 130.119 119.001C130.005 118.461 129.474 118.115 128.934 118.23L121.107 119.887L119.45 112.061C119.336 111.52 118.805 111.175 118.265 111.289C117.724 111.404 117.379 111.935 117.493 112.475L119.358 121.28ZM68.5201 32.2184C67.8736 32.4246 67.234 32.6293 66.6013 32.8326L67.2128 34.7368C67.8443 34.534 68.4826 34.3297 69.1279 34.1239L68.5201 32.2184ZM62.8063 34.0604C61.5135 34.482 60.2509 34.8974 59.0175 35.3069L59.6478 37.205C60.8775 36.7967 62.1368 36.3825 63.4264 35.9619L62.8063 34.0604ZM55.2376 36.5751C53.9482 37.0124 52.693 37.4434 51.4709 37.8685L52.128 39.7575C53.3449 39.3342 54.5952 38.9049 55.8801 38.4691L55.2376 36.5751ZM47.6975 39.2004C46.4051 39.6637 45.1525 40.1205 43.9383 40.5717L44.6349 42.4464C45.8414 41.9981 47.0866 41.544 48.3723 41.0831L47.6975 39.2004ZM40.2114 41.9856C38.922 42.4856 37.6796 42.9796 36.4818 43.4688L37.238 45.3203C38.4239 44.8359 39.6553 44.3463 40.9345 43.8502L40.2114 41.9856ZM32.7983 45.0192C31.5232 45.5734 30.3039 46.123 29.1366 46.6701L29.9854 48.4811C31.1342 47.9426 32.3363 47.4007 33.5955 46.8535L32.7983 45.0192ZM25.5243 48.4402C24.2795 49.0796 23.1007 49.7186 21.9824 50.3603L22.9777 52.095C24.0671 51.4699 25.2185 50.8457 26.4381 50.2193L25.5243 48.4402ZM18.5394 52.4682C17.3614 53.2403 16.259 54.0211 15.2227 54.8161L16.4399 56.403C17.4346 55.64 18.4964 54.8877 19.6357 54.141L18.5394 52.4682ZM12.1054 57.4277C11.0808 58.3678 10.1286 59.332 9.23439 60.3277L10.7224 61.6641C11.5736 60.7163 12.4804 59.7979 13.4576 58.9013L12.1054 57.4277ZM6.65881 63.487C6.25595 64.0308 5.86464 64.5843 5.48291 65.1483L7.13921 66.2693C7.50575 65.7278 7.88068 65.1975 8.26592 64.6774L6.65881 63.487ZM5.48291 65.1483C5.08323 65.7389 4.70417 66.3373 4.34612 66.9424L6.06741 67.9609C6.40468 67.3908 6.76206 66.8266 7.13921 66.2693L5.48291 65.1483ZM2.41761 70.728C1.84856 72.0496 1.37613 73.3912 1.00442 74.7421L2.93275 75.2727C3.27935 74.013 3.72089 72.7584 4.25456 71.519L2.41761 70.728ZM0.181486 78.929C0.0126668 80.3612 -0.0395832 81.7918 0.029806 83.208L2.02741 83.1101C1.96365 81.8087 2.01142 80.4892 2.16773 79.1631L0.181486 78.929ZM0.622913 87.4639C0.949653 88.8585 1.40696 90.2232 1.99954 91.5442L3.82433 90.7255C3.2852 89.5238 2.86841 88.2805 2.57018 87.0076L0.622913 87.4639ZM4.13264 95.2834C4.94021 96.428 5.86904 97.5197 6.92177 98.5477L8.31903 97.1167C7.35232 96.1728 6.50305 95.1739 5.76682 94.1304L4.13264 95.2834ZM10.2258 101.272C11.3507 102.056 12.571 102.783 13.888 103.446L14.7876 101.66C13.5519 101.038 12.4136 100.359 11.3696 99.631L10.2258 101.272ZM17.7817 105.114C19.0544 105.573 20.3979 105.981 21.8135 106.335L22.2984 104.395C20.9452 104.056 19.6664 103.667 18.4602 103.233L17.7817 105.114ZM25.9414 107.176C27.2777 107.39 28.6685 107.562 30.1146 107.687L30.2877 105.695C28.8877 105.573 27.5451 105.408 26.2587 105.201L25.9414 107.176ZM34.2952 107.917C35.6439 107.95 37.0352 107.946 38.4696 107.905L38.4115 105.906C37.0114 105.946 35.6559 105.95 34.3443 105.917L34.2952 107.917ZM42.6259 107.685C43.9676 107.583 45.3437 107.449 46.7545 107.284L46.5212 105.297C45.1367 105.46 43.7879 105.59 42.4744 105.69L42.6259 107.685ZM50.8602 106.724C52.194 106.518 53.5565 106.284 54.948 106.022L54.5779 104.057C53.2072 104.315 51.8662 104.545 50.5546 104.747L50.8602 106.724ZM59.0248 105.191C60.3539 104.899 61.7078 104.583 63.0867 104.242L62.6062 102.301C61.2442 102.638 59.9078 102.95 58.5967 103.237L59.0248 105.191ZM67.0653 103.205C67.7376 103.021 68.4154 102.832 69.0989 102.637L68.5491 100.714C67.873 100.907 67.2026 101.094 66.5379 101.276L67.0653 103.205ZM69.0989 102.637C69.7451 102.452 70.3842 102.271 71.0165 102.095L70.4801 100.169C69.8433 100.346 69.1996 100.528 68.5491 100.714L69.0989 102.637ZM74.7279 101.091C76.0282 100.749 77.2972 100.427 78.5355 100.124L78.06 98.1814C76.8104 98.4873 75.5305 98.8121 74.2198 99.1564L74.7279 101.091ZM82.3228 99.2341C83.6195 98.9426 84.8795 98.6736 86.1037 98.4261L85.7075 96.4658C84.4685 96.7162 83.1943 96.9883 81.8842 97.2828L82.3228 99.2341ZM89.8914 97.7087C91.2125 97.4761 92.4874 97.2711 93.7173 97.0924L93.4298 95.1132C92.1791 95.2949 90.8844 95.5031 89.5447 95.739L89.8914 97.7087ZM97.5578 96.6031C98.8966 96.458 100.174 96.3479 101.393 96.2708L101.267 94.2748C100.016 94.3539 98.7088 94.4667 97.3423 94.6148L97.5578 96.6031ZM105.254 96.1332C106.622 96.1257 107.9 96.1665 109.093 96.2516L109.235 94.2566C107.987 94.1676 106.657 94.1254 105.243 94.1332L105.254 96.1332ZM112.829 96.7053C114.188 96.9483 115.398 97.2628 116.471 97.6369L117.129 95.7485C115.945 95.3353 114.632 94.9959 113.182 94.7365L112.829 96.7053ZM119.753 99.2136C120.848 99.9291 121.698 100.74 122.345 101.618L123.955 100.431C123.157 99.3488 122.128 98.3766 120.847 97.5396L119.753 99.2136ZM123.815 104.777C124.094 105.898 124.182 107.098 124.105 108.352L126.102 108.474C126.189 107.051 126.091 105.644 125.756 104.295L123.815 104.777ZM123.477 111.991C123.155 113.169 122.725 114.357 122.212 115.53L124.045 116.331C124.591 115.081 125.055 113.802 125.406 112.519L123.477 111.991ZM120.493 118.909C120.174 119.46 119.841 120 119.498 120.527L121.174 121.618C121.535 121.063 121.886 120.494 122.223 119.912L120.493 118.909Z" fill="#EE7463"/>
<path opacity="0.45" d="M377.616 13.9117L377.005 14.7033L377.616 13.9117ZM486.959 73.3565L487.054 74.3519L486.959 73.3565ZM526.015 217.677L525.146 217.183L526.015 217.677ZM236.114 294.897C236.163 295.447 236.649 295.853 237.199 295.803L246.163 294.995C246.713 294.945 247.119 294.459 247.069 293.909C247.02 293.359 246.533 292.953 245.983 293.003L238.016 293.722L237.297 285.754C237.247 285.204 236.761 284.798 236.211 284.848C235.661 284.898 235.256 285.384 235.305 285.934L236.114 294.897ZM237.877 295.448C238.317 294.921 238.758 294.398 239.198 293.88L237.674 292.585C237.229 293.108 236.786 293.635 236.342 294.167L237.877 295.448ZM241.844 290.819C242.727 289.816 243.611 288.83 244.497 287.86L243.019 286.512C242.126 287.491 241.234 288.486 240.343 289.498L241.844 290.819ZM247.155 285.001C248.077 284.028 249 283.072 249.924 282.133L248.499 280.73C247.566 281.678 246.634 282.643 245.703 283.626L247.155 285.001ZM252.78 279.291C253.733 278.362 254.686 277.451 255.641 276.558L254.275 275.097C253.31 276 252.346 276.92 251.383 277.859L252.78 279.291ZM258.508 273.931C259.519 273.024 260.532 272.136 261.545 271.268L260.243 269.749C259.219 270.628 258.195 271.525 257.172 272.442L258.508 273.931ZM264.607 268.703C265.629 267.868 266.651 267.051 267.675 266.253L266.445 264.676C265.409 265.483 264.375 266.31 263.341 267.155L264.607 268.703ZM270.824 263.858C271.909 263.054 272.994 262.27 274.079 261.507L272.929 259.871C271.829 260.644 270.731 261.437 269.633 262.251L270.824 263.858ZM277.338 259.276C278.434 258.546 279.531 257.836 280.629 257.146L279.564 255.453C278.452 256.153 277.34 256.872 276.23 257.612L277.338 259.276ZM284.061 255.051C285.206 254.373 286.35 253.717 287.496 253.08L286.524 251.332C285.363 251.977 284.202 252.643 283.042 253.33L284.061 255.051ZM290.943 251.225C292.138 250.603 293.334 250.002 294.53 249.422L293.657 247.622C292.444 248.211 291.232 248.82 290.019 249.451L290.943 251.225ZM298.119 247.743C299.319 247.203 300.52 246.682 301.72 246.182L300.95 244.336C299.733 244.843 298.515 245.371 297.297 245.92L298.119 247.743ZM305.437 244.694C306.676 244.219 307.915 243.764 309.154 243.33L308.491 241.443C307.235 241.884 305.978 242.345 304.721 242.827L305.437 244.694ZM312.892 242.077C314.165 241.67 315.438 241.284 316.71 240.917L316.156 238.995C314.866 239.367 313.575 239.759 312.283 240.172L312.892 242.077ZM320.526 239.874C321.809 239.543 323.091 239.231 324.373 238.937L323.927 236.988C322.627 237.285 321.327 237.602 320.025 237.938L320.526 239.874ZM328.265 238.102C329.561 237.842 330.856 237.601 332.15 237.377L331.809 235.406C330.498 235.633 329.185 235.878 327.871 236.141L328.265 238.102ZM336.075 236.75C337.389 236.558 338.702 236.383 340.013 236.225L339.773 234.239C338.446 234.399 337.116 234.576 335.786 234.771L336.075 236.75ZM343.943 235.799C345.269 235.671 346.593 235.56 347.915 235.464L347.771 233.469C346.433 233.566 345.093 233.679 343.751 233.808L343.943 235.799ZM351.876 235.223C353.2 235.157 354.522 235.106 355.842 235.069L355.786 233.07C354.452 233.107 353.116 233.159 351.777 233.225L351.876 235.223ZM359.823 234.999C361.147 234.989 362.469 234.993 363.789 235.009L363.813 233.009C362.481 232.993 361.146 232.989 359.808 232.999L359.823 234.999ZM367.77 235.094C369.098 235.135 370.423 235.188 371.745 235.252L371.842 233.254C370.508 233.19 369.172 233.137 367.832 233.095L367.77 235.094ZM375.709 235.476C377.039 235.562 378.366 235.658 379.689 235.764L379.848 233.77C378.515 233.664 377.179 233.567 375.838 233.48L375.709 235.476ZM383.648 236.109C384.974 236.234 386.296 236.368 387.614 236.509L387.827 234.52C386.501 234.378 385.17 234.244 383.836 234.118L383.648 236.109ZM391.575 236.958C392.892 237.115 394.206 237.278 395.515 237.448L395.773 235.465C394.457 235.294 393.136 235.129 391.812 234.972L391.575 236.958ZM399.481 237.983C400.799 238.166 402.112 238.355 403.421 238.548L403.713 236.57C402.399 236.376 401.081 236.186 399.757 236.002L399.481 237.983ZM407.367 239.145C408.688 239.35 410.003 239.557 411.314 239.767L411.63 237.792C410.317 237.582 408.998 237.374 407.673 237.169L407.367 239.145ZM415.235 240.405C416.561 240.623 417.881 240.842 419.195 241.062L419.525 239.09C418.21 238.87 416.888 238.65 415.56 238.431L415.235 240.405ZM423.12 241.722C424.443 241.945 425.761 242.168 427.071 242.388L427.403 240.416C426.093 240.196 424.776 239.973 423.453 239.75L423.12 241.722ZM431.014 243.049C432.332 243.268 433.645 243.484 434.949 243.696L435.27 241.722C433.968 241.51 432.659 241.295 431.342 241.076L431.014 243.049ZM438.917 244.329C440.233 244.535 441.541 244.736 442.841 244.929L443.135 242.951C441.841 242.758 440.538 242.559 439.227 242.353L438.917 244.329ZM446.842 245.503C448.167 245.687 449.483 245.861 450.79 246.025L451.039 244.041C449.741 243.878 448.433 243.704 447.116 243.522L446.842 245.503ZM454.797 246.497C456.133 246.644 457.459 246.778 458.775 246.898L458.956 244.907C457.654 244.788 456.34 244.655 455.015 244.509L454.797 246.497ZM462.792 247.221C464.139 247.314 465.474 247.39 466.797 247.448L466.883 245.449C465.578 245.393 464.26 245.318 462.93 245.226L462.792 247.221ZM470.828 247.562C472.182 247.579 473.523 247.574 474.85 247.545L474.806 245.545C473.503 245.574 472.186 245.579 470.854 245.562L470.828 247.562ZM478.889 247.375C480.242 247.29 481.58 247.176 482.902 247.032L482.685 245.044C481.394 245.185 480.087 245.296 478.764 245.379L478.889 247.375ZM486.923 246.485C488.261 246.266 489.581 246.012 490.884 245.718L490.445 243.767C489.182 244.051 487.901 244.299 486.601 244.511L486.923 246.485ZM494.826 244.695C496.126 244.31 497.407 243.882 498.668 243.407L497.964 241.535C496.749 241.992 495.514 242.405 494.258 242.777L494.826 244.695ZM502.421 241.827C503.647 241.254 504.851 240.632 506.033 239.957L505.042 238.22C503.908 238.867 502.751 239.465 501.574 240.016L502.421 241.827ZM509.484 237.795C510.59 237.037 511.674 236.227 512.737 235.364L511.475 233.812C510.455 234.641 509.414 235.418 508.353 236.146L509.484 237.795ZM515.8 232.664C516.758 231.749 517.696 230.785 518.614 229.769L517.13 228.429C516.245 229.408 515.341 230.337 514.419 231.217L515.8 232.664ZM521.245 226.64C522.056 225.606 522.848 224.526 523.622 223.4L521.973 222.267C521.222 223.361 520.455 224.406 519.671 225.407L521.245 226.64ZM525.824 219.982C526.182 219.39 526.536 218.786 526.885 218.171L525.146 217.183C524.805 217.783 524.461 218.371 524.112 218.947L525.824 219.982ZM526.885 218.171C527.214 217.592 527.537 217.008 527.854 216.42L526.094 215.47C525.783 216.046 525.467 216.617 525.146 217.183L526.885 218.171ZM529.692 212.838C530.275 211.642 530.837 210.43 531.377 209.201L529.546 208.396C529.016 209.601 528.465 210.79 527.894 211.962L529.692 212.838ZM532.924 205.499C533.416 204.258 533.888 203.004 534.339 201.737L532.454 201.066C532.011 202.311 531.548 203.543 531.065 204.762L532.924 205.499ZM535.617 197.942C536.021 196.672 536.406 195.392 536.771 194.102L534.847 193.558C534.487 194.827 534.109 196.086 533.712 197.335L535.617 197.942ZM537.803 190.224C538.126 188.933 538.429 187.633 538.714 186.327L536.76 185.901C536.479 187.188 536.18 188.468 535.863 189.739L537.803 190.224ZM539.51 182.4C539.755 181.089 539.983 179.772 540.192 178.451L538.216 178.139C538.01 179.441 537.786 180.739 537.544 182.031L539.51 182.4ZM540.762 174.489C540.934 173.166 541.088 171.839 541.224 170.511L539.234 170.307C539.1 171.618 538.948 172.926 538.779 174.232L540.762 174.489ZM541.577 166.523C541.677 165.191 541.759 163.858 541.824 162.526L539.826 162.429C539.763 163.744 539.682 165.059 539.583 166.373L541.577 166.523ZM541.964 158.525C541.993 157.189 542.005 155.855 541.998 154.522L539.998 154.532C540.005 155.846 539.993 157.163 539.965 158.482L541.964 158.525ZM541.926 150.517C541.884 149.181 541.824 147.848 541.746 146.521L539.75 146.637C539.826 147.947 539.885 149.262 539.927 150.58L541.926 150.517ZM541.458 142.524C541.343 141.188 541.21 139.859 541.059 138.537L539.072 138.764C539.221 140.067 539.352 141.378 539.465 142.696L541.458 142.524ZM540.549 134.571C540.358 133.24 540.149 131.919 539.921 130.608L537.95 130.951C538.175 132.242 538.381 133.544 538.569 134.854L540.549 134.571ZM539.174 126.667C538.903 125.353 538.614 124.051 538.305 122.762L536.36 123.228C536.664 124.495 536.949 125.777 537.215 127.07L539.174 126.667ZM537.305 118.874C536.947 117.573 536.568 116.287 536.169 115.019L534.261 115.619C534.653 116.864 535.025 118.127 535.377 119.405L537.305 118.874ZM534.894 111.217C534.441 109.947 533.967 108.698 533.471 107.47L531.617 108.218C532.102 109.42 532.567 110.645 533.011 111.889L534.894 111.217ZM531.881 103.764C531.318 102.53 530.732 101.321 530.124 100.14L528.346 101.056C528.939 102.208 529.511 103.388 530.061 104.594L531.881 103.764ZM528.189 96.6123C527.506 95.4413 526.797 94.3021 526.064 93.1971L524.398 94.3027C525.109 95.3746 525.797 96.4811 526.462 97.6203L528.189 96.6123ZM523.722 89.8951C522.895 88.8071 522.042 87.7595 521.161 86.7552L519.657 88.0742C520.506 89.0417 521.33 90.0527 522.129 91.1047L523.722 89.8951ZM518.372 83.8124C517.393 82.8588 516.385 81.9554 515.347 81.1052L514.08 82.6523C515.072 83.4647 516.037 84.3297 516.976 85.2447L518.372 83.8124ZM512.086 78.6776C510.954 77.916 509.79 77.2147 508.596 76.5772L507.654 78.3416C508.787 78.9463 509.892 79.6124 510.97 80.3372L512.086 78.6776ZM504.898 74.8503C503.637 74.343 502.347 73.9037 501.026 73.5358L500.489 75.4624C501.738 75.8102 502.958 76.2257 504.151 76.7057L504.898 74.8503ZM497.039 72.6599C495.715 72.4448 494.365 72.2988 492.989 72.2246L492.881 74.2217C494.187 74.2921 495.466 74.4305 496.719 74.634L497.039 72.6599ZM488.923 72.2133C488.242 72.2455 487.556 72.2946 486.863 72.3611L487.054 74.3519C487.715 74.2886 488.369 74.2417 489.018 74.2111L488.923 72.2133ZM486.863 72.3611C486.182 72.4264 485.508 72.4855 484.839 72.5384L484.997 74.5322C485.677 74.4784 486.362 74.4183 487.054 74.3519L486.863 72.3611ZM480.85 72.7852C479.492 72.8449 478.162 72.8777 476.858 72.8846L476.868 74.8845C478.199 74.8775 479.555 74.844 480.937 74.7833L480.85 72.7852ZM472.867 72.8221C471.511 72.7717 470.184 72.6917 468.884 72.583L468.718 74.576C470.049 74.6873 471.407 74.7692 472.793 74.8207L472.867 72.8221ZM464.918 72.1527C463.578 71.9729 462.266 71.7612 460.981 71.5186L460.61 73.4839C461.931 73.7331 463.277 73.9505 464.652 74.135L464.918 72.1527ZM457.088 70.671C455.782 70.3483 454.504 69.9923 453.25 69.6045L452.66 71.5152C453.95 71.9143 455.265 72.2805 456.607 72.6125L457.088 70.671ZM449.483 68.3187C448.232 67.8511 447.004 67.3506 445.796 66.8189L444.99 68.6495C446.232 69.1961 447.495 69.7109 448.783 70.1921L449.483 68.3187ZM442.195 65.1154C441.009 64.5148 439.84 63.8836 438.685 63.2232L437.693 64.9594C438.876 65.6358 440.074 66.2831 441.292 66.8996L442.195 65.1154ZM435.265 61.1605C434.146 60.4504 433.037 59.713 431.935 58.95L430.796 60.5942C431.919 61.3716 433.05 62.1239 434.194 62.8495L435.265 61.1605ZM428.686 56.6128C427.623 55.8208 426.565 55.0058 425.508 54.1691L424.267 55.7371C425.337 56.5848 426.411 57.4117 427.49 58.2163L428.686 56.6128ZM422.392 51.6385C421.372 50.7905 420.35 49.9236 419.325 49.0391L418.019 50.5532C419.052 51.4448 420.083 52.3197 421.114 53.1766L422.392 51.6385ZM416.297 46.387C415.303 45.505 414.304 44.608 413.297 43.697L411.955 45.1802C412.966 46.0946 413.97 46.9959 414.97 47.8829L416.297 46.387ZM410.314 40.9819C409.332 40.0835 408.341 39.1737 407.339 38.253L405.986 39.7257C406.988 40.6465 407.98 41.5576 408.964 42.4575L410.314 40.9819ZM404.364 35.5202C403.382 34.6194 402.388 33.7098 401.381 32.7922L400.034 34.2708C401.039 35.1862 402.031 36.0942 403.012 36.994L404.364 35.5202ZM398.383 30.0765C397.392 29.1836 396.386 28.2843 395.365 27.3794L394.038 28.8763C395.055 29.7773 396.057 30.6731 397.045 31.5629L398.383 30.0765ZM392.32 24.7067C391.311 23.8296 390.286 22.9481 389.245 22.0629L387.95 23.5868C388.985 24.4669 390.004 25.3436 391.008 26.2162L392.32 24.7067ZM386.139 19.4556C385.113 18.6045 384.07 17.7507 383.009 16.8947L381.753 18.4513C382.806 19.3014 383.843 20.1496 384.863 20.9953L386.139 19.4556ZM379.84 14.3747C379.307 13.9569 378.769 13.5386 378.227 13.1201L377.005 14.7033C377.543 15.1188 378.077 15.534 378.606 15.9489L379.84 14.3747ZM378.227 13.1201C377.688 12.7042 377.142 12.2994 376.588 11.9055L375.429 13.5353C375.962 13.9143 376.487 14.3036 377.005 14.7033L378.227 13.1201ZM373.18 9.67232C372.02 8.97248 370.832 8.31475 369.621 7.69791L368.713 9.48025C369.883 10.076 371.029 10.7106 372.148 11.3851L373.18 9.67232ZM365.936 5.97753C364.694 5.44763 363.431 4.95642 362.15 4.50275L361.482 6.38809C362.725 6.82815 363.949 7.30412 365.15 7.81699L365.936 5.97753ZM358.285 3.26277C356.991 2.88898 355.682 2.55027 354.359 2.24556L353.91 4.19453C355.198 4.49128 356.472 4.82084 357.729 5.18415L358.285 3.26277ZM350.387 1.43873C349.063 1.2045 347.728 1.002 346.384 0.83019L346.131 2.81405C347.444 2.98192 348.747 3.17965 350.039 3.40815L350.387 1.43873ZM342.36 0.408511C341.02 0.298275 339.674 0.216822 338.323 0.163184L338.244 2.16161C339.567 2.21415 340.885 2.29391 342.196 2.40177L342.36 0.408511ZM334.283 0.0847307C332.939 0.0854211 331.593 0.112384 330.245 0.164692L330.323 2.16319C331.645 2.11185 332.966 2.08541 334.284 2.08473L334.283 0.0847307ZM326.215 0.395841C324.873 0.497342 323.533 0.623067 322.196 0.772112L322.417 2.75981C323.732 2.61334 325.048 2.48983 326.366 2.39014L326.215 0.395841ZM318.193 1.2885C316.86 1.48377 315.532 1.70158 314.211 1.94102L314.567 3.90897C315.867 3.67351 317.172 3.45935 318.483 3.26737L318.193 1.2885ZM310.253 2.72672C308.934 3.01153 307.623 3.31749 306.324 3.6437L306.811 5.58353C308.089 5.26271 309.377 4.96178 310.675 4.68168L310.253 2.72672ZM302.427 4.69113C301.127 5.06411 299.84 5.45717 298.569 5.86934L299.185 7.77191C300.435 7.36677 301.701 6.98033 302.979 6.61357L302.427 4.69113ZM294.752 7.17997C293.477 7.64311 292.22 8.1255 290.984 8.62609L291.734 10.4799C292.948 9.98853 294.182 9.51482 295.435 9.05983L294.752 7.17997ZM287.269 10.2125C286.027 10.7719 284.808 11.3501 283.618 11.9458L284.513 13.7344C285.678 13.1512 286.872 12.5847 288.09 12.0362L287.269 10.2125ZM280.039 13.835C278.841 14.5026 277.676 15.1886 276.548 15.8917L277.605 17.5891C278.705 16.9039 279.842 16.2344 281.013 15.5821L280.039 13.835ZM273.162 18.1307C272.03 18.9259 270.945 19.7396 269.909 20.5701L271.16 22.1304C272.161 21.3277 273.213 20.5393 274.312 19.7672L273.162 18.1307ZM266.826 23.2316C265.806 24.1829 264.852 25.1531 263.968 26.1402L265.458 27.4744C266.299 26.5351 267.211 25.6076 268.19 24.6942L266.826 23.2316ZM261.388 29.3546C260.985 29.92 260.607 30.4902 260.252 31.0647L261.955 32.1145C262.285 31.5788 262.639 31.0452 263.017 30.514L261.388 29.3546Z" fill="#EE7463"/>
</svg>
