<svg width="61" height="61" viewBox="0 0 61 61" fill="none" xmlns="http://www.w3.org/2000/svg">
<path d="M4.50932e-05 21.35V5.08333C0.0016272 3.73564 0.537699 2.44359 1.49067 1.49062C2.44363 0.537654 3.73568 0.0015821 5.08337 0H29.4834C30.8311 0.0015821 32.1231 0.537654 33.0761 1.49062C34.029 2.44359 34.5651 3.73564 34.5667 5.08333V6.1C34.5667 6.36964 34.4596 6.62823 34.2689 6.81889C34.0783 7.00955 33.8197 7.11667 33.55 7.11667C33.2804 7.11667 33.0218 7.00955 32.8311 6.81889C32.6405 6.62823 32.5334 6.36964 32.5334 6.1V5.08333C32.5325 4.27469 32.2108 3.49943 31.6391 2.92763C31.0673 2.35584 30.292 2.03422 29.4834 2.03333H5.08337C4.27474 2.03422 3.49947 2.35584 2.92768 2.92763C2.35588 3.49943 2.03426 4.27469 2.03338 5.08333V21.35C2.03426 22.1586 2.35588 22.9339 2.92768 23.5057C3.49947 24.0775 4.27474 24.3991 5.08337 24.4H8.13337C8.26688 24.4 8.39908 24.4263 8.52241 24.4774C8.64575 24.5285 8.7578 24.6034 8.85216 24.6979L14.5313 30.3769C14.5925 30.4291 14.667 30.4633 14.7465 30.4758C14.826 30.4883 14.9074 30.4787 14.9818 30.4479C15.0561 30.417 15.1205 30.3663 15.1679 30.3012C15.2152 30.2361 15.2436 30.1592 15.25 30.079V25.4167C15.25 25.2831 15.2762 25.1509 15.3273 25.0275C15.3783 24.9041 15.4532 24.792 15.5476 24.6976C15.6421 24.6032 15.7542 24.5283 15.8775 24.4772C16.0009 24.4262 16.1332 24.3999 16.2667 24.4H23.3834C23.653 24.4 23.9116 24.5071 24.1023 24.6978C24.2929 24.8884 24.4 25.147 24.4 25.4167C24.4 25.6863 24.2929 25.9449 24.1023 26.1356C23.9116 26.3262 23.653 26.4333 23.3834 26.4333H17.2834V30.079C17.2834 30.5644 17.1394 31.039 16.8697 31.4426C16.6 31.8462 16.2167 32.1607 15.7683 32.3465C15.3198 32.5322 14.8263 32.5808 14.3502 32.4862C13.8742 32.3915 13.4368 32.1577 13.0936 31.8145L7.71241 26.4333H5.08337C3.73568 26.4318 2.44363 25.8957 1.49067 24.9427C0.537699 23.9897 0.0016272 22.6977 4.50932e-05 21.35ZM61 14.2333V30.5C60.9984 31.8477 60.4623 33.1397 59.5094 34.0927C58.5564 35.0457 57.2644 35.5817 55.9167 35.5833H47.1876L41.8064 40.9646C41.4632 41.3078 41.0259 41.5415 40.5498 41.6362C40.0737 41.7309 39.5802 41.6823 39.1318 41.4965C38.6833 41.3107 38.3 40.9962 38.0303 40.5926C37.7606 40.189 37.6167 39.7145 37.6167 39.229V35.5833H31.5167C30.169 35.5817 28.8769 35.0457 27.924 34.0927C26.971 33.1397 26.4349 31.8477 26.4334 30.5V14.2333C26.4349 12.8856 26.971 11.5936 27.924 10.6406C28.8769 9.68765 30.169 9.15158 31.5167 9.15H55.9167C57.2644 9.15158 58.5564 9.68765 59.5094 10.6406C60.4623 11.5936 60.9984 12.8856 61 14.2333ZM58.9667 14.2333C58.9658 13.4247 58.6442 12.6494 58.0724 12.0776C57.5006 11.5058 56.7253 11.1842 55.9167 11.1833H31.5167C30.708 11.1842 29.9328 11.5058 29.361 12.0776C28.7892 12.6494 28.4676 13.4247 28.4667 14.2333V30.5C28.4676 31.3086 28.7892 32.0839 29.361 32.6557C29.9328 33.2275 30.708 33.5491 31.5167 33.55H38.6334C38.7669 33.5499 38.8991 33.5762 39.0225 33.6272C39.1459 33.6783 39.258 33.7532 39.3524 33.8476C39.4468 33.942 39.5217 34.0541 39.5728 34.1775C39.6238 34.3009 39.6501 34.4331 39.65 34.5667V39.229C39.6565 39.3092 39.685 39.3861 39.7323 39.4511C39.7797 39.5161 39.8441 39.5668 39.9184 39.5976C39.9927 39.6284 40.0741 39.6381 40.1535 39.6256C40.233 39.6132 40.3075 39.579 40.3688 39.5269L46.0479 33.8479C46.1423 33.7534 46.2543 33.6785 46.3776 33.6274C46.501 33.5763 46.6332 33.55 46.7667 33.55H55.9167C56.7253 33.5491 57.5006 33.2275 58.0724 32.6557C58.6442 32.0839 58.9658 31.3086 58.9667 30.5V14.2333ZM20.9553 11.1833L19.7934 15.25H22.3667C22.6363 15.25 22.8949 15.3571 23.0856 15.5478C23.2762 15.7384 23.3834 15.997 23.3834 16.2667C23.3834 16.5363 23.2762 16.7949 23.0856 16.9856C22.8949 17.1762 22.6363 17.2833 22.3667 17.2833H19.2125L18.2613 20.6123C18.2005 20.8246 18.0724 21.0114 17.8962 21.1445C17.7199 21.2775 17.5052 21.3497 17.2844 21.35C17.1897 21.3498 17.0955 21.3368 17.0044 21.3113C16.7452 21.2371 16.526 21.063 16.3949 20.8274C16.2639 20.5917 16.2317 20.3137 16.3054 20.0543L17.0971 17.2833H13.1125L12.1613 20.6123C12.1005 20.8246 11.9724 21.0114 11.7962 21.1445C11.6199 21.2775 11.4052 21.3497 11.1844 21.35C11.0897 21.3498 10.9956 21.3368 10.9044 21.3113C10.6452 21.2371 10.426 21.063 10.295 20.8274C10.1639 20.5917 10.1317 20.3137 10.2055 20.0543L10.9971 17.2833H8.13337C7.86374 17.2833 7.60514 17.1762 7.41448 16.9856C7.22382 16.7949 7.11671 16.5363 7.11671 16.2667C7.11671 15.997 7.22382 15.7384 7.41448 15.5478C7.60514 15.3571 7.86374 15.25 8.13337 15.25H11.5781L12.74 11.1833H10.1667C9.89707 11.1833 9.63848 11.0762 9.44781 10.8856C9.25715 10.6949 9.15004 10.4363 9.15004 10.1667C9.15004 9.89703 9.25715 9.63844 9.44781 9.44777C9.63848 9.25711 9.89707 9.15 10.1667 9.15H13.321L14.2721 5.82102C14.3467 5.56235 14.5208 5.34382 14.7563 5.21333C14.9917 5.08284 15.2693 5.05103 15.5282 5.12489C15.7871 5.19874 16.0061 5.37222 16.1373 5.60731C16.2685 5.84239 16.3011 6.11989 16.228 6.37898L15.4363 9.15H19.4209L20.3721 5.82102C20.4467 5.56235 20.6208 5.34382 20.8563 5.21333C21.0917 5.08284 21.3693 5.05103 21.6282 5.12489C21.8871 5.19874 22.1061 5.37222 22.2373 5.60731C22.3685 5.84239 22.4011 6.11989 22.328 6.37898L21.5363 9.15H24.4C24.6697 9.15 24.9283 9.25711 25.1189 9.44777C25.3096 9.63844 25.4167 9.89703 25.4167 10.1667C25.4167 10.4363 25.3096 10.6949 25.1189 10.8856C24.9283 11.0762 24.6697 11.1833 24.4 11.1833H20.9553ZM18.84 11.1833H14.8553L13.6934 15.25H17.6781L18.84 11.1833ZM52.8667 22.3667V28.4667C52.8658 29.2753 52.5442 30.0506 51.9724 30.6224C51.4006 31.1942 50.6253 31.5158 49.8167 31.5167H44.7333C43.2347 31.5036 41.7665 31.0918 40.4796 30.3235C40.3186 30.6785 40.059 30.9797 39.7317 31.1912C39.4043 31.4027 39.0231 31.5157 38.6334 31.5167H36.6C36.061 31.516 35.5442 31.3015 35.163 30.9203C34.7818 30.5392 34.5674 30.0224 34.5667 29.4833V20.3333C34.5674 19.7943 34.7818 19.2775 35.163 18.8963C35.5442 18.5151 36.061 18.3007 36.6 18.3H38.6334C39.104 18.3008 39.5598 18.4647 39.9232 18.7636C40.2867 19.0626 40.5353 19.4783 40.6269 19.9399C40.869 19.7736 41.093 19.5824 41.2951 19.3693C42.1158 18.5566 42.6153 17.475 42.702 16.3233C42.6751 15.9219 42.73 15.5193 42.8632 15.1397C42.9965 14.7602 43.2055 14.4116 43.4774 14.1152C43.7722 13.8147 44.1268 13.5794 44.5183 13.4246C44.9098 13.2699 45.3294 13.199 45.75 13.2167C46.1916 13.228 46.6228 13.3528 47.0021 13.5792C47.3814 13.8057 47.6959 14.126 47.9154 14.5093C48.3021 15.2435 48.5313 16.0502 48.5884 16.878C48.6455 17.7058 48.5292 18.5364 48.247 19.3167H49.8167C50.6253 19.3175 51.4006 19.6392 51.9724 20.211C52.5442 20.7828 52.8658 21.558 52.8667 22.3667ZM38.6354 29.4833L38.6334 20.3333H36.6V29.4833H38.6354ZM50.8333 22.3667C50.8332 22.0971 50.726 21.8386 50.5354 21.648C50.3447 21.4573 50.0863 21.3502 49.8167 21.35H46.7667C46.5948 21.35 46.4257 21.3065 46.2752 21.2234C46.1247 21.1403 45.9977 21.0204 45.9062 20.8749C45.8146 20.7294 45.7615 20.563 45.7517 20.3914C45.7419 20.2198 45.7758 20.0485 45.8503 19.8935C46.7617 17.9932 46.6803 16.364 46.1938 15.5925C46.1134 15.4645 45.9486 15.25 45.75 15.25C45.6065 15.2373 45.4619 15.254 45.3252 15.2993C45.1884 15.3445 45.0623 15.4173 44.9547 15.5131C44.8732 15.6087 44.8115 15.7195 44.7731 15.8392C44.7348 15.9588 44.7206 16.0849 44.7314 16.2101C44.69 17.9245 43.9883 19.5567 42.7725 20.7662C42.1969 21.4013 41.4736 21.8846 40.6667 22.1734V28.0006C41.8225 28.9282 43.2517 29.4493 44.7333 29.4833H49.8167C50.0863 29.4832 50.3447 29.376 50.5354 29.1854C50.726 28.9947 50.8332 28.7362 50.8333 28.4667V22.3667ZM28.4667 44.7333C28.4656 45.8116 28.0368 46.8453 27.2744 47.6077C26.512 48.3701 25.4782 48.7989 24.4 48.8V55.9167C24.4 56.139 24.3272 56.3552 24.1926 56.5322C24.058 56.7091 23.8691 56.8371 23.6548 56.8965C23.4406 56.9558 23.2128 56.9433 23.0063 56.8609C22.7998 56.7784 22.6261 56.6305 22.5117 56.4399C22.4042 56.2658 19.7974 52.2242 12.2 51.8834V57.4417C12.2 58.3854 11.8251 59.2905 11.1578 59.9578C10.4905 60.6251 9.58543 61 8.64171 61C7.69798 61 6.7929 60.6251 6.12559 59.9578C5.45827 59.2905 5.08337 58.3854 5.08337 57.4417V51.5502C3.44525 51.0622 2.03757 50.0007 1.11783 48.56C0.198092 47.1192 -0.172236 45.3955 0.0745862 43.7041C0.321409 42.0128 1.16888 40.4668 2.462 39.349C3.75511 38.2312 5.40742 37.6162 7.11671 37.6167H11.1834C19.5788 37.6167 22.3995 33.2085 22.5146 33.0208C22.6317 32.8329 22.8065 32.6879 23.0129 32.6075C23.2192 32.5272 23.446 32.5158 23.6594 32.575C23.8722 32.6347 24.0596 32.7623 24.1933 32.9382C24.327 33.1142 24.3996 33.329 24.4 33.55V40.6667C25.4782 40.6677 26.512 41.0965 27.2744 41.859C28.0368 42.6214 28.4656 43.6551 28.4667 44.7333ZM7.11671 49.8167H10.1667V39.65H7.11671C5.76852 39.65 4.47556 40.1856 3.52225 41.1389C2.56894 42.0922 2.03338 43.3851 2.03338 44.7333C2.03338 46.0815 2.56894 47.3745 3.52225 48.3278C4.47556 49.2811 5.76852 49.8167 7.11671 49.8167ZM10.1667 57.4417V51.85H7.11671V57.4417C7.11671 57.8461 7.27738 58.234 7.56337 58.52C7.84936 58.806 8.23725 58.9667 8.64171 58.9667C9.04616 58.9667 9.43405 58.806 9.72004 58.52C10.006 58.234 10.1667 57.8461 10.1667 57.4417ZM22.3667 36.1323C20.5762 37.6247 17.355 39.3924 12.2 39.6075V49.8591C17.355 50.0742 20.5762 51.8419 22.3667 53.3343V36.1323ZM26.4334 44.7333C26.4327 44.1943 26.2182 43.6775 25.837 43.2963C25.4559 42.9151 24.9391 42.7007 24.4 42.7V46.7667C24.9391 46.766 25.4559 46.5515 25.837 46.1703C26.2182 45.7892 26.4327 45.2724 26.4334 44.7333ZM34.5667 43.7167H31.5167C31.2471 43.7167 30.9885 43.8238 30.7978 44.0144C30.6071 44.2051 30.5 44.4637 30.5 44.7333C30.5 45.003 30.6071 45.2616 30.7978 45.4522C30.9885 45.6429 31.2471 45.75 31.5167 45.75H34.5667C34.8363 45.75 35.0949 45.6429 35.2856 45.4522C35.4762 45.2616 35.5834 45.003 35.5834 44.7333C35.5834 44.4637 35.4762 44.2051 35.2856 44.0144C35.0949 43.8238 34.8363 43.7167 34.5667 43.7167ZM34.8884 48.8526L31.8384 47.836C31.7117 47.7933 31.5778 47.7761 31.4445 47.7853C31.3111 47.7945 31.1809 47.8299 31.0612 47.8895C30.9416 47.9491 30.8349 48.0317 30.7472 48.1326C30.6595 48.2335 30.5926 48.3507 30.5503 48.4775C30.508 48.6043 30.4911 48.7382 30.5007 48.8716C30.5102 49.0049 30.5459 49.135 30.6058 49.2545C30.6657 49.374 30.7485 49.4806 30.8496 49.568C30.9507 49.6554 31.0681 49.722 31.195 49.764L34.245 50.7807C34.5005 50.8653 34.7791 50.8451 35.0197 50.7245C35.2603 50.6039 35.4432 50.3929 35.5284 50.1376C35.6136 49.8823 35.5941 49.6037 35.4741 49.3628C35.3541 49.1219 35.1434 48.9384 34.8884 48.8526ZM31.5167 41.6833C31.6261 41.6832 31.7347 41.6655 31.8384 41.6307L34.8884 40.614C35.0153 40.572 35.1326 40.5054 35.2337 40.418C35.3349 40.3306 35.4177 40.224 35.4776 40.1045C35.5375 39.985 35.5732 39.8549 35.5827 39.7216C35.5922 39.5882 35.5754 39.4543 35.533 39.3275C35.4907 39.2007 35.4238 39.0835 35.3362 38.9826C35.2485 38.8817 35.1418 38.7991 35.0221 38.7395C34.9025 38.6799 34.7723 38.6445 34.6389 38.6353C34.5056 38.6261 34.3717 38.6433 34.245 38.686L31.195 39.7026C30.9661 39.7791 30.7719 39.9344 30.6471 40.1409C30.5222 40.3474 30.4749 40.5916 30.5136 40.8298C30.5523 41.0679 30.6744 41.2846 30.8582 41.441C31.042 41.5974 31.2754 41.6833 31.5167 41.6833Z" fill="#FBBB4E"/>
</svg>
