<svg width="65" height="65" viewBox="0 0 65 65" fill="none" xmlns="http://www.w3.org/2000/svg">
<path d="M17.0001 14C7.62602 14 0 21.5014 0 30.7223C0 35.1192 2.08945 41.5381 5.32205 47.0747C9.0052 53.3822 13.2612 57 17.0001 57C20.7389 57 24.9949 53.3822 28.6781 47.0747C31.9107 41.5381 34 35.1191 34 30.7223C34.0001 21.5014 26.374 14 17.0001 14ZM17.0001 54.6112C11.7244 54.6112 2.42858 40.801 2.42858 30.7223C2.42858 22.819 8.96486 16.3889 17.0001 16.3889C25.0353 16.3889 31.5715 22.819 31.5715 30.7223C31.5714 40.8009 22.2758 54.6112 17.0001 54.6112Z" fill="#FBBB4E"/>
<path d="M16.5 22C11.8135 22 8 25.813 8 30.5C8 35.187 11.8137 39 16.5 39C21.1863 39 25 35.187 25 30.5C25 25.813 21.1863 22 16.5 22ZM16.5 36.5714C13.1524 36.5714 10.4286 33.8475 10.4286 30.5C10.4286 27.1524 13.1525 24.4286 16.5 24.4286C19.8476 24.4286 22.5714 27.1524 22.5714 30.5C22.5714 33.8476 19.8476 36.5714 16.5 36.5714Z" fill="#FBBB4E"/>
<path d="M53 2C46.3836 2 41 7.38296 41 14C41 20.0416 48.2925 32 53 32C57.7075 32 65 20.0416 65 14C65 7.38308 59.6164 2 53 2ZM53 29.6C50.4805 29.6 43.4 19.7522 43.4 14C43.4 8.70667 47.7067 4.40001 53 4.40001C58.2933 4.40001 62.6 8.70667 62.6 14C62.6 19.7522 55.5196 29.6 53 29.6Z" fill="#FBBB4E"/>
<path d="M53 8C49.6918 8 47 10.6918 47 14C47 17.3082 49.6919 20 53 20C56.3082 20 59 17.3081 59 14C59.0001 10.6918 56.3082 8 53 8ZM53 17.6001C51.0148 17.6001 49.4 15.9853 49.4 14.0001C49.4 12.015 51.0148 10.4002 53 10.4002C54.9851 10.4002 56.6 12.015 56.6 14.0001C56.6001 15.9851 54.9851 17.6001 53 17.6001Z" fill="#FBBB4E"/>
<path d="M44.5993 46.3684C43.1238 45.1741 42.4446 43.9149 42.5199 42.5184C42.6873 39.4048 46.6547 36.1655 48.1686 35.1805C48.7295 34.815 48.8812 34.0764 48.5058 33.5301C48.1304 32.9832 47.3686 32.8351 46.809 33.2006C46.5448 33.3714 40.3461 37.4435 40.0747 42.3877C39.9551 44.5566 40.95 46.5115 43.0305 48.1968C47.5708 51.8748 50.0889 55.5974 49.4445 57.6814C48.8945 59.4579 46.0055 60.1303 43.6799 60.3819C33.1418 61.5216 24.7896 58.1243 24.7048 58.09C24.0818 57.8303 23.3643 58.1127 23.0989 58.7165C22.8334 59.3209 23.1205 60.0194 23.7422 60.278C24.0507 60.407 30.3929 63 39.2234 63C40.7312 63 42.3143 62.9244 43.9501 62.7472C48.4018 62.2666 51.0385 60.7928 51.7894 58.3666C53.1179 54.0707 47.8542 49.0055 44.5993 46.3684Z" fill="#FBBB4E"/>
</svg>
