<svg width="65" height="65" viewBox="0 0 65 65" fill="none" xmlns="http://www.w3.org/2000/svg">
<path d="M61.8554 48.7577H50.455L43.3185 36.4667L43.5978 36.1093C44.5727 34.8678 45.4968 33.6936 45.4968 32.4868C45.4803 31.684 45.4188 29.0084 45.2887 28.3637L44.5922 23.5432C44.4744 22.9502 44.4151 22.347 44.4146 21.7426V16.2592C44.4087 14.6196 43.6563 13.072 42.3702 12.0551C45.4379 10.1904 46.4132 6.19228 44.549 3.12461C42.6848 0.0573714 38.6863 -0.917991 35.619 0.946261C32.5514 2.81051 31.576 6.80903 33.4403 9.87628C34.2189 11.1573 35.416 12.1297 36.8296 12.629C35.165 14.4801 33.9294 16.6758 33.2114 19.0598L31.2691 15.7179L29.3947 16.8009L32.5798 22.2856C32.5264 22.8379 32.4984 23.3936 32.4984 23.9506V25.9191C32.4984 29.0071 33.3373 32.0375 34.926 34.6859L35.1307 35.0284C35.5355 35.702 35.7492 36.473 35.7483 37.2589V44.8007C35.7504 45.6603 35.4088 46.4852 34.7997 47.0918L33.1334 48.7577H25.4301C20.9009 48.7581 16.4018 48.0265 12.1057 46.5912L8.46498 45.378C6.80208 44.8821 5.05228 45.8278 4.55676 47.4907C4.08286 49.079 4.92512 50.7627 6.48035 51.3358L11.4199 52.9826C13.6821 53.7311 16.0004 54.2966 18.3529 54.6734C16.754 55.6819 14.8889 56.1871 12.9993 56.124C10.8782 56.1778 8.79603 55.5483 7.0598 54.3292C4.98192 52.9118 2.51448 52.1763 0 52.2242V54.3907C2.12112 54.3373 4.20324 54.9663 5.93947 56.1859C8.01735 57.6029 10.4848 58.3384 12.9993 58.2905C15.5129 58.3375 17.9786 57.6021 20.0557 56.1859C21.7932 54.9659 23.8766 54.3369 25.9985 54.3907C28.1201 54.3373 30.2026 54.9663 31.9393 56.1859C34.0142 57.6012 36.4774 58.3367 38.9881 58.2905C41.503 58.3375 43.97 57.6021 46.0479 56.1859C46.601 55.8468 47.1716 55.5369 47.7574 55.2576H50.3638L51.4375 58.7466C49.1164 58.8063 46.8613 59.5291 44.9377 60.8287C43.1981 62.0491 41.1126 62.6785 38.9885 62.6239C36.8674 62.6773 34.7852 62.0482 33.0486 60.8287C30.9737 59.4133 28.5101 58.6779 25.999 58.7241C23.4849 58.6766 21.0187 59.4125 18.9413 60.8287C17.2042 62.0486 15.1212 62.6777 12.9993 62.6239C10.8782 62.6773 8.79603 62.0482 7.0598 60.8287C4.98192 59.4116 2.51448 58.6762 0 58.7241V60.8906C2.12112 60.8367 4.20324 61.4662 5.93947 62.6853C8.01735 64.1028 10.4848 64.8382 12.9993 64.7903C15.5129 64.8374 17.9786 64.1015 20.0557 62.6853C21.7932 61.4658 23.8766 60.8363 25.9985 60.8906C28.1201 60.8372 30.2026 61.4662 31.9393 62.6853C34.0142 64.1007 36.4774 64.8365 38.9881 64.7903C41.5025 64.837 43.9696 64.1019 46.0479 62.6866C47.7871 61.4649 49.873 60.8355 51.9975 60.8906C52.0547 60.8906 52.1056 60.8906 52.1586 60.8969C53.582 64.2999 57.4944 65.9043 60.897 64.4809C64.2999 63.0575 65.9043 59.1454 64.4809 55.7425C64.305 55.322 64.0867 54.9206 63.829 54.5446C64.5661 53.9541 64.9955 53.0606 64.9968 52.1161V51.8991C64.9968 50.1641 63.5903 48.7577 61.8554 48.7577ZM62.8303 51.8991V52.1161C62.8265 52.4713 62.6277 52.7956 62.3123 52.9597C61.6977 52.4981 61.008 52.1458 60.2738 51.9178L57.0349 50.9246H61.8554C62.3937 50.9242 62.8303 51.3608 62.8303 51.8991ZM47.9494 48.7577H42.2482V38.94L47.9494 48.7577ZM34.6649 6.50977C34.6649 4.11651 36.605 2.17638 38.9978 2.17638C41.3911 2.17638 43.3312 4.11651 43.3312 6.50977C43.3312 8.90261 41.3911 10.8427 38.9978 10.8427C36.605 10.8427 34.6649 8.90261 34.6649 6.50977ZM39.0207 13.4352L39.4196 13.0363C41.038 13.2479 42.2482 14.6272 42.2477 16.2592V21.7426C42.2469 22.4699 42.3168 23.1956 42.4571 23.9095L43.1536 28.729C43.2227 29.08 43.2998 30.9744 43.3299 32.5076C43.0671 33.2261 42.6644 33.8852 42.146 34.4477L38.9978 29.0313V19.5091H36.8313V25.2947L34.8293 21.8477C35.2719 18.6613 36.7436 15.7073 39.0207 13.4352ZM36.9899 33.9166L36.7851 33.5753C35.3978 31.2635 34.6649 28.6176 34.6649 25.9212V25.8797L40.7412 36.3446C40.3534 36.8846 40.1249 37.5226 40.0813 38.186V48.7577H36.1968L36.3312 48.6233C37.3485 47.6119 37.9186 46.2351 37.9148 44.8007V37.2589C37.9148 36.0814 37.5952 34.9263 36.9899 33.9166ZM38.9885 56.124C37.5206 56.171 36.062 55.8743 34.7289 55.2576H43.2511C41.9171 55.8743 40.4572 56.171 38.9885 56.124ZM30.6892 53.0911C29.2006 52.4875 27.6051 52.1924 25.999 52.2242C24.5391 52.1984 23.0869 52.4357 21.7114 52.9249C18.4419 52.6337 15.2183 51.9623 12.1049 50.9242L7.16492 49.2778C6.76986 49.1451 6.50239 48.7759 6.49985 48.3592C6.50197 47.8205 6.94069 47.386 7.47902 47.3885C7.58075 47.389 7.68206 47.4055 7.77913 47.4373L11.419 48.6504C15.9364 50.1578 20.6678 50.9259 25.4301 50.9246H49.0303L49.6975 53.0911H30.6892ZM58.3053 62.8405C56.3169 62.8477 54.5595 61.5493 53.9821 59.6469L51.4689 51.4778L59.6367 53.991C62.0249 54.7264 63.3648 57.2591 62.6294 59.6473C62.0448 61.5451 60.2912 62.8405 58.3053 62.8405Z" fill="#FBBB4E"/>
<path d="M5.41556 16H24.0454C24.4323 16 24.7896 15.7967 24.9833 15.4664C27.0766 11.8942 25.8339 7.3263 22.2073 5.26424C21.266 4.72858 20.2187 4.39917 19.1363 4.29729C17.9555 0.958496 14.2509 -0.805051 10.8612 0.358122C8.58107 1.14095 6.92945 3.10448 6.57217 5.45713C6.19243 5.37321 5.80463 5.33062 5.41556 5.33021C2.42467 5.33021 0 7.71876 0 10.6651C0 13.6114 2.42467 16 5.41556 16ZM5.41556 7.46408C6.00594 7.46659 6.58403 7.62983 7.08584 7.9367C7.59739 8.24231 8.26321 8.08157 8.57344 7.57723C8.69932 7.37306 8.75145 7.133 8.7222 6.89544L8.69762 6.71716C8.6794 6.61153 8.66838 6.50465 8.66499 6.39693C8.66541 4.04011 10.6057 2.1296 12.9985 2.13002C15.0566 2.13044 16.8303 3.55747 17.2422 5.54355C17.3452 6.04038 17.789 6.39735 18.3035 6.39735H18.4294C21.4203 6.40528 23.8381 8.8001 23.8301 11.7464C23.828 12.4762 23.6741 13.1977 23.3779 13.8661H5.41556C3.62111 13.8661 2.16614 12.4332 2.16614 10.6651C2.16614 8.89738 3.62111 7.46408 5.41556 7.46408Z" fill="#FBBB4E"/>
<path d="M50 12H58V14H50V12Z" fill="#FBBB4E"/>
<path d="M60 12H62V14H60V12Z" fill="#FBBB4E"/>
<path d="M57 16H60V18H57V16Z" fill="#FBBB4E"/>
<path d="M63 16H65V18H63V16Z" fill="#FBBB4E"/>
</svg>
