<svg width="28" height="28" viewBox="0 0 28 28" fill="none" xmlns="http://www.w3.org/2000/svg">
<g clip-path="url(#clip0_32_1211)">
<path d="M23.898 4.09901C18.4299 -1.36749 9.56552 -1.36618 4.09901 4.10202C-1.3675 9.57022 -1.36618 18.4345 4.10202 23.901C9.57022 29.3675 18.4345 29.3662 23.901 23.898C26.5264 21.2719 28.0008 17.7103 28 13.997C27.9993 10.2843 26.5237 6.7239 23.898 4.09901ZM21.2025 19.5019C21.2019 19.5025 21.2013 19.5031 21.2007 19.5037V19.4991L20.4913 20.2037C19.5739 21.1327 18.2379 21.5149 16.968 21.2117C15.6886 20.8693 14.4723 20.3241 13.3653 19.5971C12.3369 18.9398 11.3838 18.1714 10.5233 17.3057C9.73161 16.5198 9.02034 15.6568 8.39997 14.7297C7.7214 13.7321 7.18432 12.6454 6.80397 11.5004C6.36794 10.1553 6.72926 8.67931 7.73732 7.68772L8.56797 6.85707C8.79891 6.62508 9.17418 6.62426 9.40611 6.85521C9.40671 6.85581 9.40737 6.85641 9.40797 6.85707L12.0306 9.47972C12.2626 9.71066 12.2634 10.0859 12.0325 10.3179C12.0319 10.3185 12.0313 10.3191 12.0306 10.3197L10.4906 11.8597C10.0487 12.2968 9.99318 12.9913 10.36 13.4931C10.917 14.2575 11.5333 14.9768 12.2033 15.6444C12.9503 16.3946 13.7624 17.0771 14.63 17.6838C15.1313 18.0334 15.8109 17.9745 16.2446 17.5438L17.7333 16.0318C17.9642 15.7998 18.3395 15.799 18.5714 16.0299C18.572 16.0305 18.5726 16.0311 18.5733 16.0318L21.2006 18.6638C21.4327 18.8947 21.4335 19.2699 21.2025 19.5019Z" fill="white"/>
<circle cx="14" cy="14" r="10" fill="white"/>
<path d="M22.91 8H7L14.955 15L23 8.01961C22.9706 8.01042 22.9405 8.00387 22.91 8Z" fill="#161615"/>
<path d="M14.8831 16.642C14.6594 16.824 14.3375 16.824 14.1139 16.642L6 10V20.3967C6 20.7299 6.27183 21 6.60715 21H22.3928C22.7282 21 23 20.7299 23 20.3967V10.0893L14.8831 16.642Z" fill="#161615"/>
</g>
<defs>
<clipPath id="clip0_32_1211">
<rect width="28" height="28" rx="14" fill="white"/>
</clipPath>
</defs>
</svg>
