<svg width="29" height="28" viewBox="0 0 29 28" fill="none" xmlns="http://www.w3.org/2000/svg">
<path d="M14.5 0C6.49271 0 0 6.26787 0 14C0 21.7321 6.49207 28 14.5 28C22.5086 28 29 21.7321 29 14C29 6.26787 22.5086 0 14.5 0ZM14.5 4.18616C17.1496 4.18616 19.2966 6.25987 19.2966 8.81696C19.2966 11.3747 17.1496 13.4477 14.5 13.4477C11.8517 13.4477 9.70467 11.3747 9.70467 8.81696C9.70467 6.25987 11.8517 4.18616 14.5 4.18616ZM14.4968 24.3396C11.8543 24.3396 9.43398 23.4104 7.56718 21.8723C7.11243 21.4978 6.85002 20.9486 6.85002 20.3724C6.85002 17.779 9.02381 15.7035 11.7103 15.7035H17.291C19.9781 15.7035 22.1436 17.779 22.1436 20.3724C22.1436 20.9493 21.8825 21.4972 21.4271 21.8717C19.5609 23.4104 17.14 24.3396 14.4968 24.3396Z" fill="white"/>
</svg>
