<svg width="28" height="29" viewBox="0 0 28 29" fill="none" xmlns="http://www.w3.org/2000/svg">
<g opacity="0.5">
<g clip-path="url(#clip0_101_23)">
<path d="M23.898 4.83247C18.4299 -0.634035 9.56552 -0.632723 4.09901 4.83548C-1.3675 10.3037 -1.36618 19.168 4.10202 24.6345C9.57022 30.101 18.4345 30.0997 23.901 24.6315C26.5264 22.0053 28.0008 18.4438 28 14.7305C27.9993 11.0177 26.5237 7.45736 23.898 4.83247ZM21.2025 20.2353C21.2019 20.2359 21.2013 20.2366 21.2007 20.2372V20.2325L20.4913 20.9372C19.5739 21.8661 18.2379 22.2484 16.968 21.9452C15.6886 21.6027 14.4723 21.0576 13.3653 20.3305C12.3369 19.6732 11.3838 18.9049 10.5233 18.0392C9.73161 17.2533 9.02034 16.3903 8.39997 15.4632C7.7214 14.4656 7.18432 13.3788 6.80397 12.2338C6.36794 10.8887 6.72926 9.41277 7.73732 8.42118L8.56797 7.59053C8.79891 7.35854 9.17418 7.35772 9.40611 7.58867C9.40671 7.58927 9.40737 7.58987 9.40797 7.59053L12.0306 10.2132C12.2626 10.4441 12.2634 10.8194 12.0325 11.0513C12.0319 11.0519 12.0313 11.0525 12.0306 11.0532L10.4906 12.5932C10.0487 13.0302 9.99318 13.7248 10.36 14.2265C10.917 14.9909 11.5333 15.7103 12.2033 16.3779C12.9503 17.1281 13.7624 17.8105 14.63 18.4172C15.1313 18.7669 15.8109 18.7079 16.2446 18.2772L17.7333 16.7652C17.9642 16.5332 18.3395 16.5324 18.5714 16.7634C18.572 16.764 18.5726 16.7646 18.5733 16.7652L21.2006 19.3972C21.4327 19.6281 21.4335 20.0033 21.2025 20.2353Z" fill="#787878"/>
<ellipse cx="13.9998" cy="14.7336" rx="10.0862" ry="10.0862" fill="#787878"/>
<g clip-path="url(#clip1_101_23)">
<path d="M21.8002 8.73331H6.2002L14.0002 15.1581L21.8884 8.75131C21.8595 8.74287 21.83 8.73686 21.8002 8.73331Z" fill="white"/>
<path d="M14.3787 16.3991C14.1576 16.5801 13.8396 16.5801 13.6185 16.3991L5.6001 9.79312V20.1335C5.6001 20.4649 5.86873 20.7335 6.20011 20.7335H21.8001C22.1315 20.7335 22.4001 20.4649 22.4001 20.1335V9.88193L14.3787 16.3991Z" fill="white"/>
</g>
</g>
</g>
<defs>
<clipPath id="clip0_101_23">
<rect y="0.733398" width="28" height="28" rx="14" fill="white"/>
</clipPath>
<clipPath id="clip1_101_23">
<rect width="16.8" height="16.8" fill="white" transform="translate(5.6001 6.33337)"/>
</clipPath>
</defs>
</svg>
