<svg width="30" height="29" viewBox="0 0 30 29" fill="none" xmlns="http://www.w3.org/2000/svg">
<g clip-path="url(#clip0_101_6)">
<path d="M15 0.734406C6.98596 0.734406 0.487793 7.002 0.487793 14.7338C0.487793 22.4656 6.98532 28.7332 15 28.7332C23.0153 28.7332 29.5122 22.4656 29.5122 14.7338C29.5122 7.002 23.0153 0.734406 15 0.734406ZM15 4.92038C17.6518 4.92038 19.8006 6.994 19.8006 9.55097C19.8006 12.1086 17.6518 14.1816 15 14.1816C12.3495 14.1816 10.2006 12.1086 10.2006 9.55097C10.2006 6.994 12.3495 4.92038 15 4.92038ZM14.9968 25.073C12.352 25.073 9.92971 24.1438 8.06134 22.6058C7.6062 22.2313 7.34357 21.6821 7.34357 21.1059C7.34357 18.5127 9.51919 16.4372 12.208 16.4372H17.7933C20.4827 16.4372 22.65 18.5127 22.65 21.1059C22.65 21.6827 22.3887 22.2307 21.9329 22.6052C20.0652 24.1438 17.6422 25.073 14.9968 25.073Z" fill="#BBBBBB"/>
</g>
<defs>
<clipPath id="clip0_101_6">
<rect width="29.0244" height="28" fill="white" transform="translate(0.487793 0.733398)"/>
</clipPath>
</defs>
</svg>
