<svg width="40" height="41" viewBox="0 0 40 41" fill="none" xmlns="http://www.w3.org/2000/svg">
<g clip-path="url(#clip0_101_40)">
<path d="M4.65503 5.39758V40.0468C4.65503 40.4148 4.95337 40.7132 5.32143 40.7132H30.6421C31.0099 40.7132 31.3082 40.4148 31.3082 40.0468V12.0611C31.3082 12.0463 31.3011 12.0336 31.2997 12.0191C31.2964 11.9606 31.2849 11.903 31.2657 11.8478C31.2583 11.8264 31.253 11.8058 31.2437 11.785C31.2113 11.7125 31.1663 11.6464 31.1103 11.5898L24.4471 4.92659C24.3906 4.87033 24.3241 4.82531 24.2511 4.7932C24.2311 4.78469 24.2108 4.77756 24.1899 4.77124C24.1342 4.75203 24.0763 4.7405 24.0173 4.73666C24.006 4.73858 23.9928 4.73145 23.9789 4.73145H5.32143C4.95337 4.73145 4.65503 5.02952 4.65503 5.39758ZM29.0334 11.3947H24.645V7.00622L29.0334 11.3947ZM5.98756 6.06398H23.3124V12.0611C23.3124 12.4289 23.6108 12.7272 23.9786 12.7272H29.9757V39.3807H5.98756V6.06398Z" fill="white"/>
<path d="M32.6412 35.3825V36.715H34.6401C35.0082 36.715 35.3065 36.417 35.3065 36.0489V1.39968C35.3065 1.03162 35.0082 0.733276 34.6401 0.733276H9.31948C8.95142 0.733276 8.65308 1.03162 8.65308 1.39968V3.39862H9.98589V2.06581H33.9737V35.3825H32.6412Z" fill="white"/>
<path d="M9.98584 14.06H25.9776V15.3925H9.98584V14.06Z" fill="white"/>
<path d="M9.98584 10.0619H15.3165V11.3947H9.98584V10.0619Z" fill="white"/>
<path d="M9.98584 18.058H20.6472V19.3908H9.98584V18.058Z" fill="white"/>
<path d="M21.98 18.058H25.9779V19.3908H21.98V18.058Z" fill="white"/>
<path d="M9.98584 22.0558H25.9776V23.3886H9.98584V22.0558Z" fill="white"/>
<path d="M9.98584 30.0518H25.9776V31.3846H9.98584V30.0518Z" fill="white"/>
<path d="M15.9827 26.0539H25.9776V27.3865H15.9827V26.0539Z" fill="white"/>
<path d="M9.98584 26.0539H14.6501V27.3864H9.98584V26.0539Z" fill="white"/>
<path d="M9.98584 34.0499H12.6512V35.3825H9.98584V34.0499Z" fill="white"/>
<path d="M13.9836 34.05H25.9776V35.3825H13.9836V34.05Z" fill="white"/>
</g>
<defs>
<clipPath id="clip0_101_40">
<rect width="40" height="40" fill="white" transform="translate(0 0.733276)"/>
</clipPath>
</defs>
</svg>
