<svg width="32" height="33" viewBox="0 0 32 33" fill="none" xmlns="http://www.w3.org/2000/svg">
<g clip-path="url(#clip0_75_1880)">
<path d="M28.4849 7.0066C27.0277 5.09883 25.7819 4.29754 23.7223 5.86585L22.2397 6.99492C21.883 7.2655 20.5763 7.35568 19.312 7.44344C19.2138 7.44988 19.1151 7.45795 19.0164 7.46439L18.6243 7.29849C17.0934 6.64662 16.3972 6.35062 14.6291 6.49557C14.2724 6.527 13.8722 6.56925 13.4506 6.61314C12.3014 6.73473 10.2753 6.94452 9.56259 6.86483C9.53923 6.8334 9.5163 6.79999 9.48289 6.7726L8.36714 5.90054C6.33055 4.3044 5.07224 5.08877 3.58766 6.97843L1.27036 9.93351C0.54686 10.8555 -0.105437 11.8461 0.0141085 12.8439C0.100246 13.5424 0.527892 14.1718 0.947043 14.4987L2.54112 15.747C2.86847 16.0071 3.09235 16.2773 3.25224 16.5809L2.56413 17.3073C2.06322 17.8332 1.91629 18.6152 2.17838 19.3476C2.43007 20.0587 3.03601 20.6328 3.75958 20.8491C3.96731 20.9095 4.1771 20.9392 4.38045 20.9392C4.4811 20.9392 4.57736 20.9247 4.67397 20.9123C4.64658 21.2098 4.68041 21.5203 4.78715 21.8247C5.04082 22.533 5.64682 23.1083 6.36834 23.3241C6.57608 23.3849 6.78551 23.4143 6.99127 23.4143C7.08993 23.4143 7.18817 23.3998 7.2828 23.3873C7.25584 23.6849 7.28925 23.9958 7.39598 24.3017C7.65008 25.0108 8.25601 25.5834 8.97958 25.7988C9.18732 25.86 9.3947 25.8889 9.60046 25.8889C9.72651 25.8889 9.85215 25.8773 9.97374 25.8539C9.99264 26.0001 10.0241 26.1474 10.0788 26.2916C10.3116 26.9318 10.8608 27.452 11.5091 27.6489C11.706 27.7097 11.9032 27.7395 12.0986 27.7395C12.5725 27.7395 13.0191 27.5612 13.3355 27.2257H13.3379V27.2238L13.5224 27.0305L14.7912 28.0206C14.9377 28.1362 15.3009 28.2533 15.6758 28.2533C15.9528 28.2533 16.2399 28.1885 16.5125 28.058C17.1269 27.7649 17.5948 27.1694 17.731 26.5066C17.7455 26.4309 17.7563 26.3533 17.7624 26.2759C17.8989 26.3053 18.0349 26.3242 18.1775 26.3242C18.4795 26.3242 18.7879 26.257 19.0835 26.1205C19.7672 25.802 20.283 25.1453 20.4255 24.4072C20.4569 24.2437 20.4674 24.0818 20.4634 23.9228C20.6546 23.9852 20.8575 24.017 21.0633 24.017C21.3653 24.017 21.6757 23.9498 21.9712 23.8136C22.6526 23.4968 23.1667 22.8384 23.3133 22.1C23.3386 21.9719 23.3491 21.8443 23.3511 21.7187C23.6217 21.8572 23.9217 21.9297 24.2301 21.9297C24.5341 21.9297 24.8426 21.8624 25.1361 21.7263C25.8174 21.4102 26.3336 20.7535 26.4806 20.0134C26.6066 19.3675 26.4387 18.7317 26.0421 18.2824C27.2101 17.771 28.4914 17.0414 29.5548 15.6865L30.6033 14.886C31.4485 14.2417 31.887 13.6192 31.9812 12.925C32.1073 11.9833 31.587 11.0733 30.7648 9.99537L28.4849 7.0066ZM4.2464 7.49582C5.69757 5.64602 6.43962 5.45357 7.85137 6.55807L8.62527 7.16408L2.6567 14.773L1.55588 13.913C1.23051 13.6573 0.901603 13.2035 0.846821 12.7429C0.777599 12.1807 1.09207 11.516 1.92917 10.4505L4.2464 7.49582ZM2.96679 19.0657C2.81178 18.6316 2.8895 18.1786 3.17056 17.8827L4.57141 16.4066C4.71396 16.2596 5.16532 16.1565 5.61186 16.2886C6.08374 16.4295 6.47593 16.8019 6.63943 17.2663C6.79486 17.7028 6.71672 18.1577 6.43813 18.4493V18.4517L5.03324 19.9278C4.89473 20.0747 4.44175 20.1754 3.99718 20.0453C3.52488 19.9047 3.13064 19.5311 2.96679 19.0657ZM5.57597 21.5444C5.42295 21.1063 5.50024 20.6505 5.77932 20.3554L7.04407 19.0279C7.32513 18.7323 7.77408 18.6337 8.22062 18.7661C8.6925 18.9046 9.08469 19.2779 9.2506 19.7413C9.40603 20.1774 9.32633 20.6299 9.04725 20.9279L7.78455 22.2555C7.50349 22.549 7.05291 22.6517 6.60602 22.5196C6.13605 22.3795 5.74146 22.0038 5.57597 21.5444ZM8.18474 24.0195C8.03136 23.5806 8.11106 23.128 8.39007 22.8324L9.65276 21.5049V21.5021C9.93382 21.2089 10.3844 21.1067 10.8313 21.2408C11.2991 21.3793 11.6954 21.7545 11.8593 22.216C12.0143 22.652 11.9366 23.1074 11.658 23.4021L10.3892 24.7325C10.1106 25.024 9.66118 25.1243 9.21712 24.9946C8.74686 24.8538 8.35064 24.4805 8.18474 24.0195ZM10.8652 26.0033C10.8024 25.8354 10.7895 25.67 10.8064 25.5105L10.9976 25.3092C10.9976 25.3068 10.9996 25.3068 10.9996 25.3068V25.3044L12.1637 24.0844C12.3211 24.059 12.4866 24.0634 12.6606 24.1158C13.0632 24.2398 13.4051 24.5643 13.552 24.961C13.6841 25.3274 13.6253 25.7058 13.4011 25.9447L12.7299 26.6465C12.5032 26.8861 12.1303 26.9658 11.7546 26.8478C11.35 26.7246 11.0081 26.4012 10.8631 26.003H10.8651V26.0033H10.8652ZM24.7837 20.9634C24.3621 21.1607 23.9027 21.1253 23.7412 20.9996L20.499 18.4641C20.3166 18.3216 20.0545 18.355 19.912 18.5354C19.7695 18.7178 19.8009 18.9819 19.9833 19.1249L22.1161 20.7943C22.437 21.046 22.5816 21.4821 22.4938 21.935C22.3975 22.4174 22.0618 22.845 21.6193 23.0528C21.1956 23.2473 20.7342 23.2142 20.4157 22.9626L18.2805 21.2932C18.0981 21.1507 17.8359 21.1841 17.6934 21.3649C17.5509 21.5465 17.5843 21.8115 17.7647 21.952L19.2328 23.1032C19.5513 23.3549 19.6942 23.7909 19.6061 24.2439C19.5119 24.7234 19.1765 25.1523 18.7316 25.3597C18.3079 25.5545 17.8465 25.5208 17.528 25.2691C17.5256 25.2691 17.5256 25.2691 17.5256 25.2691L16.064 24.1219C15.8816 23.9793 15.6174 24.0127 15.4745 24.1932C15.3319 24.3756 15.3653 24.6377 15.5462 24.7806L16.8967 25.8376C16.937 25.995 16.947 26.1605 16.9115 26.3337C16.8254 26.7471 16.5359 27.1184 16.1541 27.3008C15.7998 27.4687 15.4205 27.4478 15.158 27.2441L14.0946 26.4118C14.4659 25.9443 14.5621 25.2941 14.3378 24.6711C14.1006 24.0317 13.5534 23.5131 12.9072 23.3138C12.8314 23.2909 12.7562 23.2768 12.6805 23.2619C12.8125 22.8467 12.8065 22.3833 12.6471 21.9343C12.3934 21.2257 11.7894 20.6507 11.0699 20.4369C10.7614 20.3446 10.4494 20.3262 10.1539 20.3676C10.1792 20.0721 10.1455 19.7616 10.0383 19.4617C9.7866 18.7486 9.18067 18.1744 8.4571 17.9622C8.15069 17.87 7.84061 17.8511 7.5427 17.893C7.56967 17.5974 7.53626 17.289 7.42712 16.987C7.17791 16.2739 6.57148 15.7018 5.84791 15.4876C5.11188 15.2673 4.3549 15.4473 3.85357 15.949C3.70699 15.7207 3.52459 15.5057 3.30235 15.3031L9.29568 7.66293C9.94798 7.78254 11.2272 7.68628 13.5384 7.44472C13.9556 7.40281 14.3538 7.36098 14.7025 7.32758C15.8703 7.23054 16.4492 7.32956 17.3134 7.66094C17.0303 7.7153 16.7573 7.77808 16.5101 7.86627L12.7248 9.2357C12.5593 9.26104 12.4063 9.28164 12.2678 9.30053C11.3239 9.43063 10.7554 9.50827 10.4558 10.2633C10.244 10.8085 10.4031 11.4861 10.8774 12.0313C11.6637 12.9397 13.0183 13.2751 14.4574 12.9373L16.5942 12.6643C17.4668 12.5496 18.2173 13.1555 18.9433 13.7378L25.2827 18.7061C25.6036 18.9562 25.7481 19.3946 25.6604 19.8469C25.564 20.3304 25.2286 20.758 24.7837 20.9634ZM25.3293 17.6749L25.3269 17.6768L19.4674 13.087C18.6871 12.4576 17.7103 11.6813 16.4874 11.8351L14.3107 12.1162C12.5725 12.5208 11.7273 11.7345 11.5091 11.4848C11.2449 11.1788 11.1378 10.8204 11.2365 10.5704C11.3436 10.2999 11.4503 10.26 12.3816 10.1299C12.5366 10.109 12.7045 10.086 12.8914 10.0586C12.9184 10.0522 12.9457 10.0477 12.9707 10.0373L16.7959 8.65539C17.484 8.40773 18.4424 8.34092 19.3693 8.27771C20.5961 8.19356 21.8569 8.10296 22.7628 7.60652L28.7208 15.37C27.6949 16.5801 26.4886 17.1994 25.3293 17.6749ZM30.0955 14.2173L29.3341 14.7979L23.4457 7.12699L24.228 6.53309C25.6562 5.44472 26.3963 5.64849 27.8181 7.51677L30.0979 10.5008C30.9221 11.5811 31.2261 12.25 31.1505 12.8096C31.0876 13.2711 30.7522 13.7176 30.0955 14.2173Z" fill="white" stroke="white" stroke-width="0.5"/>
</g>
<defs>
<clipPath id="clip0_75_1880">
<rect width="32" height="32" fill="white" transform="translate(-0.00012207 0.643555)"/>
</clipPath>
</defs>
</svg>
