<svg width="32" height="33" viewBox="0 0 32 33" fill="none" xmlns="http://www.w3.org/2000/svg">
<path d="M18.6543 6.52068C17.4596 5.32595 15.9374 4.51233 14.2803 4.18271C12.6232 3.85308 10.9055 4.02225 9.34451 4.66883C7.78352 5.31541 6.44933 6.41036 5.51064 7.81521C4.57195 9.22005 4.07092 10.8717 4.07092 12.5613C4.07092 14.2509 4.57195 15.9026 5.51064 17.3074C6.44933 18.7122 7.78352 19.8072 9.34451 20.4538C10.9055 21.1004 12.6232 21.2695 14.2803 20.9399C15.9374 20.6103 17.4596 19.7967 18.6543 18.6019C19.4543 17.8125 20.0896 16.872 20.5231 15.835C20.9567 14.798 21.18 13.6853 21.18 12.5613C21.18 11.4373 20.9567 10.3246 20.5231 9.28762C20.0896 8.25065 19.4543 7.31014 18.6543 6.52068ZM18.0358 17.9832C16.9635 19.0556 15.5971 19.786 14.1097 20.0819C12.6222 20.3778 11.0804 20.226 9.67923 19.6457C8.27805 19.0653 7.08044 18.0825 6.23784 16.8215C5.39524 15.5605 4.94551 14.0779 4.94551 12.5613C4.94551 11.0447 5.39524 9.56214 6.23784 8.30113C7.08044 7.04012 8.27805 6.05729 9.67923 5.47694C11.0804 4.89659 12.6222 4.74477 14.1097 5.04069C15.5971 5.33661 16.9635 6.06698 18.0358 7.13943C18.7539 7.84804 19.324 8.69222 19.7131 9.62297C20.1023 10.5537 20.3027 11.5525 20.3027 12.5613C20.3027 13.5701 20.1023 14.5689 19.7131 15.4996C19.324 16.4304 18.7539 17.2746 18.0358 17.9832Z" fill="white"/>
<path d="M29.5066 26.342L21.6251 18.46C23.0809 16.2344 23.6602 13.5482 23.2508 10.9205C22.8414 8.29269 21.4725 5.90995 19.4087 4.23269C17.3448 2.55544 14.7325 1.70275 12.0765 1.83941C9.42058 1.97606 6.90956 3.09237 5.02874 4.97259C3.14791 6.85281 2.03081 9.36346 1.8933 12.0194C1.75579 14.6753 2.60764 17.2879 4.28423 19.3523C5.96082 21.4167 8.34312 22.7863 10.9707 23.1966C13.5984 23.6068 16.2848 23.0284 18.5108 21.5733L26.3933 29.4558C26.8067 29.8664 27.3659 30.0965 27.9486 30.0955C28.5312 30.0945 29.0897 29.8627 29.5017 29.4506C29.9137 29.0386 30.1455 28.4801 30.1464 27.8975C30.1474 27.3148 29.9173 26.7556 29.5066 26.3423V26.342ZM5.6176 19.5578C4.23385 18.174 3.29151 16.4111 2.90972 14.4918C2.52794 12.5725 2.72388 10.5831 3.47274 8.77511C4.22161 6.96716 5.48978 5.42189 7.11689 4.33469C8.74399 3.24749 10.6569 2.6672 12.6138 2.6672C14.5707 2.6672 16.4837 3.24749 18.1108 4.33469C19.7379 5.42189 21.0061 6.96716 21.7549 8.77511C22.5038 10.5831 22.6998 12.5725 22.318 14.4918C21.9362 16.4111 20.9938 18.174 19.6101 19.5578C17.7531 21.4105 15.237 22.4509 12.6138 22.4509C9.99068 22.4509 7.47462 21.4105 5.6176 19.5578ZM20.2286 20.1763C20.5414 19.8623 20.8345 19.5293 21.1063 19.1793L23.0121 21.085L21.1371 22.96L19.2311 21.054C19.5813 20.7822 19.9145 20.4891 20.2286 20.1763ZM28.8878 28.8368C28.6389 29.0849 28.3018 29.2242 27.9503 29.2242C27.5989 29.2242 27.2618 29.0849 27.0128 28.8368L21.7548 23.5798L23.6298 21.7048L28.8868 26.9618C29.1351 27.2106 29.2746 27.5476 29.2748 27.8991C29.275 28.2505 29.1358 28.5877 28.8878 28.8368Z" fill="white"/>
<path d="M12.6139 6.57861C12.4979 6.57861 12.3866 6.62471 12.3045 6.70675C12.2225 6.7888 12.1764 6.90008 12.1764 7.01611C12.1764 7.13215 12.2225 7.24343 12.3045 7.32547C12.3866 7.40752 12.4979 7.45361 12.6139 7.45361C13.9681 7.45514 15.2664 7.99375 16.224 8.95131C17.1816 9.90886 17.7203 11.2072 17.7219 12.5614C17.7219 12.6774 17.768 12.7887 17.85 12.8707C17.9321 12.9528 18.0434 12.9989 18.1594 12.9989C18.2754 12.9989 18.3867 12.9528 18.4688 12.8707C18.5508 12.7887 18.5969 12.6774 18.5969 12.5614C18.5951 10.9751 17.9642 9.45441 16.8425 8.33281C15.7209 7.2112 14.2001 6.58033 12.6139 6.57861Z" fill="white"/>
</svg>
