<svg width="32" height="33" viewBox="0 0 32 33" fill="none" xmlns="http://www.w3.org/2000/svg">
<path d="M30.423 4.4848H21.5248L21.1295 2.19405C21.1119 2.09244 21.059 2.00031 20.9801 1.9339C20.9012 1.8675 20.8014 1.83107 20.6983 1.83105H11.3013C11.1982 1.83102 11.0983 1.86743 11.0194 1.93385C10.9405 2.00026 10.8876 2.09242 10.87 2.19405L10.4748 4.4848H1.57654C1.46053 4.48487 1.34928 4.53099 1.26725 4.61302C1.18522 4.69505 1.1391 4.80629 1.13904 4.92231V6.91381C1.13964 7.25209 1.2594 7.57936 1.4773 7.83812C1.69519 8.09689 1.99729 8.27062 2.33054 8.32881V25.2896C2.3306 25.4056 2.37672 25.5168 2.45875 25.5988C2.54078 25.6809 2.65203 25.727 2.76804 25.7271H15.5623V28.5243C15.2057 28.6295 14.8989 28.8597 14.6982 29.1726C14.4975 29.4856 14.4163 29.8604 14.4694 30.2284C14.5226 30.5964 14.7065 30.9329 14.9876 31.1763C15.2686 31.4197 15.628 31.5536 15.9998 31.5536C16.3716 31.5536 16.7309 31.4197 17.012 31.1763C17.2931 30.9329 17.477 30.5964 17.5302 30.2284C17.5833 29.8604 17.5021 29.4856 17.3014 29.1726C17.1007 28.8597 16.7939 28.6295 16.4373 28.5243V25.7271H29.2315C29.3476 25.727 29.4588 25.6809 29.5408 25.5988C29.6229 25.5168 29.669 25.4056 29.669 25.2896V8.32881C30.0023 8.27062 30.3044 8.09689 30.5223 7.83812C30.7402 7.57936 30.8599 7.25209 30.8605 6.91381V4.92231C30.8605 4.80629 30.8144 4.69505 30.7323 4.61302C30.6503 4.53099 30.5391 4.48487 30.423 4.4848ZM16.671 30.0063C16.6711 30.1391 16.6318 30.2689 16.558 30.3793C16.4843 30.4897 16.3795 30.5758 16.2568 30.6266C16.1342 30.6775 15.9992 30.6908 15.869 30.6649C15.7388 30.6391 15.6191 30.5752 15.5252 30.4813C15.4313 30.3874 15.3674 30.2678 15.3415 30.1376C15.3155 30.0074 15.3288 29.8724 15.3796 29.7497C15.4304 29.6271 15.5164 29.5222 15.6268 29.4485C15.7372 29.3747 15.867 29.3353 15.9998 29.3353C16.1777 29.3355 16.3483 29.4063 16.4741 29.532C16.6 29.6578 16.6708 29.8284 16.671 30.0063ZM11.6695 2.70605H20.33L20.6375 4.4848H11.3625L11.6695 2.70605ZM3.20554 24.8521V8.35206H28.794V24.8521H3.20554ZM29.9855 6.91381C29.9854 7.06295 29.9261 7.20595 29.8206 7.31141C29.7152 7.41687 29.5722 7.47617 29.423 7.47631H2.57654C2.42739 7.47617 2.2844 7.41687 2.17894 7.31141C2.07348 7.20595 2.01417 7.06295 2.01404 6.91381V5.35981H29.9855V6.91381Z" fill="white"/>
<path d="M20.5435 10.521C19.343 10.5204 18.1692 10.8753 17.1702 11.541C16.1712 12.2067 15.3918 13.1534 14.9302 14.2616C14.4686 15.3698 14.3456 16.5899 14.5767 17.768C14.8077 18.946 15.3825 20.0292 16.2285 20.881C16.2343 20.8872 16.2385 20.8945 16.2445 20.9005C16.2505 20.9065 16.258 20.911 16.2643 20.9167C16.9734 21.62 17.8449 22.1377 18.8017 22.4241C19.7585 22.7106 20.7711 22.7568 21.75 22.5589C22.7289 22.3609 23.644 21.9248 24.4143 21.2892C25.1847 20.6535 25.7865 19.8378 26.1667 18.9143C26.5468 17.9907 26.6936 16.9877 26.594 15.994C26.4944 15.0002 26.1515 14.0463 25.5956 13.2166C25.0397 12.3869 24.288 11.7069 23.4068 11.2367C22.5257 10.7666 21.5423 10.5207 20.5435 10.521ZM25.727 16.1642H20.981V11.4182C22.2047 11.5229 23.352 12.0565 24.2204 12.9249C25.0888 13.7933 25.6224 14.9406 25.727 16.1642ZM20.106 11.4182V16.4205L16.5698 19.9567C15.9525 19.2282 15.5479 18.3437 15.4003 17.4003C15.2528 16.4569 15.368 15.491 15.7334 14.6088C16.0988 13.7266 16.7001 12.9621 17.4715 12.3993C18.2429 11.8364 19.1544 11.497 20.106 11.4182ZM20.5435 21.8072C19.3145 21.8076 18.1253 21.371 17.1885 20.5755L20.7248 17.0392H25.727C25.6164 18.3385 25.0226 19.549 24.063 20.4317C23.1033 21.3145 21.8475 21.8053 20.5435 21.8072Z" fill="white"/>
<path d="M11.8285 19.6558H5.81274C5.69671 19.6558 5.58543 19.7019 5.50338 19.7839C5.42134 19.8659 5.37524 19.9772 5.37524 20.0933C5.37524 20.2093 5.42134 20.3206 5.50338 20.4026C5.58543 20.4847 5.69671 20.5308 5.81274 20.5308H11.8285C11.9445 20.5308 12.0558 20.4847 12.1378 20.4026C12.2199 20.3206 12.266 20.2093 12.266 20.0933C12.266 19.9772 12.2199 19.8659 12.1378 19.7839C12.0558 19.7019 11.9445 19.6558 11.8285 19.6558Z" fill="white"/>
<path d="M11.8285 10.521H5.81274C5.69671 10.521 5.58543 10.5671 5.50338 10.6491C5.42134 10.7312 5.37524 10.8425 5.37524 10.9585C5.37524 11.0745 5.42134 11.1858 5.50338 11.2679C5.58543 11.3499 5.69671 11.396 5.81274 11.396H11.8285C11.9445 11.396 12.0558 11.3499 12.1378 11.2679C12.2199 11.1858 12.266 11.0745 12.266 10.9585C12.266 10.8425 12.2199 10.7312 12.1378 10.6491C12.0558 10.5671 11.9445 10.521 11.8285 10.521Z" fill="white"/>
<path d="M11.8285 13.5669H5.81274C5.69671 13.5669 5.58543 13.613 5.50338 13.695C5.42134 13.7771 5.37524 13.8884 5.37524 14.0044C5.37524 14.1204 5.42134 14.2317 5.50338 14.3138C5.58543 14.3958 5.69671 14.4419 5.81274 14.4419H11.8285C11.9445 14.4419 12.0558 14.3958 12.1378 14.3138C12.2199 14.2317 12.266 14.1204 12.266 14.0044C12.266 13.8884 12.2199 13.7771 12.1378 13.695C12.0558 13.613 11.9445 13.5669 11.8285 13.5669Z" fill="white"/>
<path d="M11.8285 16.6108H5.81274C5.69671 16.6108 5.58543 16.6569 5.50338 16.739C5.42134 16.821 5.37524 16.9323 5.37524 17.0483C5.37524 17.1644 5.42134 17.2757 5.50338 17.3577C5.58543 17.4397 5.69671 17.4858 5.81274 17.4858H11.8285C11.9445 17.4858 12.0558 17.4397 12.1378 17.3577C12.2199 17.2757 12.266 17.1644 12.266 17.0483C12.266 16.9323 12.2199 16.821 12.1378 16.739C12.0558 16.6569 11.9445 16.6108 11.8285 16.6108Z" fill="white"/>
</svg>
